<mxfile host="Electron" agent="Mozilla/5.0 (X11; Linux x86_64) AppleWebKit/537.36 (KHTML, like Gecko) draw.io/27.0.9 Chrome/134.0.6998.205 Electron/35.4.0 Safari/537.36" version="27.0.9">
  <diagram name="Page-1" id="o5QjibHzjbCInSz3YMPJ">
    <mxGraphModel dx="1908" dy="796" grid="1" gridSize="10" guides="1" tooltips="1" connect="1" arrows="1" fold="1" page="1" pageScale="1" pageWidth="850" pageHeight="1100" math="0" shadow="0">
      <root>
        <mxCell id="0" />
        <mxCell id="1" parent="0" />
        <mxCell id="Yt9VvdovKTN9TZTVkpLf-3" value="" style="edgeStyle=orthogonalEdgeStyle;rounded=0;orthogonalLoop=1;jettySize=auto;html=1;" edge="1" parent="1" source="Yt9VvdovKTN9TZTVkpLf-1" target="Yt9VvdovKTN9TZTVkpLf-2">
          <mxGeometry relative="1" as="geometry" />
        </mxCell>
        <mxCell id="Yt9VvdovKTN9TZTVkpLf-1" value="WIFI A1&lt;div&gt;Internet connected&lt;/div&gt;&lt;div&gt;(no admin access)&lt;/div&gt;" style="rounded=1;whiteSpace=wrap;html=1;" vertex="1" parent="1">
          <mxGeometry x="365" y="40" width="120" height="60" as="geometry" />
        </mxCell>
        <mxCell id="Yt9VvdovKTN9TZTVkpLf-7" value="" style="edgeStyle=orthogonalEdgeStyle;rounded=0;orthogonalLoop=1;jettySize=auto;html=1;" edge="1" parent="1" source="Yt9VvdovKTN9TZTVkpLf-2" target="Yt9VvdovKTN9TZTVkpLf-5">
          <mxGeometry relative="1" as="geometry" />
        </mxCell>
        <mxCell id="Yt9VvdovKTN9TZTVkpLf-8" style="edgeStyle=orthogonalEdgeStyle;rounded=0;orthogonalLoop=1;jettySize=auto;html=1;entryX=0.5;entryY=0;entryDx=0;entryDy=0;" edge="1" parent="1" source="Yt9VvdovKTN9TZTVkpLf-2" target="Yt9VvdovKTN9TZTVkpLf-4">
          <mxGeometry relative="1" as="geometry" />
        </mxCell>
        <mxCell id="Yt9VvdovKTN9TZTVkpLf-15" style="edgeStyle=orthogonalEdgeStyle;rounded=0;orthogonalLoop=1;jettySize=auto;html=1;entryX=0.5;entryY=0;entryDx=0;entryDy=0;" edge="1" parent="1" source="Yt9VvdovKTN9TZTVkpLf-2" target="Yt9VvdovKTN9TZTVkpLf-14">
          <mxGeometry relative="1" as="geometry" />
        </mxCell>
        <mxCell id="Yt9VvdovKTN9TZTVkpLf-2" value="WIFI Pi&lt;div&gt;WIFI A1 connected&lt;/div&gt;&lt;div&gt;(admin access)&lt;/div&gt;" style="rounded=1;whiteSpace=wrap;html=1;" vertex="1" parent="1">
          <mxGeometry x="365" y="140" width="120" height="60" as="geometry" />
        </mxCell>
        <mxCell id="Yt9VvdovKTN9TZTVkpLf-11" style="edgeStyle=orthogonalEdgeStyle;rounded=0;orthogonalLoop=1;jettySize=auto;html=1;" edge="1" parent="1" source="Yt9VvdovKTN9TZTVkpLf-4" target="Yt9VvdovKTN9TZTVkpLf-10">
          <mxGeometry relative="1" as="geometry" />
        </mxCell>
        <mxCell id="Yt9VvdovKTN9TZTVkpLf-13" style="edgeStyle=orthogonalEdgeStyle;rounded=0;orthogonalLoop=1;jettySize=auto;html=1;entryX=0.5;entryY=0;entryDx=0;entryDy=0;" edge="1" parent="1" source="Yt9VvdovKTN9TZTVkpLf-4" target="Yt9VvdovKTN9TZTVkpLf-12">
          <mxGeometry relative="1" as="geometry" />
        </mxCell>
        <mxCell id="Yt9VvdovKTN9TZTVkpLf-4" value="Device 1&lt;div&gt;WIFI PI connected&lt;/div&gt;" style="rounded=1;whiteSpace=wrap;html=1;" vertex="1" parent="1">
          <mxGeometry x="213" y="310" width="120" height="60" as="geometry" />
        </mxCell>
        <mxCell id="Yt9VvdovKTN9TZTVkpLf-9" style="edgeStyle=orthogonalEdgeStyle;rounded=0;orthogonalLoop=1;jettySize=auto;html=1;entryX=0.5;entryY=0;entryDx=0;entryDy=0;" edge="1" parent="1" source="Yt9VvdovKTN9TZTVkpLf-5" target="Yt9VvdovKTN9TZTVkpLf-6">
          <mxGeometry relative="1" as="geometry" />
        </mxCell>
        <mxCell id="Yt9VvdovKTN9TZTVkpLf-5" value="Hub (LAN)" style="rounded=1;whiteSpace=wrap;html=1;" vertex="1" parent="1">
          <mxGeometry x="365" y="250" width="120" height="60" as="geometry" />
        </mxCell>
        <mxCell id="Yt9VvdovKTN9TZTVkpLf-6" value="Device 2&lt;div&gt;Hub (LAN) connected&lt;/div&gt;" style="rounded=1;whiteSpace=wrap;html=1;" vertex="1" parent="1">
          <mxGeometry x="550" y="310" width="120" height="60" as="geometry" />
        </mxCell>
        <mxCell id="Yt9VvdovKTN9TZTVkpLf-10" value="Device 3&lt;div&gt;BLE Device 1 connected&lt;/div&gt;" style="rounded=1;whiteSpace=wrap;html=1;" vertex="1" parent="1">
          <mxGeometry x="213" y="430" width="120" height="60" as="geometry" />
        </mxCell>
        <mxCell id="Yt9VvdovKTN9TZTVkpLf-12" value="Device 4&lt;div&gt;BLE Device 1 connected&lt;/div&gt;" style="rounded=1;whiteSpace=wrap;html=1;" vertex="1" parent="1">
          <mxGeometry x="70" y="430" width="120" height="60" as="geometry" />
        </mxCell>
        <mxCell id="Yt9VvdovKTN9TZTVkpLf-14" value="Device 5&lt;div&gt;BLE Pi connected&lt;/div&gt;" style="rounded=1;whiteSpace=wrap;html=1;" vertex="1" parent="1">
          <mxGeometry x="690" y="310" width="120" height="60" as="geometry" />
        </mxCell>
        <mxCell id="Yt9VvdovKTN9TZTVkpLf-17" value="" style="shape=image;aspect=fixed;image=data:image/png,iVBORw0KGgoAAAANSUhEUgAABLAAAAD1CAYAAABA+wwDAAAAAXNSR0IArs4c6QAAIABJREFUeF7s3QecX0W9//8JoSSQkBAChN57ryqKFBGwF1QQC1bs9WK9116v5VquDQuKDewVFStSlN4R6TX0khBIJ/n/n8Od/L6um7Cb7G6+m30fHvvYsN/zPWfmNXM+M5/3fOZzRs2YMWNhyRECIRACIRACIRACIRACIRACIRACIRACIRACXUpgVASsLm2ZFCsEQiAEQiAEQiAEQiAEQiAEQiAEQiAEQqASiICVjhACIRACIRACIRACIRACIRACIRACIRACIdDVBCJgdXXzpHAhEAIhEAIhEAIhEAIhEAIhEAIhEAIhEAIRsNIHQiAEQiAEQiAEQiAEQiAEQiAEQiAEQiAEuppABKyubp4ULgRCIARCIARCIARCIARCIARCIARCIARCIAJW+kAIhEAIhEAIhEAIhEAIhEAIhEAIhEAIhEBXE4iA1dXNk8KFQAiEQAiEQAiEQAiEQAiEQAiEQAiEQAhEwEofCIEQCIEQCIEQCIEQCIEQCIEQCIEQCIEQ6GoCEbC6unlGZuEWLFhQ5s6dW+6///4yc+bMssYaa5SJEyeWVVZZpU9AHnroofLggw+WO++8szzwwANl3LhxZcMNNyxjxowpo0aN6tM1clIIhEAIhEAIhEAIhEAIhEAIhEAIhED3EIiA1T1tkZKUUohXM2bMKNdcc0254IILyuzZs8suu+xSdttttzJhwoRHZLRw4cIqXl1xxRXljDPOqCLWDjvsUA455JAyefLkMnr06Ee8Rk4IgRAIgRAIgRAIgRAIgRAIgRAIgRDoLgJLJWDNmTOn+BElI9qFaCCyZaWVVqpRMquuumpZbbXV6v8n4qW7GryvpdGuop9EMPX30O6rr756GT9+fH+/WvvV1VdfXU488cRy/PHHV9Hqla98ZTnqqKPK+uuv/4jXI4Dddttt5ac//Wn5+te/XqZNm1YOP/zw8oY3vKFssskmEbAekWBOCIEQCIEQCIEQCIEQCIEQCIEQCIHuI9BvAYuwIbLlr3/9a42QmTp1ahU6bM9ab731yrbbblv22WefcuCBB5a11167z9u+ug/NyC0REUjk0g9/+MPyhS98od8g1lprrXLkkUeWt7zlLf3+bgSsfiPLF0IgBEIgBEIgBEIgBEIgBEIgBEJghSfQZwFLlNV9991XTjjhhHLqqaeWa6+9tka3EK+IWqJuiFhrrrlmzTck6uXpT3962XjjjVd4iCtaBVsUk7b+2Mc+1u/qES5f9rKXlfe+9739/m4ErH4jyxdCIARCIARCIARCIARCIARCIARCYIUn0GcB65577ilnnXVWFTRs8SJY2dK1+eabl7Fjx9ZcRdOnT6+RO0StY489tjz1qU+tYlaO4UWAWEmcPP3008svf/nLRYUnbEmsfuONN1YBUx/Q/ltsscW/bBe0dXD//fcvz3zmM/td8QhY/UaWL4RACIRACIRACIRACIRACIRACITACk+gTwIWQUNS7C9/+cvlRz/6Uc1TtOeee5aDDz64Jtf2ljeJs++6665y/fXX1xxEr371q8tWW21VcyHlGH4E5s2bV4iWt99++6LC+xvx6ve//335xS9+UfOcPfnJTy5PecpT/iXSbuWVV67bR/uSs6onmQhYw6+vpMQhEAIhEAIhEAIhEAIhEAIhEAIhMNgE+ixg/e1vfyvvfOc7y+WXX14jrt761reW17/+9VXE6Dzmz59fo7HWWGONRQncCWCECRFaonh8n7Al2Xs7bEOcNWtWfQOdxO9EMVsSiSEOn3cmjncdPy2BvOTxyuI7ksv7Ibj4nsPb59zP55339ZlrtHL77Tvt2j7zXdf3Xb9bEnvnOs+hnO3+rcytbs5RHvVr1/Y39WzXxsT3RDW1w72d3+rT7tfu6bu+g3VLuu5cf5f8XD07k+j7njL4cS11ES3Vk8fiOp1rX3XVVYsSrCvzC1/4wvLiF7+4ipU9D2XSF1pbqI8fdexsD+VoR08By5bUo48+um5JnTRpUuXduLX2xKDVs79J3Fu7u69/92xv9+hsk8F+IHP9EAiBEAiBEAiBEAiBEAiBEAiBEAiBfyfQZwHrtNNOK2984xvLTTfdVNZZZ50qYL3qVa/q9S2DTVRqt7Pt7Pzzz68CmH8/6UlPqsLHHnvsUU9xvkifX/3qV+VTn/pUFVS8ee5pT3ta3Z5GiBLV9ac//alcfPHF5ZZbbin33ntvvZbPCDgElAMOOKAcdthh9RyJ5i+66KJ6XeLGlClTyqMf/ehyyCGH1CTznSKRLY/XXXddOeWUU6pAc8cdd9R8X8Q0Ioxool133XVRxJkE9gS9f/7zn3WrHQFm0003LQcddFD92Xrrrf/l+oS7s88+u0avKbvvEHaIOBLf77777jWKaaeddqo5xNqhbjfccENld+6555Zrrrmmlk20G1Fl4sSJZZdddikveMEL6t9/8pOf1G2eG2ywQfnP//zP8tjHPvZfIuDcV+SUcriu+7373e+u1+jL0R8Bi5CE/R//+MfaFu7X6k289EZA7fCEJzyhRvE1AaqngEWc2muvvcq6665b+97dd99deW+00UblMY95TG2T7bbbbtHLAvojYBGstIeIMmXEV7u09taWe++9d+3vOUIgBEIgBEIgBEIgBEIgBEIgBEIgBJYfgT4LWIQRoghxiPAiIuYVr3hFFaE6o3x6VoU4RcD5+9//Xl7zmtfUf8uNRPwiKDUBy9sMCSsSf4tk8ga75z3veVUMIjD5/le+8pV6fxFELaqHYEHkELFFDJJzy9Y3ubiaYKJ8oqcIEY961KPqG/KIO+7TBI8///nPdYskIcj1iUctIoegRiyyJY64ceutt1YhhcClHMQkooyE9QQy9SPKtLopx89//vPyoQ99qNalRYb5njJ4a9/2229fjjjiiCrANRGLQEeU8jZAAtsDDzxQBRblUifCnfsQofz/d77znfLd7363ciAwEgA7k+hj8qUvfal8+9vfrmUjJBIlvTmyL0d/BCzCnzK7129/+9ty880313rjrf/gpZwEIryIj1j0FLDUFw+ilfp38tae6v/sZz+7ilktQovY+dOf/rR8/etfr31AX33DG95QRTP3VgYiIGHwpJNOqn3Kd1xfubW3NiGKHnrooYs4+m6OEAiBEAiBEAiBEAiBEAiBEAiBEAiBoSfQZwFL4vZvfetb9YejLzJq3333rSIU8WXLLbes29Z6OvnLKmAREdxPJM8nP/nJctlll1XhQ9SQqBxiBHGkRU4ROmxtI1YoI/FDNBWRQo4uooe8TUSfJnj4vsgk1yds+N4222xTPyeouLbcXsQ31yeWEX1EOvl/kUYXXnhhFZdEA4mIOuaYYxaxcE0RPsQcohMxzaFeIpPUyd8ITrbLtQgx5SbaHX/88VWUU/Ydd9yximgOYgvBTjSbOhNjPvGJT1Rx6LnPfW4tR4tyc67E65/5zGeqUCiCSRmf8Yxn9DnRfn8ErCYM/uEPf6iRcNioo7+LnhO9hpv2keyfYKl+yqmvnXjiibXevjd58uSy2Wab1TITl7DQJoREWyCf+MQnlpe//OW1TxDBHknAIiIqk3v85je/qW3s+i1nm3LJ+abddthhh8qRyKbdlyTWDv3jmzuGQAiEQAiEQAiEQAiEQAiEQAiEwMgg0CcBCwriDZGmiUgiWwgSInxEv4ikIfoQGWzXa3mgBlrA+sc//lFFmde+9rVVOHN9ApDthyeffHJtNeUgUtleRoQiaBB3bIMUOUWU+MY3vlHfoCcKqlPAImY8/elPrwIQIauJTyKozjvvvFrnnXfeuUaHif4hqFx55ZU1+oko4iB2iLYi6Lk+UYYoIiJJJFfLD0aIOeecc8o3v/nNWkbRZvJJvfSlL63XaQKWz0V72Ur3ohe9aFHEFCHG/Qkv7oPBRz/60SrwaA+J9EVZEV1ElYliE2VGDLQl8v3vf39Nxk8E6svRHwFLu7gnkUnZlVO9CVii7QhbIrOIavrPBz7wgdouBNBOAcv/E0pFQhGoCHW2/f3lL3+p13CudhLdZxsmQW9JApZ6+pyId9xxx9UILaIjEW2//farbeaav/71r+tbGEXB6Utvf/vbqyja13xhfeGZc0IgBEIgBEIgBEIgBEIgBEIgBEIgBPpGoM8ClsuJhpH/iaBywQUXVFGL4EOgEfUjl5MoIkICEasleF+WLYQ9I7BExthu9pGPfKQKPiKgiEy//OUv67Y529QIV3Joya/kUEZ5johWhA/RNv/zP/9TRR6iSqeAZXvey172srrFUV4rQgzR67Of/WzdkqaeBCrikCgsnxOMfvazn9VoKXma3P8973lPFdKakEe4UbbGqyWhd2+iEq7qIprqXe96178JWNjbnihSSRRWz8Pntnm61qmnnlqjlpzrekQ3Qo1tdbYYEvwe97jHlc9//vN1W2Rft8b1R8Bq5euZhL4lzBeBZTsjEYog+OY3v7nsv//+NcqpU8AiKGnLo446atFbDZXDOfqhNhXFZeuldtOmSxKwfJfQKLqLqEmUEvVmG2JLRE8YlOPsC1/4QhWxXNMWREKarYU5QiAEQiAEQiAEQiAEQiAEQiAEQiAEhpZAvwSs9jbBFjn0u9/9riZWJ/AQZAgwHHzJweXLEiFFIBpsAYsoIYeVbYGic0RGidAiNDmIUpdcckkVJOSUEjX2vve9rwphIrSWJGD5vgiir33ta/VHRI7vveMd76gRQZgQ0EQ3ffCDH6xbz0TyHHvssTViquXZEk0lesxWQpFYmLRk9yKSbCUkNBFqRG85OiOwHknAIo7Z5qh+6tnEMOIMoU8EGMFKlJpzRZlJqi8irK9HfwUs4pW+gg3B88Ybb6ws21sDsSL4iYDSXgQ65XkkAQs32xB//OMfl//93/+t/Y94+qY3valeY0kCFu7ETNs5iVP6irxrxCl91eH6ykbkFIlF8HzJS15St1sS/HKEQAiEQAiEQAiEQAiEQAiEQAiEQAgMLYF+CVitaIQJET2EAuKPiBZRPwQaAg8RQjTNf/zHf9ToGn9b2iTufYnAIsjYHtgEJMLZ61//+roN0NGZ/+n73/9+3WZGvLEtTaTSIwlYBCqCBwFLnW15E2FFNGmiHoHMNf32OTFFlJPoJmIIsc+PPFyup8y+a+uffxOocJNv6cMf/nC/BSzXIg4RZZSD+CVRPQHLNkLiFlFROxC0bFMk8Iko6+vRVwGrbR8U6fW9732vMpFAXr2JiersR6STaxKw2nbHvghYyqtP4SmKS7/TT2zzI8wtScBq0XIi0fRbEV4i6QivytQOZbW9UblF4j3/+c+vP51J8fvKLeeFQAiEQAiEQAiEQAiEQAiEQAiEQAgsG4GlErA6b0mAEPUkP5aE2IQsETESjUsoLiJGdJbtbUQKETAiWWzRI/Q4CB6LewthXwQsoojIJsLPpZdeWgUab9eTp8rh/qJ/RNQQokTREDvkNpI4vC8CFiHGFkIRQ95kKIKrJUjH4PLLLy9ve9vbKgeJ7d3/8Y9/fBVpvEVQjiy5sohnon78Fp1FCBSdRCwRNUXAsj3S0Z8ILOfjQMzxffm6RJe5nq11yiXnleTnkp4TFwlH7tnXo68ClvNEmdmyiDdhTZ4qOa4k3ifqEfL0CfUmIOkb2qM/ApZcXvJY4ef6ouKIcksSsNxX/itCJoFNNJjIt8Vto/R3opUthvqTHG85QiAEQiAEQiAEQiAEQiAEQiAEQiAEhpbAMgtYrbjEE0nERSmJAiKMiFI6/PDDqyhx7rnnlle84hVVsJEwW14jAs9ACliEG28bbALWEUccsUjAIjx9+tOfXmoBi+Ah35JIJgIWMahTwCIc2TbYKWCJwHJfW/d+8IMfVA4ihDAh5hBOiGeua6uapOfLImAR6u64444qmMkPZZudnGQELDmdvEGSmHTkkUdWsUdC9M6oo0fqen0VsLxdUU4v+bgIaQRD0XDqLpqJaCQHljciyl22NAIWIVQS+C9+8YtVGHQNAqK+tSQBi7gqX5kILH2FgKkd/e6Nhb8RY70ZkjBJFMwRAiEQAiEQAiEQAiEQAiEQAiEQAiEwtAT6LGCJkmpb3norIvGEWCHi5oQTTqgihaTqRCRRK7aREWds4ZJc/eUvf3mNuFmRBSyCB0GLkHPKKadUkeVjH/tYzY0l8Thm3tInoTjRifCzLAJW285oa5y8TpiL9jrwwANrtJH2kVzftkI5nfp79FXAsr2PMEUwFPEkv5QIq4MOOmjRLeX88sZE9e6vgKWetvYRBeXAwq0lWte3liRgEVC1hX565pln9poDq79ccn4IhEAIhEAIhEAIhEAIhEAIhEAIhMDgEuizgCVPk7xA48eP73W7FTFGTiLb7LxZrjMCy3Y5W8VswyLYiD6SrFzi7hVdwDr//PPr2wklDvdWQlFionnkXhpoAauxxPiTn/xkFWrk/xIBJTKLAEXgIWCJDuvv0VcBS3QUAcuWTQIWIY+A5e2M7VgWAcu2TNsGRZRJ5C4q6lnPelZ94+Kuu+5aE9aLshINKApN5NfrXve6GpmnDkRFUW+2EuqbclvZHih3Wo4QCIEQCIEQCIEQCIEQCIEQCIEQCIHuI9AnAUvEi9xJttGJrtlyyy3rVjBbq1ZdddWa50nOI28ktH2QaEBUIGDIgeXtbqJi3vKWt9S8R7YbikIiYhF1iF3yaBHACAtyQzmXqNCfHFjdtoVQEnVcPve5zy0SWmzpa1sIsbOFUMTaQGwhbN3LNkHb6wg8Z599duVJuNFexxxzTHnRi15Uc1H19+irgCUiSl/wNkRRYJ1bCOWTsi3vmmuuqVsIbTtdUgSWbY6YSUQvekxfs2XQFkV9iVhFEJVzjDinjvqffGy44+tFApgfdthh9Rq2EYr8+upXv1pzsunL8rHZGuqNg3jZzomjQwRhf/OF9Zdtzg+BEAiBEAiBEAiBEAiBEAiBEAiBEFg8gT4JWKKv/vKXv9TE57ZgbbDBBlUAEY1FfPIGPUKCqBrigOgiuYhEWO24445VsCAG/OQnP6lRMd7K57siXkTA2G5IGCP2yCW1oghYcnwRSAhUtqxhhJ23FxJ1CFh4ysU0EEncWzMTCK+++uoq0IgyUgZM5XrSJtoG8/4efRWw5syZU9v4pJNOqqKn74l+0t5yTY0aNapuJT3nnHMeMYm7CLLNN9+8/owbN664NjFULjJ9hiDmpQBN7FQv/VHOr49//OP1TYMEVP2QECYaSy4ykXEnnnhijVLTNwlfrrXeeuvVPu0+yq0v24Ipwqs/b2zsL9ucHwIhEAIhEAIhEAIhEAIhEAIhEAIhsIwCFme+CQJEGIKISBgOvm1w3tRGjCFKEShExEgcLvJFricHUYXwQMDypkIRV4QD13C0a4i4WWuttWqkkBxZRAURPd44Z1scYeSAAw6oW/GIIsSG9hbCbovA2n///WvdREH94he/qFFDttRhRxQU2UZwUQfiCFFLpJA3BDr6+xbCzmYmjBGvRGGJgsJUPjJRbwS0pTn6KmDpE8QlApVk8tqMsCmqSVsRsFp7E6X0lxe/+MUFL4IRIfTkk0+u4pdcV76HFzGLGCr5vfqIjBI5hZlIvSYw4UoMlVuM8Kqv6Z/evvjmN7+59hvlI2JhJD+YvqmfqaPyaRP92bmub5shISxHCIRACIRACIRACIRACIRACIRACITA0BPoUwSWYhGtbN0iPnH4bc0isBC3iE4iWGwHJCgQCiZPnvxvubIIC4SC0047rQpS3kRHaPF34gNRQoSS69h6aNsWgUPuLd+RS0pkkXu8853vrNu9moDlLYfe9nf55ZfXaB1J4kXbOAgqU6dOLccdd1wVLGwjk5PJljPl9JlIHMnWiSTe0mebnegwB8FJTiWCCjGEAERkItA5iB7K9cEPfrDeX6QTAU85RT4RXwgq6nzGGWdUgYZ4p95NjCFeqfd+++1XBToHNt/5zndqsnKcCTyEPec90qHMREeRXz//+c/LJptsUt797ndXruq8NId6qgcxTnSVsstr9pznPKcy7zzUTSSUPmNrqPbxRkZtSYQiBtlmSoTaZZddapTTFltsUa9JXCJ6EZ9sXdU+ra8RokRJYY+TbX8iqnq+QVBZRWnJPabvEMHcw9sQsXAQ07QnYRErbYg5AUvZtL/ILZF02ty9c4RACIRACIRACIRACIRACIRACIRACAw9gT4LWEQgDj8hhSDj3/7m4PATEEQTcfKJECJsejsIRK7RrtPzGr7nOq7ht+u2t+uJkHFvopDoGJ+7t4NgQRTyub8TSAhr7XBf3yfsuAdhzHX822fEFp83MY2g1rbZ+RsBhPiivC06x+92uC/hxW8M3N/vVj683EO93a+z3s5xLz/K5MfhHOX1owz+rtx92f7XIrBsX5RvSiL197znPVWI6Sn29LXbKYN6YOHHgRPOvZWp83zto97+5lCG9oNja28seva1xst3W1/D1g8mvdXHua1dMW/8lLezb3aeo26d5XOesrmH360t+8or54VACIRACIRACIRACIRACIRACIRACAwMgT4LWANzu1xlMAgQYeSUEiVH/CEuedOexPC28Ym4etWrXlUj0kS45QiBEAiBEAiBEAiBEAiBEAiBEAiBEAiB4UQgAtZwaq3FlLVtFzzzzDNrzigRR7Yp+hE1ZOuct/R5e2RnVNoKUPVUIQRCIARCIARCIARCIARCIARCIARCYAQQiIC1AjSy7YLyZNkuKHeUbXCEKrmi5OPyBr2DDz444tUK0NapQgiEQAiEQAiEQAiEQAiEQAiEQAiMRAIRsFaAVpd7y1v7JJqXiNwhKbwE54ceemjZZ599ljrv1QqAJ1UIgRAIgRAIgRAIgRAIgRAIgRAIgRAY5gQiYA3zBlR8ea8kiJf7qiUil4Bc8nHJ0fP2vBWgkVOFEAiBEAiBEAiBEAiBEAiBEAiBEBjBBCJgjeDGT9VDIARCIARCIARCIARCIARCIARCIARCYDgQiIA1HFopZQyBEAiBEAiBEAiBEAiBEAiBEAiBEAiBEUwgAtYIbvxUPQRCIARCIARCIARCIARCIARCIARCIASGA4EIWMOhlVLGEAiBEAiBEAiBEAiBEAiBEAiBEAiBEBjBBCJgjeDGT9VDIARCIARCIARCIARCIARCIARCIARCYDgQiIA1HFopZQyBEAiBEAiBEAiBEAiBEAiBEAiBEAiBEUwgAtYIbvxUPQRCIARCIARCIARCIARCIARCIARCIASGA4EIWMOhlVLGEAiBEAiBEAiBEAiBEAiBEAiBEAiBEBjBBCJgjeDGT9VDIARCIARCIARCIARCIARCIARCIARCYDgQiIA1HFopZQyBEAiBEAiBEAiBEAiBEAiBEAiBEAiBEUwgAtYIbvxUPQRCIARCIARCIARCIARCIARCIARCIASGA4EIWMOhlVLGEAiBEAiBEAiBEAiBEAiBEAiBEAiBEBjBBCJgjeDGT9VDIARCIARCIARCIARCIARCIARCIARCYDgQiIA1HFopZQyBEAiBEAiBEAiBEAiBEAiBEAiBEAiBEUwgAtYIbvxUPQRCIARCIARCIARCIARCIARCIARCIASGA4EIWMOhlVLGEAiBEAiBEAiBEAiBEAiBEAiBEAiBEBjBBCJgjeDGT9VDIARCIARCIARCIARCIARCIARCIARCYDgQiIA1HFopZQyBEAiBEAiBEAiBEAiBEAiBEAiBEAiBEUwgAtYIbvxUPQRCIARCIARCIARCIARCIARCIARCIASGA4EIWMOhlVLGEAiBEAiBEAiBEAiBEAiBEAiBEAiBEBjBBCJgjeDGT9VDIARCIARCIARCIARCIARCIARCIARCYDgQiIA1HFopZQyBEAiBEAiBEAiBEAiBEAiBEAiBEAiBEUygTwLW3Llzy5w5c0YwplQ9BEIgBEIgBEIgBEIgBEIgBEIgBEIgBEJgeRHok4B15513lrvvvruMHj16eZUz9w2BEAiBriSwYMGCWq5Ro0bVnxwhEAIhEAIhsDwJGJcWLlyYefvybITcOwRCIARCYFAI9FnAmjVrVtlwww0HpRC5aAiEQAgMVwLTp08vs2fPLmuuuWYZO3bscK1Gyh0CIRACIbACEHjooYeKccm8fcqUKRGxVoA2TRVCIARCIAT+H4E+C1gctE022STsQiAEQiAEOgjcd9991VGYOHFiWX311cMmBEIgBEIgBJYbAQKWcWnmzJl14Tm7J5ZbU+TGIRACIRACg0AgAtYgQM0lQyAERg6BCFgjp61T0xAIgRDodgIRsLq9hVK+EAiBEAiBZSEQAWtZ6OW7IRACI55ABKwR3wUCIARCIAS6hkAErK5pihQkBEIgBEJgEAhEwBoEqLlkCITAyCEQAWvktHVqGgIhEALdTiACVre3UMoXAiEQAiGwLAQiYC0LvXw3BEJgxBOIgDXiu0AAhEAIhEDXEIiA1TVNkYKEQAiEQAgMAoEIWIMANZcMgRAYOQQiYI2ctk5NQyAEQqDbCUTA6vYWSvlCIARCIASWhUAErGWhl++GQAiMeAIRsEZ8FwiAEAiBEOgaAhGwuqYpUpAQCIEQCIFBIBABaxCg5pIhEAIjh0AErJHT1qlpCIRACHQ7gQhY3d5CKV8IhEAIhMCyEIiAtSz08t0QCIERTyAC1ojvAgEQAiEQAl1DIAJW1zRFChICIRACITAIBCJgDQLUXDIEQmDkEIiANXLaOjUNgRAIgW4nEAGr21so5QuBEAiBEFgWAhGwloVevhsCITDiCUTAGvFdIABCIARCoGsIRMDqmqZIQUIgBEIgBAaBQASsQYCaS4ZACIwcAhGwRk5bp6YhEAIh0O0EImB1ewulfCEQAiEQAstCIAJWKWXhwoVl9uzZ5brrriuc0YkTJ5aNNtqo/s6x7ATmz59fuU6dOrXMmDGjTJkypWy44YZl9dVXX/aL5wohsJwJRMBazg2Q2y8TgTvuuKPceOONZc6cOWXLLbcskydPLqusskoZNWrUMl2o0jnIAAAgAElEQVQ3Xw6BEFg+BCJgLR/uuWsIhEAIhMDQEBhyAYtQ5GfevHllwYIFVTxyrLTSSmX06NF14rzaaqvV3/42FIdy3HLLLeVjH/tYOeecc8ree+9djj766PKYxzxmKG6/6B7KMXPmzCryqPv48ePLmDFjhozD0lbWZKm158orr1z8dLad+px22mnlpJNOKpdddll55jOfWfluttlmS3vLfC8EuobAQAlYbCGxlw0gJjQbwB62o53zwAMP1HNWXXXVssYaa9Tf3SI4KCN74EcdlI1tH+yj3ffBBx+sbNxz3LhxdTwZqrFksOvYn+vj0Wyz3ziwzT37yc9//vNy3HHHlbvuuqu8/e1vLwcccEAVsYaSmfLdf//9i9pt7NixdYFjKMvQH7Y5NwS6mcBACljsyNy5c+u45Le5ObvaU+R2T7bX/N5z6/ld2vmrubCx0DXZK3aLPe+WMa6b2z5lC4EQCIGRQGBIBSyD0R/+8IdyyimnlIsuuqhMnz69DnYcnDXXXLNG5eyyyy51Ar3DDjuUCRMmDEkbKNeVV15ZXvziF9coIWV44QtfWF70ohcNyf3dxIB95513lp/+9Kfls5/9bFlnnXXKW97ylnLQQQeVSZMmDVk5+nsjk4zbbrutXHrppeXee+8t22yzTdl6663LWmuttehSHKMf/OAH5bvf/W654YYbyr777lve//73V845QmC4ExgoAYvg889//rOceOKJ5S9/+UvZYIMNyn/8x3/U56Ud7OU111xTBYdTTz217LXXXuWYY44pe+yxRxUolvfB2SEeEaqvuOKKGsWqbKIuB1vE4lxdcMEF5dvf/nb5+9//XtZff/3KxnhiLBlpzo++YmHmkksuqbZZP2KbOZ6dx9e+9rXy8Y9/vI5BH/nIR8rBBx88pAKW8dfY9+EPf7j89a9/rX3l8MMPL0cccUQdR0Zauy3vZzj3H/4EBlLAslhy3nnnlR/96EflzDPPrAu8r371q8vOO+9c5+7tYGtOOOGE8pvf/KbOX4866qg6fyWG9/cgZv/jH/+o9stC7o477ljt+WCPIf0tZ84PgRAIgRBYPgSGVMDioBngfvjDH5aLL764rtCbnHJ6DExWXTkaBqr999+/PPnJTy677777oJNxfxNoAguna/vtty+HHnpo2WmnnQb93u0GnAdC0Pe///3ywQ9+sKy33nrlve99b3nSk55UJwPdepjccLa/+c1v1tW55zznOeUJT3hC2XjjjRcV2codwfJPf/pTFbAe97jHlcMOO6y2c44QGO4EBlLAIjYcf/zx5Xe/+13dxkzoPfDAAxchmjVrVhW5/ud//qeeQ5R461vfWh796Ed3hYDFcSJYf/GLX6x2Yc899ywvfelLqwPSUzgZ6HZni7761a9WsZzIR/wwhrzqVa8q2267bV3FH0nHrbfeWv785z/XMUW7vPGNb6y2WVRE5/GVr3ylfPSjH61/8vuJT3xiHXOGKvrJ+PDLX/6yfPnLX65im8gN/UYf33zzzeO0jqROm7oOCIGBFLBE0P/tb38r3/rWt8pvf/vburDy1Kc+tRx55JF1ft4EZnM7tuQnP/lJnb++8pWvrPPXddddt991sqBsHDTWmYc/97nPHZIxpN8FzRdCIARCIASWC4EhF7BEDphQG+y22mqrOqHm2HA+RD9Zdbn++uvr9rJnP/vZ9We77bYbdDiiBm666aZy++23l7XXXrtsuummdWvOUB3DVcASRfezn/2sfOITn6gTmVe84hV1iyDHox1te8jNN99cpk2bVtlaZe+GiJGhat/cZ8UlEAHr/7WtiEzCyX/913/VlXgr8AQ2UVidq/UD3RvYb+OGbeCirzhd7BE79O53v7s8/vGPr9teRlI0j5yObPMXvvCFyv5DH/pQdTx75h5cngKWcY/g+Z73vKcKntqN0CjqQlvut99+NQJ5JLXbQD8bud7IIzBYAtavf/3raktEclqsfNaznlXz5jkGUsCy4ElMF8n72Mc+tophu+2226COISOvl6TGIRACITB8CSwXAcsWGRFPopxsG7B9kBBy1VVX1SgduZIISSKhXvCCF5SXv/zli1ZhOUjOFVrMcRTFRQCz2i6ih/hksiuaiSBFGLOavMUWW9T7OFrCdmUwGNu6KMzZao9ru5YIohb6LELLde6+++5aLivGJt4EGOdssskmi5wCE3DXlRhXtITIMpNxK1LK11sOEmVaWgGrTVTcT/k4cnjYukMkwqPTcWw5dBpDv0VOtXwxWHAYXMc11cXn7uO6GKqLH3UR6t0ELN855JBDyqMe9ah6bwIgjsqAizbz23cJlBxKR2tTbaZNW/4adcBMezSxqyWE5/QQw5zrbw7nKLt7+z1UEQTD9/FPyQeCQLcJWPKQeD48v+yWg2jBVnk2PHeeZ88b0cczxD569j1D7Bvxw/etthOcfd9zJrKJQOXZFiFmdb3TvvQUsGwzecYznlGdHPbCPdgEdsTzyX4028VeOpTPc6+8onL7Il6o7x//+Mca+eU6vnfPPfdUW/+a17ymbkljp3tGgam77XVYKIvxRDlFAqsf2+M7rqOdeztPfdgq57m3+7bz2FtlUZf24opml9ybzcaTXdQm7DC2ysqGYcv+qp9rLum8npyagPW///u/NcrZtnjbf7SxH6KielpU4ixqO46iNtM+7q1eyuL/OyPYXK+Nh/i1MYStb+NwX7b76J+irt785jdXbsYGfDjDz3ve82r0nnQCnddqYywm2sW9HS0VQef45O8+13Y4txw9xlu89GvzA98ZqpQFA2Fzco0QWBKBwRKwTj755PrcsFEEJVFY7Dv74EUQi4vAalvL27jU7FibQ7MZ5sntOW8Clt/EMvNKY5T7GnPaS5ba4qh5OXvEHrBTbf7Lhra5Yzu3zWvZX3URkdrsVhuX0rtCIARCIAS6m0BXCFjtbX9tK99///d/FwMlccWK8Wc+85lF0VAGwLPOOqtuQzz//POrg2biKZT5aU97Wt3+wGHw/W984xt165ocKO985zvLrrvuukgo+tSnPlV+//vf18k2kcwKvXMuvPDCKsC85CUvqddSJg6dHE8tf5eB2gTYxFe+EJN+g6vB0/dFHnCmOBwGR9tXDMAGes5Ob1tZlkbAapOUM844o94TF3xMBNTV9hnbjzggzWkymTeAO5fw1HJXGeQ5ClhY8SJc/eIXv6gcm6jEsRQNZ/ufKCv1x6YJWOrbHAN15LRyQLC1kmaL5uWXX16e8pSnlNe//vV1YqIOHCDlsY1ErgUTEY6FOjjXKjwn2jX1CeHsQtmdq76cRu2kPLaePP3pT69tjkNErO42QCtC6bpJwGKDCPHyDLJXBCfPJBtg6y4bRKDw3Hm+iRsc+ze84Q3l+c9/fhWsCB9tiyLhRx4pzzJba8Hhxz/+cbVpnm2LEJ05+noKWOyNZ7CJKxyetqVQueSsYmPYMBG4znUvtott9W+2YEkilmfflhN1YRfYb7n41OPss8+u9VUH9e+MqlVWAt7pp59e7SdbyLFyP+KOhRMv8mDD2XwvolBWtgwL13KeqFP3ZEOvvfbaugjjPGVyD86We2NpO4zvqbsFFttARTVYvNF27m2MsO2R3SSg4aJev/rVr8rVV19dBcd2HnGOfewt6XoTsD7/+c9XG97aAUu28nvf+14dN+XAImAR8FxHmym3cVl5CV+2qLZ7KDtOxk/1ZIfZcPUikOljxp2+JILH34KWsdoYakus+8tjRmwVNSZKuzNaV/oBLHDWd5VbH8DKopex1ryBKEVUNEZoYwtjngdlNWb4TH9v6QqUvS2qrAh2KXUYuQQGS8BihwjF7WVL5opsq1yM5pW9CVhsDZvFhrIZfoxR7B0xim00dyeItYXHJmAZF4jObJYf5xsb5Ncy1/Msn3vuudV+O1cZPMPyq/ac/5o78hnYLPkjzXHNKVvKEvZZGQZ7q/vI7ZWpeQiEQAgMHIGuErBUy8TSmwDlfjFRNbi9733vq04IsYQIYi++7WgOzoVVcwM2J40wYsJrReY73/lOnQgTPzg3rmWia2L/ute9rjoYtrhwqExkexOwDLwcF9cyYTbotvsa/NxLziqTfVsglM/5ymNC38QVKzxEFXmtDOg9V6f7K2C1rRdEH2VTF3XjpLSVfBN4Yo66Gvh9BzeJ4jktLYLNhERd8HMuThwDWz2JU5wl12yRZ7blmEDY3kkkagKWCYH/N4HQLq5nUmByY0LSU8DisPgOZ9s2F/dsb53BWH04f64hBwKn1ARFMlECJjHMZKNFh2gr9eCUNYe1mxPgD9xjnCstTwLdJGBJgk2Y4LBz3JtY7rnybBKpPePEERN+4gZBhujgpRUEALaEzfU5+/Gyl72sisnq+YEPfKCKKQQKL5nouTWwp4DVomMJEBwQwoLnmQ1k59siQ1sNZ6Mcyip/CtvM9i9puzEba9ugstmC/trXvrbaZfaBQ0XgOPbYY2tS8Bah6x4+Z0e8ha/ZnnYfHP7zP/+zCjdEFnm1CH5E+vZGP9fA0/a3ffbZp+ZPdB5BCvtml4xP/u1cWysxY8c4XaKfCFTGD+c0DuqiDsruPLm9nEek6TyPoGhc8feeYn1nBBbnjaBkTDL24PDpT3+6lqkJWCJa2/a9tnDj/wlqtmEShnyfeIUrHu6hzfxdWZUBO2MDAfCRtuFzPl3b+GDRyMKIsfttb3tbXawwXtqqxMls9eOAyqWpr2sLURPKYGz2/1jqz/qOsnCcPRPmDepobNLOWOs7xj/iFXFVH+lL5NjytDe5dwg8EoHBErCIT+Z/xgOiO3tIKPKyEXbu61//+r/lwGLL2Vq2ka31XLcFiWZLCeWeVzbfgnQTsCxWskWeac8pG8beEbzMDc3J2S92v817/XaIePVME+DZCNdkb33H4T5sijGKcO68wd7q/kjtls9DIARCIAT6RqDrBCyDj4m6leX2xhODo5UeThlBiuNDzDj66KPrwGbVW8QTJ8aKOSfB4CaZpAmwAdTblUQOmbxahfEWFRNx0VN+iDM9BSwOBIHF6jSRxWDH8RMZYEA0YHMEDOa2P8jZYXDknHHSRCuZ1PuushOU3vGOd9S69BRW+iNgtXBs0V4cTavyLZ+YlScOAJGKI0q845gSgJTXyjXBS7SBKAoTASw5KgZykxNiF2eg5QTDzP+bAIjqMHGxav2ud72rilRNwLJyLmJK/QiCIuHatkkrXj0FLOdwQkwqiJUisrDlVLWoAyt17qGtiWbaw0q6trX6ZjLjntqPcOh6ysGBEhlBJMsRAoNJYDAELKKF59Wz2fkWJ3ZC9A+b51nQ/+WY4oCzQRx1ogznnDjvWfRss5meXTaPbRJt5TqeJTaLrSJUsR/sighVz6Tvezsru2pbl2hYQg27wYZ6Zjujo3oKWFa0m/isHGyg+riWRQX3ZgcIYoRn9p9AobzsKCGCY+GcxR0EJmKKF0lwckSTiZ5lp9hu9SBMsIMcJeIFtpIEs0mcMDaH82RrM8Zsl3PZedfFlV31N+MIu9rOI7ARajhvzmMrRaZhpjyiS0VaYS+yikgjypRDx3ZiQqTB3hjDfrkmO2x7nWty/NjSdh7mzvMd5/W2Nb1TwMKuM6KMrVdniw1tCyEmGBHjiDjGSWMF22qLH2fQeEfwFBmFr8UJDqz2wVE0lXFH3YlwxpPFRTSw38RQi1X6q4UgAqe+od04r9pE/xNl1sTY1tb6qTqoF2e0pSAwDuhjhEVt5flUD+1I6NN3jePaybnahlNt7FFmdRlpCf8H0z7m2kNPYDAFLM+8SH3jgOfX/ND/i4iyoNqZxJ0dNF8VtcvOeOYskBpXPKMtmpKQ7Jlkf3zWuYWQCM0umOMS79kg82d2xosfnGuOaL7OPluk9UyzB8ZPwrixxdyQDVBuY6Mtyq6nfOxH27adqP2h76+5YwiEQAj0l0DXCVgGE5NJgw7Rw4qIybMJ7Je+9KU6OPrcyjhHzAS8vW3JxJYzIKrABNrklIDF0SNmmPwTvDhIxCYOEmfHxFx+pp4CloHWFhcTbIKPVRpRBwZqg7ZJAifGbyvJJuBWmjhtHCYrQMKfRWZx1Jxnlcn9OECdR38ELNdRJ4O0CbcBl5NH5OGAWf3n9BCxOF0mERwOjgiGIqs4Zs7nIPqOa7Ttf+3fHC5OMQdAPQhl7qkuHCdOrgkC52pJSdy1FxGvU8ASJaEtONCcYjw51dqUsKYOJkNW14iAmHmLFieLg87xMxnCmVPo70RM9+D8cuxFUAzlmyT7+/Dl/BWDwGAIWGwUB5+Q0HP7HBvpWfXTkqSboHPoRTTZNmfrnUUAz4FrWAwQgUJM8cxy+p1jUu+ZcU2ClOs410SfgO0cApT7cDaIPsrjb356Ckt9SeKOF9v+yU9+sjoTLdcR0cb3iezKRKQjzFmQIFQs7lBe4pGIMU4QG8tGs+nsnYgodeZkEUQsaPiM3WFjCEBsSHtjFhZsLDvoPNsplcmWNoyIIsaOzvOwEtHkXhwsbNpr5glB7CahrUWVqYuxjI1mi50vwglvYhjRx/2NP82Wc7LYO+JcywfTzuuNTX+TuKsP4Ug5MMLV+MkRZJs5l1jpmyJm2V/CIx6EIXba2KKPETbZX87o4raA6k/OVz9Oqkgs5xuzRNlyTo0Romndm6joaAKWsdYYbXFK2/ieshmLjB8iDS16EBH1J33auKsNcdTG+p+5gOdAH7EoY3GmZ6L7FcNSpRYjhcBgCljmwRZiiU6eX/Ns80F2yTPtzaftLYTsg2fRuOFcz/mb3vSmajfYGPNqn7kGUcpiMsHadRaXxL3lpGWTP/7xj9d5LdHdNdlFdkAZzMnNK82NLWha4DafJMDzJ9zH23HZtBYhHPFqpDwhqWcIhMBwJ9B1AlbbGmcgM6hxYGwnsOpjcmnFx2GgMkhyzprTZNAzKH72s5+tk3AOEAdG2LMcJSIMDFZWgggqJqocOU4P56JTwCLuuLcJsUgBgyInw4DZ6VQaTDmaHBcJhDkNor+aw2UiYbsIR8i/vbXFBNpkeWkFLGKNXB6EHAOygf/tb397ddA4lyYWIr7Uk6NowqFshCRsOE0cVROEFj3QWRbXV14DPSeBQOiaLfm9qAARG4RCE5KlEbAwMGkweXGd5vBwlDlD2pTjp03U1So/sZGzx/HrKWCZeHDgXc9nBEyODTExRwgMJoHBELBEYHkG2JHO15CzISKniApsEhsmAosDwaYRqUTCeOY58E3AbdvbPPtsBMGGjfR3Qo7rEQpEk7IZHAB2gPPvmeSccPI96+5FUGA3eya+7ouARezhfLBdyirC1oKFerqnMrFXbD1BR05EglRvW7vYJWUiqIjcEY3JkSFo2C7GDrYxg2jB3hOf5G0yNojyUR+2EOtOB0ZUEDHQeZwftoT9J7D3PI9oo8xENOIHx6htn9M/2FNRVxZetIvVfueKDLIwYDwz3qgnm6reFmdEohq/RB4bz/y9nccGt/N6c7z6K2B5RnDQ1hgZTy2QYECk4vAR59hYzFtuNQs1rW30I3UlFKmnaCciVE8R1ncJUbYitsUhbYcDh7Rt/2yLWRYv3Ec9exOwRKe5h3YwZhi7RG3oV0RWIllPAatFWYnUIphpN+cb+5PQfTAtZq492AQGW8CyWGueS5hnx9k2Yw2ba77mmTOHNw6xb7b8WmAkOPsum2vubG7MlpirsuXGIM+655ew3NtbCNXN/Sx+EqvZEpGe7tleetHm3AR+82ILpuwnIVskMlvBnhO+lMV83Jjh/L68NGSw2y/XD4EQCIEQWDKBrhOwDGJWnU0qhQZbKbFNzgBlYOOkcZI4B1ZXeg42/m7FntNlIsx5kSeEsEU0MegaQA2A8mWJ+BGB1JuAJfrLxFZUA6eRA2RC33m0tzERk0QBcBqUi9DSWTb/NikW5syJEg69tAKWrSOcPCtaftRJZJhIBgfHC0NOnfobpAlXJhecLKIcJ+hzn/tcdRh6vqXQipnJQYuC4EiZ7JsoaB/RWJwn3+f0LY2AZaLCGeFUcGJcTztp7xbWzbGx0ie/gfY0CSFa9iZgcaDaap6yqzPHl1CXIwQGk8BgCFgcA8+16E+CTDs8f7bVtiTrHAQCFiGaY0/oEAnjOxwIYovD5N1zypH3/LKFolOIYIReUaIiVAkixBp1kvuI2KQc7mPi7zPRkGyYSX+n7XCfvghYrSycGnZVhC0ngzji+wQQtsVzTghRPsJPb84Fu61O6s1pIbywVy2KFK/2ljxiinthQriSV4pIwxYaE4jonQfBnpjHuWJb2BQ2que2ZOcR/JxHQFEHtr7nNjSs2CMLKeojulWbaRfjhohX45QoJAIjx0pd8HAeYZ5I5zzji/O0Y1uEWNxbCI0D2Ck7UadndBH7S7jqKWCpMyfSQpJxqwlYBD3jsH7kWr29KVI/InJaeMCiZ9l8Fy/tTKSyCNMiz4yphEziprGO0KovK4N6LEnAsoihvxAu2wKVucOSBCyRxLY+uqe+3aKDB9Nm5NohMJgEBlvAYkvM/YwPFkXYUs80u+v59cx5Ztk58zf22djhGRZpSeA3nzQnNUe1iOLfxhXzfNsDzd8IWBYjXYvtZEPbGGPua/GTjWeHzLs7FzmUxWKoLdvEdPezKKq87LpxwcHuO8fisrEuOfAGs2fm2iEQAiEwMAS6SsAy8BFPTGpN1g1onA7OmsNKvcHOaqvJse0YbVtBw9GEopbnxABo+6Dr2krXVpCt9rsuR8+kuDcBi8MiskoEFieCQGSbSOdqtzJz9pzHUTDplvjYIN1zVdz/G2RN1Hs6N/3ZQmiizQkkrnE+rHCLUuNguAfhzgBtUmEiz9GxHUM5TRQM4CItTPQ5SZymdnDGhF63ZJeEJUIfZ9X3OZVW4DsFLNtwbAdqWyRNBDoFut62ENrehIVrEdecb+VcHhLOjEmKcoi649zpByKwOHTyKfSMwIqANTAGIVfpP4FuELA8xyJ1RGCxVRwHz4u/O0S0cNKJJZwAAjLBioDkO2yJyTtbwIZxMDgMBBkRmIQhtpSz4NklOLGhPYUJNoAoxv4Rym1hJBqJoPW8Ozg9PmNjlJVdb9GxnnvCSRNJOBdW2UUm9bYyTlQjhLF37Az719M+s63stDKwkaKJWnQu+0gAImL03KbYGYElWorNZP/Zvs7DeS0Ci5OGna13nLjOQ/mxZ//9Vi5On8UU38PEdTAk2mBiEcVY4TxjWOd5vq8uzmvOXef9iF3am5PXtgfaMr40ApYFBJFJFhBaBJZ/E3xcs+c4rMxtkam36DCLUyI39Dt9qretsvpCczBFP1uk0YeWJGCJFtP3CJN9jcCyQKYcrp0IrP7bv3yj+wgMhYBlbGH7iMbmoYTutu2dLSU6mXuKyDLGEL39v3QWop/YJGONOaVFYnNPgnyLwBLtKtrfAoNr+c1uqhvx30Ilkct80TZBEZzm950H28PemTe6H0HcAo9IUeOldBiiXEVfGdNsP8+bSLuvP6dEIRACIdCTQFcIWFZorSq3QcVk0sAmJJlQ5cfAYyLuM4OXUGSRB4QVA5TPCTeOtpLbEsIbCIUvmyQbADkMxCyOFefFwNZTwDKRFQ1kAG0TYoKWwdW9TdhNsN2jRUSJGnM+R8kKOuetDYYcEBN1A2xvKzz9EbCca6KgTsqmHFaQOGccGew4B0Q1DqqBXdnwEYFlNRojgpyoMuKRMhHGiIZySHFSOEsYWJ0Xns0x5SwSwZqAxVkzMfE3ebla0l2TDeVUNnVv+ak40spjRQwLkWuEROf6u0mEOphUSHLM6TaxMUGRO8G1WvLjzhxYEbBi3JYXgW4QsAgdni2OgGgqzyuRisBBzCfweKZFZjqX6CFCxTPvMw4IoZgt9Fx6Dn1OACFQsyPsF6eFM0HQ6G2bVdtSzS4RGtiH9nYpq+FtC6QIKHaZWKWMxBEr7b7PMfHD3rR8Kz1FI23NZrBzojiNHxYjCHedb+Rr4lJ7gyyBnLBnHCBaEfPVVxnZ0JbTq9l2ohHRCgcinggBgg2Hx9HOM6a4njo7z5jlera9EXPYKo4TZtrDmKFsFk/YLn1IzinOHLFMlFd7eUkbtzhjzvN5O4/t9oZFde8pIuFnDGC/iXsWAwhOhCfslMu1+xKB1QQs9yMaWnTAvIlEndERbLTrt7d89fZctqg5fY44adGnc6uhfmnrkfFeUmaRG4RMoqntp9rcWNsibUULGn+IgKJDjI/GalGG6tlyYLU8Zvo3niI9RN95BvQxebtaFPDysie5bwgsK4GhELAI+i2Kik2w6MCes+HsfhsnzCmNS+aORH0LyiIzPcu2crM/IqPYSt9ho0RtmVMS9C2stHytRGY211zWvJOAxQ4ZJ3zPtvb29tcWEda2crO57U2FrsH2ELGMARZS2Ao2sreI0WVtj3w/BEIgBEJgYAksFwFL6K/VYeKTlWaTeIOQiapVfp+ZKNveJ5rHdgQDDqeHE2awNCgRiOQSMXE3OBk4W34QqzL+33WbwGJQNGkVwSXax73bZL43Acuk2bYUDkx7K5hBmxPXtrl5k4pJtC0dIrWcx9EjjDmv8xXfziUy9bbC01PAcg6nRARC56vIOV6cG3lS1M2kXqSSyT/HFFMCHyeHA2MiwemS14RToHzyrpgw2Dqp7M3J4sxwBEz4CUs4u5c2wIkD5rqi4JqAhYdVb46kaAbXIuD5nnbxWx3cr+dbCE1MlJ0zwunmSLbvqoPrNiHTBIaToz04t4nAGlhDkKstPYFuELDYvSbusq+EF8++55N9teXYSrmD8y76ijPB7pjIE1/YSaKKhQM59Qj1bXWco88u+C5xxja8FlHVkxw7IYqW0MxhsBrPFrIH7LXrs9fsATGCTVNO12SzOS3ux+4T2dkfolDn0XILtq2G7JMoVDazc/u2+hg3RHuxJ+5NpGA/iSOElBtvvLHaQvaz5Rtj31tuFKIUpsYnzIg17Ty2WdnZXee166mn6xFMjDkELC3lo68AACAASURBVBFYFgzYROMN2+eaOBK1RKYpo7q7JqHNWGVM5GB1ntcYKQuhhujSsz2IjoQZixfGVHkgnd8EPk6ksrC/tgo6OnNgdW4hbAIWsUnZiUScT2Oaaxqv3b+JctrSmNOzTC0KgmgkklZbcWhFWClXi7JrW0k5lBY/tJt6ECiNS8qMAT4EUOUwZoi88nfcpRLwmb+3txAa49ocwb9Fh8jtxiFWXtFY7c25S28R8s0QWL4EhkrAUkv3EtFqbk4wt/jYBCwLxeyfv0ux4TO2gX3zvHv+PK/GFs+ql0WwJ+wVwcv4YDwRseXv7K1n2/XZmrZgoxzm3C33oPHFwW4Yx9gV83/2oW3BZpPZVgu2nn9jm0Xxnuk/lm9L5u4hEAIhEAK9ERhyAcvEU1SNgcRk1gTXb4dJPCHGKriVcoNfS0LsHAOZaACOh2gtKzv+boA0GeVUiCyw8k0ccbSJsMmsPCUcNgOh1Z2W/8nfehOwTGgNkkKjrcATb6y0u6YBl2PoWrbUcA5M6DkxhBwOZJvMt62DzrFybbLdW1JbYg1HyeTe5z23w6gPYQsXg60BW504ApwNfNSlnccBFNXEaSIOmWhw1uTXIVCZTBi43Qs/5eLUqLdBvb3FkIPZVqXcwwRAu7QtiJwwwhjnjaNFKMOGI+B62sNqek8BS/ma2CZHgjZ17fYGMA6vyY7tg+3V9RhFwIox6yYC3SBgcezZTzaIrWKzPOueJTaSvSLyEFVEM7Y3qeIoOsfqueeqrWYTgzgNIpds/2D72GrRPiKQLBAs7o1NLScUO02QEQ3TbBmByUo3R8Pz7hy2xjnsqrKyN4Rwz7y3RxGH2JPOg21VJtukCUEcIvnC2KXOCFf1ZzPYe2IcG0cYYpf8nd2yCs/+s4VtKxsBqkVRseUiewgnHKvO8+TosiiBifOI++16BCTXa+OTxQELDgSUJujj25Ll+628xjFiPbvZkhWz8/hg03mec/wQkHoyMha0hPhYiVByNHvecg5qd9FwfRGwRDgoB3ESO9fX//3N/bUfJnjYet5zscZ5+iUxSt21m3IQC3uKXc4lYGk31yFmimxub9RUJ3zbG8Q4rf6fg2v+oF0stGhb44u5B5HXfZQVa321Lf7g6B7JgdNN1jVlWRoCQylgKZ9xw7zXM+a5NLcTTSUi39zR/I+9aAIX+80+sY3GEguXnj1bDG1jZ1OMYcYHCxDNlhK9jHWELnbUZ+yXLcnmkm1urkzGO4vg7IBnus17LRCwGQ42gyhmPCKimy8vbmFmadoh3wmBEAiBEBgcAkMqYBlUOQJEKFtZDEoOQoVJpAk+p0lkFeGiMzeT89rrc20dEIHTBi0CjO8TpGxpsOLCUWkHh8PqkHuLjhJ5xYlp1zeQEmEIMrbhKAPRx2TdwWGwUmPCbbWW49MS9XIIOVkimQzGVnk4G84jEPmuAZJDRsASSWQQ7jlJVgYOBtGIyLW4o0WeGextuVE3TiKniSNoEFcv4hahy4Sgk4U24Gg5F48mBHJw8TfxN+lQP1FRBn2RAS1PiWubGGBERMNc2Z2jTUw6iFjahCNDDMPRShtHxOTBPWzZ8d3WptpSefQLdRABwRnlaGLrng6MOOjKZRLE0eOQ49netOZz5RNpgUOOEBhMAgMpYEnQTuBv2wBtI7M9oh0cbs9Se8Ooib+tguyQSXkT49kgP1bGPWOebddhHzkXnWKHa7ofUduzx2bYjuH55Xh4rl2LCC5HCTvWM3l7J1/382yK/uGwsNeEbyKESCHPNOFfedlLzzJHhF1lQ0U5sUHOtRDRU5hxL0IE50bZjCPqxmEiPPU8lAcvogs+ImuJaO7DRnO82Ha20LWUiyDEmXGu6C/jQ+d57u880aWYilBiZ9k+AouoIbbO9bDymagv9t/Yhiuxi71UBo6UcRBzdTGmGDP0B46fe7fxhG3seV7PnIqdY58+YGGE0EcoVB51t9hDyBTlYGs5TgQj3LW1e4sqNr7oExw8zmNLpKzsRD2RfSJjHZxV9cODbe65rbElxufour4xTPSXMbG3QxSGMVHfYMst7qgHUdUYpm3aGye1LWbKr30JgcYF9W8CVltY0XbEQeOpZ0hZzRvivA6mpcy1h4rAQApYbJiFEeODea3nxct1euYMlCvR2GUeJ4rJM9jsomfTjgDjDNvI/rEFnl/2jr0nNncK3sYiNoadNIYYUzzT5oMWNf1WNnNz45NILjZS3dkh80v223yTHfC5KGNzTYvfxhr3J55bLFEO989bCIeql+Y+IRACIbD0BIZUwFJMgxYxxIS9RQu1aCODjAmmSaQJeW8r/G0Lguv0vEb7rgl2p0DkOxwO3/Fvk9f2pqqGjmDDyWoryZyEtkrjO4QoA6ifFtXQymuS3hw633efzvPUT32c47qLW+HFgyBlNWtxh2vh457K15zFVra2qtVYOKcnx5a3SzmVt7WDMjq/TeJdU1u1+ipTiyZwfXVpjpNzlL3V27k+c63m8LiW+7lHZyL71qY+x1l51LO39nQf57W2xKFtsWy5EZTDPU2ienN+l/5xyTdD4N8JDJSA5Tlofdhz5FkjGDc75M7tHBN353QmBe/cftVsUEuE3SJVPC89xY5mQzw3nr12Td/x/fa8KQ+76fNHmuS3a3ba6Wa7mk1Qn572stlKdfbTW3LvxkF5la3ZdHZgcbYVr5Yj0f2b7XJ/40inLVTPZrtaGfp6HvukXTqv18Y3tqjZvVZv5/mOo0XCumdrJ/bQOY903uKey84+1XLANBveksm7dhtz2Mw2fiqjv/teG7s6277VUxmd2+rZxpHe3k7Y+oXx2Pda1PXi+lPLHYlRs+lEUQIYx5WgJh1Ai2pu/bxznO0UsAii8lsSrNp45rptDH+kfh37FwLDgcBAClhtftbmd54X41LPuVWbA7LJLXk6W9vmnz1to+u2/H4tKrLz+TMWNRvTUoS089vz2srmvGbf2q6MThvuup32qs15O32OFsk5HNo3ZQyBEAiBkU5gyAWskQ489Q+BEFixCAyUgLViUUltQmBwCCzpLYS93bFTwBK5JopQhPXiotYGp9S5aggMHYGBFLCGrtS5UwiEQAiEQAj0jUAErL5xylkhEAIh0CuBCFjpGCEwdAQiYA0d69xpeBKIgDU82y2lDoEQCIEQ6BuBCFh945SzQiAEQiACVvpACCxnAnLZyFkm76I8PJLtd77BsGfx5M+SI8d35NCRb0e+qyRrX84NmdsPGoEIWIOGNhcOgRAIgRDoAgIRsLqgEVKEEAiB4UsgEVjDt+1S8hAIgRBY0QhEwFrRWjT1CYEQCIEQ6CQQASv9IQRCIASWgUAErGWAl6+GQAiEQAgMKIEIWAOKMxcLgRAIgRDoMgIRsLqsQVKcEAiB4UUgAtbwaq+UNgRCIARWZAIRsFbk1k3dQiAEQiAEImClD4RACITAMhCIgLUM8PLVEAiBEAiBASUQAWtAceZiIRACIRACXUYgAlaXNUiKEwIhMLwIRMAaXu2V0oZACITAikwgAtaK3LqpWwiEQAiEQASs9IEQCIEQWAYCEbCWAV6+GgIhEAIhMKAEImANKM5cLARCIARCoMsIRMDqsgZJcUIgBIYXgQhYw6u9UtoQCIEQWJEJRMBakVs3dQuBEAiBEIiAlT4QAiEQAstAIALWMsDLV0MgBEIgBAaUQASsAcWZi4VACIRACHQZgQhYXdYgKU4IhMDwIhABa3i1V0obAiEQAisygQhYK3Lrpm4hEAIhEAIRsNIHQiAEQmAZCETAWgZ4+WoIhEAIhMCAEoiANaA4c7EQCIEQCIEuIxABq8saJMUJgRAYXgQiYA2v9kppQyAEQmBFJhABa0Vu3dQtBEIgBEIgAlb6QAiEQAgsA4EIWMsAL18NgRAIgRAYUAIRsAYUZy4WAiEQAiHQZQT6LGBx0saOHdtlxU9xQiAEQmD5Epg3b17hMKyyyipl9OjRy7cwuXsIhEAIhMCIJrBw4cLSxqUxY8aUUaNGjWgeqXwIhEAIhMCKRaDPAtb06dPLhAkTVqzapzYhEAIhsIwEZs+eXebPn184CiuvvPIyXi1fD4EQCIEQCIGlJ7BgwYIyZ86cKmKNHz8+AtbSo8w3QyAEQiAEupBAnwUsTtomm2zShVVIkUIgBEJg+RHIFsLlxz53DoEQCIEQ+FcC2UKYHhECIRACIbAiE4iAtSK3buoWAiEw6AQiYA064twgBEIgBEKgjwQiYPURVE4LgRAIgRAYlgQiYA3LZkuhQyAEuoVABKxuaYmUIwRCIARCIAJW+kAIhEAIhMCKTCAC1orcuqlbCITAoBOIgDXoiHODEAiBEAiBPhKIgNVHUDktBEIgBEJgWBKIgDUsmy2FDoEQ6BYCEbC6pSVSjhAIgRAIgQhY6QMhEAIhEAIrMoEIWCty66ZuIRACg04gAtagI84NQiAEQiAE+kggAlYfQeW0EAiBEAiBYUkgAtawbLYUOgRCoFsIRMDqlpZIOUIgBEIgBCJgpQ+EQAiEQAisyAQiYK3IrZu6hUAIDDqBCFiDjjg3CIEQCIEQ6COBCFh9BJXTQiAEQiAEhiWBCFjDstlS6BAIgW4hEAGrW1oi5QiBEAiBEIiAlT4QAiEQAiGwIhOIgLUit27qFgIhMOgEImANOuLcIARCIARCoI8EImD1EVROC4EQCIEQGJYEImANy2ZLoUMgBLqFQASsbmmJlCMEQiAEQiACVvpACIRACITAikwgAtaK3LqpWwiEwKATGEgBa8HChWXm3AVl3kMLymorr1TGrLxSWWmlUYNeh9xgcAk8tGBhmTVvQZk176Gyxqqjy9hVRpdRadbBhZ6rh8AIJRABa4Q2fKrdLwILFy4sCxYsKH6PHm1MzqCMBfuBxUorrbSISePU/t4v0F10cmtzReqsXxcVMUXpI4EIWH0EldNCIARCoDcCAyVgEa+mz5pfvnfB7eXiqTPKfptPLIduP7msN37VgB/mBKZOn1N+edld5YcX3VFess/65dk7r1vGj1l5mNcqxQ+BEOhGAhGwurFVUqZuIkDImDt3brntttvK/Pnzy5QpU8q4ceO6qYhDXhYi1ezZs8vtt99eWUyaNKmsvPLKVeS79957y5w5c8rqq69exo8fX/8+3I7W5nfccUdZZZVVyjrrrDMs6zHcuA9WeSNgDRbZQb4ug8Lw/va3vy0PPPBAeexjH1v23nvvAbkrh/wPf/hDufHGG8s+++xTHv3oR5fVVlvt367tvL/85S+1HM7ZZZddqlHIEQIjicBAClj3zpxfvv73W8p5N91fnrDNpPKMXdYtG6z578/e4vhee/fMQiyZOHaVsvnaY8v41UYvsSkemPtQue6eWeXuB+aWjSasVjadNLZGfnXjcfaN08vp191Xi/bsXdYrm08au8Qoptvvn1P+cOW95eJbZ5QDt1qr7LflWlU0Wpo11ivueLD86ap7y/k3318enPtQLcMqo1cqa6y6Ull33Kpl943WLHttMr5sMGFMWaWXiLmb7ptdfnDhHeWEc6eW1z1u43LUnuuXCQMsYF1796zyvfNuK1ffPbPstP642n92Xn/cv7Xn7PkP1T5ywc0zytV3PVimTptTps2eX9Ycs3I59sBNa79ZaRlXol3/d1fcXf52/fTywJz5ZWEvHWrfzSeUp+ywTtli7bFl9Eqjyj/veLCccuU95Zwbp5d5Dz38jVVGjyrjVl25rD9x1bLLlHHlcVusVSatvkpZefTStOLS9Wqi8qdOvbHccM+sMmf+gnqRlVYqZc3VVi7rjn+47ffZZM2y8cQx/3KDux+cV+ty+nXTyh0z5tS+utGEMfXcA7aeVFZfdXTti/MXLCxTp80uH/nD9WXarPkPX3/Uw/1r0horl60nr14etdmEstOU8WXsKiuVhxYuLL+94u5y2jXTyg33zlpipdxz8rhVy35bTCxH7j5l6QDkW8OOQASsYddkKfAQEyBa8XH4UJ6XpzzlKWWrrbYalFLceeed5cILLyxnn312uemmm+r9dtttt7L//vuXbbbZpopC3XDcf//95bLLLiu//OUvqz/5xCc+say55prlwQcfLN/5znfKrFmzFvl6a6yxRjcUuV9lmDdvXrniiivKr371q7LhhhuWZz7zmWXixIlVoPvpT39a22aHHXYo++23XxmO9esXjBXg5OUmYFG+77nnnnLppZeWW265pUyfPr2GcXqQN9hgg7LddtvVDjbYnYghufbaa8tpp51W78WguP8jHR5kD/rNN99cNtpoo2qMVl2190gJD8e0adPqg/OPf/yjHHzwwWXTTTet4Yt9OXCZOXNmufLKK8vVV19d2ey0007V+H73u9+t12Z8n/CEJyz2cq28ykxw6nkoy7rrrlse97jHlTFjxpRf/OIX5Z///Gc1YIcddlj9W+fB+F9zzTXVqBHQXvjCF1Yl+6qrrqqDQH/ELNeaOnVq+dvf/lbGjh1bdt1117L55pv/y/0wUAf3xHHjjTeuDBjXzgNr/Uo9Gd3tt9++bLnlln3BnHNCYKkIdJOA9evL7y5/v2Fa2Wry2HLIdmuXDSf863Pbs4K33T+nOsOX3/ZAFQcO3HpSmTi2u1bWFi4sZfb8BeVbZ08tf7r63rLF2quXY/bdsGw5efXFilEEEFFsnz/9pjJt1rzy4r02KE/cdlJZc+wqSyVg/e36aeWb59xa/njlvWX9CatWEWX0qFF1q+cDcxeUSauvXPbf8mF+26+3xr+JRoSJy257oFw4dUZ51KYTyi4bjKvbQwfqmPvQgioWvfvX15Rb759dy3DUHuuXZ+2ybhnXQ8QkVhJVfnTRHUX73zdzfrln5rwybrWVyvdeuHPZdcPxVVBaluPmabPLry67q5x+7bQyY8784v9vu39uFe02nTSm8nn8FhOrQEugcb8zr59WvvH3W8qfr7mvbDBhtTJp7Cr170SjuQ8trGLsflusVZ6+8zply8ljK/+hOO56YG456tuXlqvvmlnWGbdqWX/CarUPLVhYat9ae41VyuO2mFgO32W9svFaY8rKK40qxNMzrptWTrrw9nL3A/PKGquNLiIs5z+0sPad5+8xpTx2i4n1enMeWlCuumNmedbxF9XPN5y4Wpm8xqpV9FN3gtW266xRDt1u7fLkHSbXe//q8rvKn6+6r1x7z8yKwDNCYLt35twyfswqZZt1H3aIICKwHrjVpPKivdcfCly5RxcQGGgBS1SG+af5+tprr10XNv3u7TAHu+uuu8pFF11UOMTmc5z0wTrMC0WMGIfXWmutsskmm9TtYDlCYEkEiBn8MT6U5+WlL31p2XnnnQcUWvNb/vjHP5Yzzjij+nF8HL6SZ8JztMUWW9S/dcMhyurMM88sX/3qV8uhhx5anv/859fn3HP8wQ9+sEZnPfnJT65+Yk/fq7fyezb5qX//+9/LeuutV/muv/76jxj1RA/g615yySU1OIM/uDj/uj/cRJAREb/2ta+VrbfeurzmNa+pUVja6Ytf/GL1XwVjPPWpT+1T/fpz757n0kCImtqe5iDara+awLLcd0X67pALWDoKweP666+vndog56HR0X1GKPFgEGk83Dq8hh2Mw/2IP7/5zW/KJz7xiTr4vec976kPTE/Bpt3f4Ozhuvzyy8vPf/7zct1115WDDjqovOQlL1ls+CnjSKSjan/7298u73vf+6rY1Gm0nOO6OAjPFL7ZOrN7GqB//OMfV+PyrGc9qxxxxBFVqMGQUGOSQKxZ3GFw/8EPflB+9rOf1WsRgDoPAz5RjcHym0jkvB133LH+9Iys0oYM8q9//esaeqv+/v+HP/xhFbwIWn1ZVWhtwMAzKkTEF73oRVUZ73yYWwir1ZITTzyximTKuueee9aytb3rxDCGzzlWPZ7znOdUwTBHCAwWgW4SsL7296nl1/+4q+y2wfjqsG41eckre9ffM6scf/bU8vcbppdn7rxuOWL39apT3U2HCBWO+hdPv7ncMWNuecZO65QnbT+5rLX64qM9iQ5/uOrectyZN5d9N59Ynr/H+mXbdVdf6uiyJmCdfu195Xm7r1d2Xn98jZIRZXP57Q+WU6+5t6w1dpVy5B7rlefuNqVMXuNfy0aMWLBgYRU95DQb6AAiIsnv/nl3+fgfb6gCC2HtSduvXV7+6I2qwNIp9dw5Y2457br7akSZCCdRfyLM5sx/qHz7qJ0GRMAiWokIu2XanDJn3kPlt/+8u5x6zbSyzTqrl2ftvG5tu43XWq1svc7qlRuhpQlYl9z2QHnKjuuUHaeMq2KQ8oqiw3706FHlv564eTlku8k1YmwoJKwmYOl7B209qYqUC8vCGi117k3T67OD42seu3F5zm7r1Rxnf77q3nLCObeWv90wrTxjp3WrYEmIOv+WGfWzndZfoxx7wGZlz03WrH9vApbtwoTn3TZcs4pXN983u4q2N983q+y98YTygSdvWdYfv1q54d7Z5cZps8q0mQ9HbHlGfnrJ7eWiqTOqwPuKR29U/46PKMFN1hpbtp8y/FbMu8kODaeyDLSAZYwzd/zWt75VNttss/La1762Ltr2nCebz3ESzz333PKVr3ylzJgxo7ziFa8oT3va0wYtvxCxzOKnhWhz4AMPPHCx8/fh1IYp6+ASGAoBq0V5nXDCCTXYgd/Hr+X7EWT4O/7dLYLrQAtYgiX4vd/85jcX+WyPf/zjq4/b28HPY2suvvji6pefeuqp5b3vfW/1sbFa1hxlixOwlOXPf/5zsbWQoMifXpwGMFC9kij46U9/ugaOYELzyA6m/tEdcgHLAy065kc/+lEdEIUpHnDAAbVze6B1+L/+9a/lrLPOqg1KpNB5B2O/rbIQoghDVHj3eNOb3lSe/vSn11WczsPAzOB5uKimhJrzzjuvTJgwoYpJSxKwWgSW7XYf/ehH6+AvYorw0w4iFHGKWi2yaI899li0bc/3b7jhhirw3H333eXZz352edKTntSvllZuzE8//fQakWS1ofNgGPBXH9sFH0kJ9qCfdNJJtVwMMrX+97//fb8FLG1gZe/444+vbU7hJ9C98Y1vrEauGaxOAYtSbmJ0+OGHl5e//OU1Uq/1jwhY/eoWOXkACAyWgHXAVmuVw3Z4WKgRmUH4WG30qDJ21dGLtqlJDi46aebch6oT+73zby9/uuqessOUceU5u65bNpv08MremJVH10gcjjaH2Ta4WXMXlBvvnVWjRM67+f7ypO0ml6fttM7DgseoUWWNVUaXsauuVKNgiC/uIVqEqOA/UU6uJRJmzCor1R/nDrSooKw/vuiO8uOL76hRV8c8ZsOy7bprLDZKiFhkq9+JF9xWzr3p/vKW/TctB2+zdq1/X4J2cJw7XyL9hXWbF2ZNwDr7/xcrPvLUrcoTtp5U28G4cNcD88r7f3dt5X7Y9uuUtx6wSRUMCFwPzHmoJm53zXYQXlYf4CTuIuh+fPGd5eQr7irP3XVKOeO6+8oWk8fW7Yq2WnZGVD0cNfZQWXX0SlXQ++OV9xTC5zX3zCzfPHLHARGwOh8rfeR/T7upfOvs28pjNp9Q3v3ELcqGE1arfDqPJmDdcN+c8h8HbFL232pSjVxy2mW3P1A+99cby2/+cXd51b4bl+futm5ljKs6qMsyBo0t1hI0AYso98rHbFhe+qgNF22xvHX6nPK5026q0Wy2Bn7h8O3LmmNHl8//9aZy/Nm3VtHoS8/ZvkZB6XsX3TKj/PefbyinXXtv+dhTty5P22ndsvqqK1UB69nHX1R2Wn98jS4k0DpEbdl6+u1zb63P7Fv336wcuv2k+hKAzkME3gdPua787op7yl6brFm+8tzFL2YNgMnLJbqcwEALWBZLv//975fPfvazdaH3la98ZY3E6LkQ6r4EJRH8n/rUp+q5xx57bJ2rDZaTThhwP9E0++67b71Xt0S0dHk3GdHFGwoBi2Bid8/JJ59cI5COPPLIf9td0k2NMJACFp9NxCaRhs/vmeRbC1AQhdUpRrXE8e4vKENgBF8VPzaH8DfYAtZQtwObStynffDpBWMMRJTZUNdjed5vSAUsnZQAIzxRxA3VkQAhRJEAoUMbAEX32KOqE9uf+l//9V9VUBpoEUu0kygqZTG4eniEExoAe0btEEZEJRFt/vSnPy2KdlJeAs6SBCwN3Fal3vKWt9Tr67AtrNqDbgvdl770pWrsTAyagOO77mE7nwkBVgQeUWL9OTjZhDrGQVSb6/d29PWtDLbyfe5zn6vt84xnPKOq1v0VsPQHghXB8stf/nIV1m699dZqqF784hf/S+6tTgGLkCf80uRpr732Ksccc0wth/4TAas/vSLnDgSBwRCwCC+iNsaPGV2jNmwPsvXosZtPLM/add0aWUU4umXa7PL7K+8pP7zwjprLipMrckMeJgILsckhH9LrH79x3Yp0z4PzyrfPva389JI7akTTzHkPlXnzF5QxBKtVCAGjqnAjmujZuzwsgt1+/9zygwtvL/JQ+X+iwaW3zSi3Tp9btzs9ecfJ5dBt1y6bTxpTVh3ArXEceALRB065tsgj9dQd1qnb4paU2J7w9LNL7yzfP/+2Khy85rEbVWGAEPVIB0HQfdTz0tseKEfsPqXsMGWNmsvIFsKeApYrzpg9v3ztrKm1DbTZ6/fbuGy/3rh6P1FjP7r4jspPXRzveuLm5Tm7DGwSd1E6P7zg9jJ9zkO1vt8997Yya/5D5QV7rl8O2Irg8f+2KyoF21tlyFGl5qrqdgFLJNcvLr2zfPavN5an7bhOjYLSVhfd+kDNb7bzBuMWRXI9Uhv39/MlCVjK8KUzby5fPuOW2idPOnqXmvPr86fdXEXEo/fZoApeLRfd1PvnlJMvu6t8+A/XlRfutX55wR7rl63WXX2xApYuc+Et95cvnnlL3RL70kdtUI7ee4N/2xYaAau/rbpinz/QApZ5uygK87TJkyfXOeTRRx9d5/Cdh7m7LToWS/22GPrqVij5YQAAIABJREFUV7+6PPe5zx20dCARsFbsvjxYtRsKAYuPKZKIj8NH4vf1DI4YrPotzXUHUsCyu0lU0xe+8IXqr9qex38VPCHCqVOs0RZ8YGIXIZpvZwcPGyICKwLW0rTmiv+dIRWwDKqnnHJK3cpGkCBMeah7hs35zJY7A6YoJ6rtUUcdVRVcEUoXXHBB/buVHgII8cmgKnJJZJKH5JFC8dyDWEIMseXsec97Xr0nceqQQw6pAkpn/i1lt6VOaKN9zNR0ZaAs77777o8oYLXIs3e/+901P5StbcQXhzqIPhKFZBseQewzn/lMvQdByXdttWzbG22vk2hOFBTxjZH0HSHdizs6BSzGQ6TZ4o5meBiURz3qUf+S36ttARUt9r3vfa+ueGFHPOqvgMVoieAiIrqe62CsriZIJj4t1LRTwDI5sn+ZgRM2joewceJjBKwV32h1Ww0HQ8CSy0rEkGio8autXGbNW1CmTp9dhSlbjJ6x87pl07XG1Eiaa+6eVS67dUa5d+a8uqXpijsfLOuvuVrZY8M16/cdcgY9erOJdWubSKoLpz5Q/nH7AzWB93k3T69bknacskaNvrEFivji3zusN67mxCLqfOOsqeU3V9xdo3ls77IlT+SL6Jh7H5xXo2sO33VK2WLSmH+LjlLOE86+tQpDxAbll7y7CWyLtUWz5tecXp/96001rxdBZreNxtcIpsUdV97xYH2TI8ffli7RLOq9uMTkIpJso7NNTflEM9314Lz6nbcdtFnZbcPxSxSw7v//E6D/z19vLD+7+M7ymM0mljftv0ndKofTWf93PTmgCBDEyHc+YbPygr0GLok7YeykC24vP7rozro1jWjy3fNuK1fc/mB5/JZrlRfuveR7DQcB64Z7ZteIOkLbc3dfr27ls7XwG2dPrZy3XHts2WOj8WXvTSaUHf8vcf0jyZWi40Q22Xa3tRxT208qO08R9fuvPWtJApbcXCLDjjvzlrod8oQX7FST6H/5zFtqgvV3HLRZOXjbtRcJiPoKcfqVJ11eHr/VWuVlj9qwJmhffARWqf3f9a+8a2Z51b4b1W2+ntHOIwJWt40Ky7c8AylgmfPZGWH7oEgS81ZzZfNkDrl5l6O9WOgnP/lJnc+JshBdb/5OwDJHd7Rcpuecc06dT4umF/lv+99jHvOYOrc1pzentPArsbKFV/N+Y62FbNeWaFnOWn6AHRGEAtf2me9LPWIxmE/QFsg7W6WlrzDf5ChLB+J+vmeOLs+PeaaDY995nrqK/LdTAg95cB0WVs2bbaG0U4Pw55otz405uqg0i+H8Dtflq9htwsn3u+UWwli97RLhq/A7CIJSfEjr4Tr8IZ+bsxMEiCO48Encs0W5qKvr8TPUwzwbE9Ef5vjm267nsBuE2KB9tB/m5urm2+4tR1CrxyPt1Gi8+Sr8JddTNnVVXhy1Px9AHczjMW8RdOqm3TFyX9tXnW9BX138xoXP57rqgkETR6RlcU91UaeWa9k5Up04T99RDsIKH9K/XbvtsFEm9dauruPv/u0Zs/1LnyXk+nfPQ38UjMFnwdxCe6sbUUYZ5D9q0UraW7/QBp4Jvprru7+2bylslMGPZ4NorJ35gJ4H/Hpuf3MODgQlwQd8Tu3J/xas0RLJa+uByoElf5UgFD4yf9oz4RnzXPHZOnPotX7g5WHqoi9qWzuj3vGOd/RZwGq7lTzP+g3boI9qb3z0D32qZw4s7WZHGDunD9gZ1trJ31xL22h3fWbbbbet7aLPNdb6pT5GrPRc6mv8UdchyMknzcZ5vpWpRWB5LvUL7a2fs192nml79sM2ylYXbHzuWbBzzbWWdVvl8h2plu3uQypgMYKEGR1Zw+uYiwsrdq4O5c0AHjTRRxrLXncGwQDgQdWZdBKdx0NPUDFg9gxt7onJQCPaiWFhGN75znfWQUIuLMbCA9eZ0K9FCzEEzvf/ykdwYswfKQKLsWM4/vu//7t2UgKWDu3Q0ZWD0STIuP773//++iAR0RhoRkUSPbmlbD9k9Ig/RC91V+cl5Xrqj4Ald5Q92wye6CrlbA9py+dlkuJhVRYTBPt5+ytgaS/8RIap5wte8ILKQpurM7HPgNUGOoO9HFj2VHt4Gd/f/e53ddLggW+DdnJgLZtRyLf7R2AwBCxbkiauvko5ZNu1y+4bybc0qoor8gBNHrdKzXHjLW7+bouayCuRRydecHvNsSOJ97M7thDaciSBtre3ETw47w/Oeag62e5lyx1hTHTLpP8Tewho8ueMXmmlGgH29bOmlp9femdZb/xq9bz9t5pYJoxduVx264PlhxfdUW3i4buuV6O9eiaCnzZzXnnHr68uv7j0rmJr5FsO3LTsvuH4KoAt7hB9IqrsW+fcWs68/r6aS+jwXdetOZ4Wl8Dbd0RfiS5zbVvoCGbe6NZT0CBayQF25Z0P1jfgXXP3zEJgUG9vY6xv8tt6Upmy5mrlrBseTuJ+1g3Ty38+cfOy/1Zr1Ws6X/6ob/zfFjxcXr3vRmWjiWOqEOJzbUMAlHj7JxffWd74+IF9CyGBRdlOvfq+ctSeU6pg98vL7iqn/PPuulXvHQdvXiPRFnd0m4B17T2zy+v226g8bvO1aqL7+2bPK+ffdH/5znm31YirYw/YtBy2/eTa7+Ue+8ftM+tb/hz65rbrjq0RcNutt3qZMn5M3aLX23HfzHnlXb++uibm32vTNcsx+25UDthyrX8TOpuANX32/PLivdcvL9jTS14WVvH4kqkzynfPv62KYIduN7m879Ata1/1rMyY/VD50JO3LHtuvOai3GuiI/W1w795ce1f7ul5aQLWduuNKy/ZZ/3yhG3WLvO9kOTBeeVnl9xZTv7Hw4L2ew7Z4l+u1+oVAat/NntFP3sgBSzX4iibE3Kk7CDgzBF6JDs2527CB9GG08px5wSaq3O2pNkwZzXns62IU8aZNdc1vzPfN48jChEMfJeTx2G0SGveLy9sS4BtvmjeLb0IJ9Uc0uKz63HGiTP8BU6m+zdBrLPdzXNtU1IXc0vX932/zS05vBxV55mncoqN9e6tbIQp9zFPV2ZzVfNWDPgGnFh/M99XNwINlpxVdfZdDre5s+8pt/k0v8NnBAriCgbqYjGXr+Nc13MNvpHrG3uxVT47GeQcI3Ipq+/wK6QwISa4Z5vPayflaZyIMOpL6BBs4FwL6c3/cQ/lkDKEUIZVXxxoIoD2IYD6Hj/GddSDH/P5z3++LsgLVCDCNHHD/J5fQSDU1/Qh7UAkUE4M/KiHgyDHX9FuuLi2+zpfmxFR2wur3EfZ7appApbvEV7cF8uW4ka/Uw5+mL6KqzZyb+3/SAIWgU678S2bQEn4JKgop3vq5/py6+Pu4ztED/6O3+7nudEvRCp5BpVF+2hv19PnehOw+EX6OiFNn8BM39PXtafv+9tACFiuT1D2/PPF+Wf6nj6lvJKnu2+nAOrZ0Kbq79nSB+1KsgW5rxFY7qG92Rjt03KNaXf180zj1puARWPgo+sX+pr+KbpTOfjmDv1d3egAhHv+sfb3HLY+Lv+yOrd2xtSz7zkj5Gt357M5thBqA23mOdO+2tTiAE7uy54St3wHL2Vouf78vS/P34o63g2pgKVTvu1tb6sPKQPLWC3u0JkNWjpDy5lFlfUAEDA83KKIdKL2hj0Pi0FDyKFBdUlRWEQfSSZ1Zh3qda97Xe1QH/7wh+tDRBknqCyuczDkRKe+ClgtquzrX/96VZYJWDqzg0FhwBkhD53PGRSrR/Jk4cWgHnfccZUfoUrn7k3Aco2ehzq0HFgeboODB68dPvdwUHYZWBwWJ2DhbtVMWajaHnQTCdfvj4DV3lRDrFI3iryBx8qANmdEbQ1sg1lnBJZ2NtA7H3+TBfuHCWlETYN1krivqCar++o1GAKWCCwi1Oset1HZbaOH37QpD5O8OjfdN6u86rEblafssM6/vclusJK4E3qagCX65WWP3rDssN4aZdXRo6oY9uUzb65vthMBw8lvubdaaxFyPvKH68op/7ynRilx3Hea8vA2u8UdBIqzb7y/Rl+JOHFdWyh7vlWvfZ8wJ7H2F864uVx4y4zymE0n1OijDdZcbdEt5s5fWBOvi2YjXNkmeNVdM2sybG8SlDtMDiFbATeaMGZR+VoOrNOuva9uY9Q2FDHJ0y+5dUZ9w+CW64wtR+w2pTxph8lVLOw8CFhyGZ1w7tQqqh2158BFYF1wy/3lhHNuqwm/337wZmXXDcbXvmIL5cx5C8r7D9uiRuCtvJi33nabgCU6kHDoTXqiq0RaSewuUlDU3rEHbl7f+ifnGkGI+HPuzdOriFS30c6ZXzacOLbsuuG42kc3X3v1ssnEMTWfVmeerOmz5peP/em6cto102tU3wv3nFKjFHvm0moC1q33zyn7bjax3rv1tTOvm1auu3dW2WStMTWaSrTVyZffVV+MYHvhJ56+TY1WbP1czi7P0pOOu6DmKHvtYzeu/aUlcRcxKWrOsyHf3G3T51bhWj295fKN+29Sk9f3LGMErO4bF5ZniQZSwDLnM6fyAiK/pZ8QxSOSwaIhMYLDzIHjbJlTm4+ZH1pgFVElup6TZn7O+eawe7OYeS7RxBzYfN91CTDmfpwzjqi5nGiFTqfX/Ns9CRsWngkE/ASCg8XcFn3UBI7OtjBHJpxYSHdtvgDHVlQQJ9Nck6Po3+bFom7sGuFnEMP8mKerp0Vw4z+H0305t+rhfOXnoHJIlZ9YZq7q/ub/xAZzceXHzYutzIPNY92byKd8rmPOj6Oyuj4fyL/93Y97uA7/iP9A2BMdxynmPDvfZy1yTaQXBhxkgpD7OV/dtKM5trm1aBm+kPq2ZPnm+UQ2EUv8hb7k7WlbS7/xjW/UObrUMcqCKb78IteXHoVvol2xxJEvoBxEQhz1HyKO6Dd/V3fsCHT6l/P4JeqOhbrrq0QgQhOR0kGgIMy2txDKT8Wvkk8NS32CcKJ/Nl+LmMgvw8l1tAE/0716e2lVi8DSlvq7crVovfbyKYEA/C330Cf4rupE0CP4idAhMOLCH9TPPVeecf1IW+qz2kGd9P2ekXEtyEN5fdbE4SbO8Mddny84EAIWH5owqK8Sr7HXr/xNYITnG0PMevOx/z/27gPMz6pK/PgJ6b33BgFCD70XUQFRVOy69rWvbS1rYdVF3XV1V9ddV9cu9t4VKyiIFOm9JoQkpPdJm0lmMvn/P3e44Zcfv2mZSRgy932eeQIz73vfe889t5zve865+pmedRRgaT/Yx0uU3uIC5pYMs/1df2EIIHxHABZdMK8YC9gFcM/WpcvqBjD7fzm9skMJ3aGzoJu5UR9nAE7P6Jg+A7iMS/ODMWTuyGGVYLu+vPnmm4OjCN3FJ4Ayf6NTZEaPsi4/nmvN4/nuvQ6w3vjGNyb4BF6BEG0BLKBEmJpBZhIykVAcwMPiJaTOxJtdgSnuRRddlDy7TBTZJbb6HZTZgvmBD3wglaMuvgoYABYM5Zts/vVf/zUpUq0B1lmApY4GpQXMjwnDJK5sA5pnFgWlxEg8kCOEzgC0aaDIJmheWCYz5VUCLOWZnNUrn+io7PxFSdsMLJO/CbPyFAiLk82G/pDXwL21AFYOHzQZi2u2cbFw65fOAiwTAi86iUG1n8eZidjvTRgmOm7cr3nNa9JXFe/OHlj+rr0mApO8ScZgB7QsLhbCArAez2mld717TwAsCa3BmpccN2knDGKgf+/m5XHzw3Xx2pOnxnOPnrhLbiNS35MASwihEw5feMzEBLCchpYvoVg/u2NlgkVvPXNGyhtVecmz9Ys7VsYdSzelUCteJ9NHPTbUsPKZh9bWx6V3r0q5pZyQyLuLR1Fr0IuRf/3C9fHl65ake15+wpQEseTzypecX3+8b0386Lblce+KLcnDjCfYU2aPSSFd6l/LWysDrD/cuzp5urkHwAISeHpJLi+nEfAyflj/x4RQdhZgSZpf/SmCt12tJPQ/vWNl/PjW5cnL598uODCmjBiUwkovuWFJ8hB6y+nTU9uEotZ6vqMAy7cRtdrlG0kfYujTZgL1ziZx/809a6LPfpHCZa1hZCyfG3j15tOmp5C7sUNaTi6svDY1NMX9q+pTMv3LH1iTwCTY8+SDxqS8UUdMHrrLKZRCaX9516rkESUc94wDR8XB45x0tGu5GWCBlM0RO8twGz07YvLwdLLiy06YlOrsUISvX780FfLJCw+OwyY8CrBALeG653/x5pg+ZlCCmc88YvxOgCUMWD8qR95/EEveuhccPTEuPGp8HDC29nHrBWD1rjWnvdZ2J8DKezUGmP2Wj7wMfHss+0t7ep5T9pX2c4xj+zbrIkMRuGL82ccBJj4c228ybO13XQxs+1nvALEYdvbD9oj2y/bp733ve9Nes/LUac92NgeW/T+jkrHpgy4ABJzkUMgsW/dpr/cDVQxiRn4+FZ3nhPawUeyn3/3udycAAsjYrzNM/c7fyNA+XloUtoeP79qevafAJXtzkEpdQDz7bOUwdu138ynjZMLjzD7Xfhew0Q+iF3jYKEdb2A8gEc8b/WD/LPm+D/Y5PYq62E97l4/F+kQ5gBoDXXvzx257cB4qPl4ri1cN4JI9TdrSSbIEk9gNymH0az97xbvYd8pkw/gbyJU/pHunj/2AgA/e7MGchoWcXMrMoJH9AhQAQZ4FgQAu7QBSstFfmQOLvaX97gdNMwSjb3QTcNXP3sNezH3XXghlBlj0R5v0bWUOLDYh2QN43pk9FemF+rGN5IwGG0UFabff0SN9aJzkMNe25J+TpGsnXczAR1mioti/yjfO6JB30nd9DLLSdban5+kccNhWv4NgdBcwe9e73pVsO8+y69hr+kYfgTC1orA6C7DIip7LocWeFRFVeRBalk1bpxBWemCxhZXDLjUv4Qn6LtvN5ijt4G2JE/DuAk/pMR2VeJ6OaFs66GfVqjQejWVzoXEDhLWVxJ1eeIf73vGOd6T5k+72Zo+rah3f6wDLV5Qc8tURgGVBNGFZbFoDWHkB9EXE5GfxrJ4ocsOzq60JJSeXswBzMTQIKKbJxOQphM0iWsuTa3cAlonV1w7KbREBsCikxYuyov3gVM4TBrD5ooS4G/gWFkngDQwblEqAlb9kkZdF2cRpMvIlzMRkYTS4QDCLGviTLwPCvWSAJJs8agEs8vHlQ18g6zYUvlIYpJ0FWO4X72xxsSGQD82/6m3hzJsloZ3ZnbwaYJnsLSD6XX0tNIAa19QCsNrb4pa/d5cE9gTAumHRhnjKwaNTwvKpIwelqvIWEiIonE1iaEZtZXJu9+xpgHXF3LUJJPFsqgxL+/Fty+MHt6yIYYP6xrvOnpm8gCov0INHFfgjjFFoWOXJeLX64i8Prks5ipbXbY23P2lm8kzhddOaz5ZT4j7714fjL/PWJi8vMuJ5UwkkwIr//svCuOz+tTFrzOB4zpwJKXQSuFJ2azm5dvHAOqLFA2twv/2SZ9jEEQNi+shBMXpo/3TaY62oyI4CLNDK5nLdlqaQXylDLBBnxMB+O096rJTXp65YGH9+YE3MnjA03nDqtBQC2tC4PcFOHm9PO3RsyoslL1qtk/o6CrDAFGGnDY3NO+tFXvpyeA2voFzHzgIsHljnzG7xwBoyoF8Me0TG+48eFCMH90+Ap1Y7AB9hd1u2NcfD6+vjy9cuCcntxwzun04PNJYArUf3Ao/oZPOO1O/KrdX/lR5YoPIZs0Yn3TX2hIpOHjEgHbCQ81I5MZMHFm+r/3jW7ATOcqis381fXR/P+PItceD4IfHm06elcMhKDyzhqXLPgVmXP7A21mxqTKGzrzppcgqRrHUVgNVds/m+UU53Aix7Mga8vaU9KCPRXhbYsffiuQQ8MFpBBEa2Pad9K9hhv5m9aqSAAEzs0+xBeRflS74XMMO+0L4StPEee0Fle4bxLMxLGE2+Oguw8oFMPugCVLzD7L1rea3wfgCE7IndB4Dk+8zTwAh7wV4cHAJUAJBqgJXDo4AHH+Z5oDBiczt4Z4noICvtZne0BrDswckJfABd3M/rhk1C5t5hT87oBbJymg7eOwzmytAt9fJufevvgIWyhH9VAyzyJmv3Aj1sDp5eGei1N3Lys0CDviRzxrm9O6Dov3nkgA9sHLJnwLsALODn05/+dAIV7DvAJ+dVcw9AqN5skwze9E97AOvb3/52elcGmOqlbcrOYZ50kwdiBlE8ZnjftJeDqD2ApS3qp1wOAbzdsvcgW5XN5dR1OkNm5M0LrLMACzzibcYBhA2awwjZfmQk2ohHnfaAsl0FWOqnTRwwOEWwK7WHbcqWJRf6CUrWOpytswBLeeYWY4itmz38qmFPRwGWfjA3fPzjH08yMV4B5FzX7DWpncAXG5WnXC2ARTd5W4kMM2fwsNSP5ra2AJYxRv/ZspwzeGcCZR0N221vPO4Lf9/rAIt3FMVoL4Qwu+JS9ryI5BDCag8sHUExfAGycAIbOjvT+V0NqR1p8JoUfMlwn0mbYmZSavCaBAE2k2llMvdcVmcBlucsFiYLimyyNGmY/C3y3mHStPjbBHziE59IC7wFysRskrVwm+S0qxpgqatnLWAWU/LLyS65+yrfhkO7DEQuiZWXRdmiB9ahxbUAlgGHzlucbTxMeJn+dwZgkbNJ2Dss9gZndt9Vb5ND9lQDJA14i2stgMVDzqbKYm/jwyPPxsAkbBIkw7Zyg+0Lg7i04fGVwJ4AWDct2pC8lCQ7nzKyxWh9FGDVpdPIHg+ABQi8sAbA4tHEU0p4H4A1pwpgdbaHJIX/6R0r4jd3r44jpwyLV5wwueXkxVrkwkEYjc0ph5UwRR5B8n+dM3vsY3Jxrdy0LQGu39+7Juau2pJOTBReJ1H7STNGpv9uCdHaFZNlgHXdgrp431P3jzNnjQp5xTKMaw1c5XZ3FGDxvFq1eVt8+spFKcSRx45L+BsPr5NntngfqZ8wNnmZPvr7+fGbe1cnr50ZowcnryB/W1q3NeXgOmH6iPjw0w+Mg1uRX0cBlmT9PNDIgLeba/zQAXH6rBZPwerE4rntnQVY81Y3xBtPn5ogpHZrF7hE3q10f/JWWr6hIe5ctjklSRfWKdR22KB+cdrMUfH8YybEoRN29cDqqE5mgCU8VeintoKU8rANHrBfDOy7K4z93SOnOq6vb4yPnH9gnDRz5E6vLXp6z/LN8aJv3B5zpg2PN5w6NZ2omHNggZB0/eyDR8fWph2xaG19fP6axQn88sDyt1pXAVgd7c3ecV93Aix7XWE3QA4DULSAvaV9KoPNxaAXOeCDrH2sD7H2duCOPZn9KW8L+zr5iAAJEKLSeGXk2cOBELwNsvcHUAPCsAN8/AZgeID4CGwfai/poyqYxrODh0NOwFyrt0EBnhMAlv0mMFXrVG/v0m5GsT2r+4Q9VV4ZJqibPWz2GqsGWOmjxLp1CTwACAxsdc1eLPblvKrYA2wjAKc1gGV/z1gnX3IgR+1lxPNy4m2l/3m+8J7RL+4HE9hH1fmB1QeU8hFbG9XB/bUAlvaSh/Yywu3dKyFSW6PLfpwzgrJBBjpg705HAA57eW1TJoBJJsAlXQBvGO6f/OQnk/3GDqJjlV5AAAJAA+6RITtQee0BLHYI2ML24UnILmMzZFCg7+kJ+5L9AyYBbmAjcEsP/XctR4f2ABY55hBHtg4oVxmS6d36Ux9pbwYrnQFY9JitCwSzoXhE5oMOcvitMcvWJU/v2l2AlVPDOKFe2fqBLDOozh6Vxvmb3/zmnX+rhsedBVg5woh+8bwiy1p62VGARd/Y3WA9m53MKsERIKh9wiI5whjLOfS22gPLmKDnYBiPNPpN3u0BLH8Hq82XHGs8aw41V9GTnAy+d6xotVu5VwGWhYP3kYUPveZd01oSd4MuJ3EHX1BO7nvgVWsAC802CMVym9RNfNWXci2IJncLpgUnu+a619+Fo1FeA8FiDTZVD7DdAVjKN/FRZF8bDGyLicTxQJr/zy6/JgCDnqKi/wCWxcfXAfHW1QDLRAF2mTANUhMf+mxS9VVDfS2qJuD2TiGslcTdxsSk4uuZBcJCZwEjG+/qDMBSvxyHbDEA2HKsck4WqY8MWoPdZKQvWgNYZMF9U90APBsmukYWFskCsHrzFLfn275HAdacCTtzOO0pgCUBOEAjTM8JZ+NrJPyWtyefQgicvfrkFo+ejHm+fdPSlKB80ogB8bYzZ6S8P125nKbI22zhuoZ45YlTUuJ3Hki1QuC8Z/mGrfG7e9ckj60EVI6dlE4CBKgqr5YcWNvigVWb454VW+KBlZtjaV1D+P344QMSJPOcMEd5vIQfgiYZYF2/oC4+9syDUqigsLb2TrrbHYAlcfdX/rYkHlyz5VGANaBvPG/OhDh22ogE5QAs0OKOJZviU1csSLmf1BfwyXUCt5bVbU3eUp+6cHYcN21ETQ+2jgKs+1duiSsfXJsSqnu3S86mE6aPTHCltZMhOwuwFqzbGu8+e0Y86aAxu7SnWp9AnfUNjTF3ZX3qzwdWbknQKiXiH9QvwcjDJgyNQycOTX06dEDr+tOWrrZ1CmGt525YVBefv/rhVB8w9xlHjNspGxCMLr3lJ/emfFl/f9KUOH7GiFZPIQQKv3jt4gQOeXv9y9NmpXFXDXILwOrKbLPvPdudACvnL2KY2QcLmWHM8egAM4AG+zcGnf2pvah9IeOcoW3vyHMKeGKs88KwR/dTaazbjwMQAJaPtUK1eN3Yx/HesVe0L/QB3HO8HuwP1Q+k8L6OAixlAVj2+/aIQNBj5pdHQBdwl0FXTlif71UvbQTPQBVgxn9XAyz7Wkas3EX24KJElJUN+8oPw+THPmoNYNnrgkDawJglR3t8cgJZwAf7XzYOI17UhT27D9/so8oQNu3IYZDsLNDH/rk1gKWPgTb7bPZG9lTqyAhSP/0HWOk/Ng+jHGATKcIgl5eMTQQU0hPwwDt8lHYBWCAa3SDanm2IAAAgAElEQVQ/da3sC9Er6g6oslE64oHFs0q9wCu2CZgGFOkDNmf24qEr2k/P/OgHVz5MQMhotTdRewCLrhgT+pJ9x6aqzGtEbzg4sJn1NVnQ/84ALPYjHQDqyFEZ2uqiL+xPY4mdRR+7ArDIL4cJGxvsa/2Z4Z4xDrKSH13zkw9jq9Sh3QFY5iK6xKuLLLsKsOgO7kB+bOZKb7sckkmPzR8AF4DKBm0NYNFdtgJ7VB+AYDywjEtj2BiozidHnoAtWxj8M+fSRzpn/Ghjbw4p3KsAy6JqgbJw+G8hcjqvmlyjuDpKQjYwyWRkwtK5XQFYGbSg7XJl+TrBq6sSouUEj5TWZCS5ukWp2gtrdwGWAWwRo5AWErHBvMzEyufE8zygfFHi2mvgqJN2A1/5ZJFqgLWnTyEkI1DPJKHuYoPzca2dBVgZhBnoFgQLhkFYeeSvwU1WYJ3FnheWxS67oOcvLHnAo9U5LtkiqG9tsmwqCsDqyPai3LO7EuhJAAtk+vXdq+OISUNT2BjDva3LKYRO+btq3roEIf7u+F1DA/OzlUnczz90XMqBBfLwjpHf6ivXLY4/PbA2JZ9+3alTU06oyosn0ZK6rSnJOi+ticMHJKO+GkgJNQQmvnfLsvjtPavSCYBvPmN6HDJhaKuwSFjW3cs3JWjw0FrAa3JKtF59EmK1HOqbmtMpjE5gvHFhXfLIqm9sjnFD+yfowXPptANGxdihA3aeQrinAZb2gxEpGfm2pp35pgCLaaMGxqjB/Xfm6Nq8rTmEq3335qUxffSg5JE3YaicjS0tfXh9Qwj5vGzu2vjAubPi3NljEnCq9i7rKMDauHV7gDlO7+Ph5QIIhc8JwWzNO25PACyeTAvWNcQ189fFTQ9vSPLa1tScwloPnzw0Tp05KuZMHZY8xFqtF53csDU21jfFkIF9Y9zQATF84KP50rK+dBZgLV7fEJ+5alFcdv+aeP6cifH2s2ak0zpdgKxTPz9z1cIU7vniYyfFzDGDWgVYxCxJ/5euXRz3r9rSkjPr8HG75HVTbgFYuzt775vPdSfAkv8mn/7NS0cEAUPX7xmMcgPZx4FYAIkwO3s5hqo9vP/OQMD+H9wBjBh+9ncue0iGuX0vcOPDrT2eD7r5ApEYc/bFjH6GvlxS9nlghzBHnjvARa2E2pXl+NgNTDGyGY/2iNXGY/a6AWzyfQBdvg8kAgDs5+3ZpSKxpwcj2gNYohcAiT0NsMgvJ6tngAtzzB+LycM+G9xQX3l/eZHZ67cWQtgVgJUPYgJkeEaxbRjo9u48mdSPbcb2Ek2i3vTCHj4nneftwvOMPcBLJuuPtoBQ9IIecGAATXmwtOeBxTNJPcAjdqc6AKhsqnwS/C57mf/v3Ub32aZsN2ONLssjVZlb2DPtAazsTWdcKIOnYgYl2u49ooWEk8nD5B3q2BmABcToT3BPKBzoa+zkvGzSt2hndwAsNppE/exVNrK2VNr32kQm+pi+8UQEQqvt684CLHqcwxOBcjYjcFbteNJRDyz6xWHiYx/7WBoPvPLyyZaVupBPBdRGutZaCCF4nQGWOcR8qM680MBE+mruautABDIz94FkdEB5eEBHDlHYN1e5iL0KsCgv7x4ukZTNYEQgwQawyEJnMvBFxUJm0CHsBpiFIYOc3fXAUrZFlbssF0aLH/JcSc29I38Jcp9FCenMJ0dkRdhdgGWyzgkbLXqoq4WSHHiCZYBmEgas1M0CbQA4kSF7g+1tgGWxNngAJIP14osv3rn4VgMsCwvgWL2JyJDKlwtfifzrS4uJufKy0GV345w808JKFq0BLM/rN4uVsi20JmWhkgVg7avTV89oV08CWN+5aVn87PaVMXXUwASweELxIAIt5PepBkZOruPp9Ku7VsW5h4xJic8lSncfw98PHpIB1s/vWBGHTBgWLzluYpxxwOjkITN/zZbknQWYPOOwcfHcORMToKq8Nm/bnryjnCoIcj37qPEpKXd1ziGwg9fQ/161KB50Wtth4+LCIyekxOitXU6Tu3Le2nRaodBFoXZHTR6WvI06coEEPF2EyIFwVztZbs2WGD24X3z8mQenk+l4hPFU6wzAEg64/ZHE5+T8owSblsWbTpuWwtByPianA7YWGtdW/cHAj1/+UPxtQV2S0xtPmxqjhzwqJ+CFV9p/XbEgJQp/6XGTUp4sMidn0KO5OeLy+9ektjlN7wsvOCzJDpgSHpl0piNCrLoH4AIim/zs2BFfvnZxfPvGZSmc7j1P2b8lWX6/PincUSiey8EFX7tucXTEA2vJ+q3xq7tXxqevXJiAnvDPcw8ZG6cfMDKFUXZEnk7PNF4cjgDGnnfomDhyki/uuzamswCLbL94zeL4yrWLY+KIgfGZ5x6yMwz4loc3phxsdy7bmPJj6TdyyCGER04eHm84bWr6fb7Aus9f83DSHacqfurCQ5KXZGUbC8DaDSXdhx/pToBl72kfZu/FIPXxF3jJBjDA4++Mb9ApRz6AO7xb3MfjAJRi9AMYnpeniEcIA9E9oBIgwOC27xaalY+t11U5ITJPB+UKAwRkGKy8Rngx2UMzxDNIsOfMtkXu7ry/ZGwCB2BahmUMUvvZHMHAIGcw2rP7wJzvU649KrAnT40UF+wJgI8HSk8BWDxDGLuggn/ty8k8H37ld/bMIiKADTCP4a7NtUIIawEsIYfsAx5K+ogMWktuDl6Qu5BQtpCLDUY/QAx2IT1TJp0ADXjp5BMLyVpf8HZi9ANb3un9uS/YJ55hW+UcU+0lcTdeeO14D91SlqgPKUh8qM+2qfpmO4bdxpsMaANt6b88zZVXewDL2GJXsVny+/QZKKH9YCjABjipH/3midMZgJU99njhyUfFPiNr/QWMseVEwRg39IK31xe+8IXkTUlftMk4cHiDf8EXwNG9ld4/+XAEjinsY89X5nnLcqFDbHug2juBOwygsqzOAix9wcFCjjR9yV7U/9qpXHXL/9JrcxCAlg868LfqJO70WJtBRjLzY96ib8rLc1J2gOkswCJ/eaT1NdiKh3intmTopy3pIJtHTpDOJ72qv/qyn3Mb9+HlrNWm7VWApRY6Jyc5FCJo8jL4LXo6knKL+bQImJzEwSPjFiGTVFc8sDyvbOF5gBTlRTCrLxOH+9B+A8uRmPm0lHzv7gIs7felQB1MKCYki7A25snP4ulLkzxYJlKTFxm95z3v2QmN9jbAMnHxnDOhmrzkGciAqhJggX75yFeDMV/5RESx+iZN7bfo+1pm4q6+9JVFlQccuViQ6ENbAMszvpTxEvNVjGzf+ta3FoDVG2e2vdjmngSw5N8BipbVbQvJoE+cMSKdPjduWP+YOXpw8n6qvBjnoI3k72DCUw4ek5JO8xhxmh0QJffQwrUtIYROIdzQsD3lEzpl/5ZwtusX1sWdSzclOPGm06Ynz5ectDq/C2z54G/npVMFJWN/21kz4ugpj72Pse4exrrcX689ZWocNXl4qycPKl++ox/eujyumLc+eag847Cxqf7VnkZtqUTy/Gpujq2NzbFqU2Pct3Jz3Ltic1xw+LgEN7SxMwALvFqzpTHk3HLa3bIN5LwmfnvPmnj+0ePjvEPG7czvJJl3W+GRteoNEC3fuC3e/KN7Y0tjc7zk2InxgmMm7pKkHDz66/x18d5fzY1powcmT6DT9m8JuVi+YVsKZROCd+/yLXHdgvWxenNj/N1xk5LchYLyQnMCXmunPrYlT0noQZp5j3i1XTV/XZLhAWOGJFCqf+Tkkuxf6CYY0xmAtWLj1pTvSj6pM2aNSnXmPdWRwwF26uSWxvjQ7+bFn+euj+OnD0+6JrdZtd50FmApH1Q0Dn9+58oEeo1DnoK8qeToOueQMfGPZ81Iur1N/s4VW+J5l9wWtQAWIHbZfS2Q8e5lm+L/XnBoCgeVOD9fBWDtxQn/CfCq7gRY1jf7YbBHyIr9MJCV0z3Yc/kBkgCAvO8DDxjf9o6MP4ZvzrkjVw1IwcuFBwKQwhPI3tD+EcCyv+SV5Rn7R/tFQICnPQjidyIXPA9m8agCRRjF6mGvDYD5+F2dbJt8lJPBjrAjHzq1j2eEvaTIAGXb80rhoY72qjlPkXcywhmXQAcAxHbIJ7BVnkJYHUK4tzyweFuRGbvJvpiNxeOFPZO9r7QDpLHHJgcheuTbUYClTB/cwUl2FVuF3VTryif/5XAvoNFHZrrBaCc7xjn4CaoAagAjWKLP6BmPP/ah/b0+oxdC8XgD0lVARHn6nMNCRzywlM17UJlsL+9gp2Zoyf70bvdlhwvAhE1EvoCJdlefzNcewAJCgA/6ldO75NQs3geEKoNHkA/9xox6dQZg8eICydhc9Bk4FlVEb8lZWh+gKYfdKZ/tySbneaQfjCW2mNBR9xq31SGT2SuN4wW7HvwyJ1RHWLmPbec+48l96lMZOtlZgJVD+nh8sqvpZM4L7f3mIP8aD4Ae+AM8aTPPJ3NNJcAia3OHOQ+gB47MYaBYhqvGuvmCzqt7ZwGWvnciK/iv/fqYngP0uIS/+29tYQNro7EK/tF3Di2cNIoHVjsLMq8pk1117PTurOM6gYcVIm4Ssogg/gapDrP4mdRMJBTL4MmnXHQFYHmvQcGzC+1++9vfnhacamKeIRvIJPu/RRVRNjlVehTtLsBSD55X6mDyQ9u5AqLBlQPYIDdw/JALl0iDKtdhbwIsC7bJ1ORggwD8mQjyxFQJsAwqk4VFpfIrjEFmMjNh6X8bGBO1xabWKSbKNCH4wuHd+gqlthD7OlQdQqjfPKNffI0DsPIEVTywdmeklmc6KoGeBLB4QQFSlz+wJkEKoAOccXoaj6yDxg/ZxaNG2NXiuq3x8ztWtgCN+qZw9t2g/n3j2UeMj/MPHRtTRw0KYVEA1hXz1sbkkQNj9OD+sWLDtlhX3xJOxvPpGYePS4BESFm1F8v6LY3xvkvnxi/vXJXyWb3zyTPj2KnDdwFdypH/6ZN/XpDg0VNnj40XHjMxeeu0lvuKl89v710V3795eQzs1zf+4fRpcdy04Y/JfdXRvnQfkLVpa3NsqG9K4E8erOseWt8pgAXEXTFvXQqDlFyet8+azdti5cbGmDRywM7QNl5YHzpvVhw1ZVirJyDWqrtwvtsWb4x//s3c5HHE6+xJB43aJQ+VID8eP/922fwUKvm+p+wfzzxyfIBrty/ZmMLcFq5tCKc36vfG7c0pZFPCdJ57zz5yfAJ42t/Zi8feD25dkcLo6hoaY+3mpvQvGCqMUejpuYeOjZcdPzl5FfH06wzA4jFHpuAgbyR1bk1HWqu7UMiLLp0bl9+/Nk6YOSLecNq0OPvA0d0CsOQfu3Xxxvjp7SvijqWbduYMA5Dl5XrpCZNTmC+47HTHtgCWfly4rj5+ctvK5Jn44mMmxutPmxqzxw8tAKuzitlL7u9OgGV/br/GOwbUcXpY9nCy52LIsQ98nLTPy54UDHwgQOiLPRij1708GhjUgAfbQl0BAsag3C72m/aK7mUwey87gRHtsk8WOgYuKJcHAgOTsQliqIu9qb09+JHzxlZ7BfF+YRCqC9Bh7+jSNkAn516yFwex3Mf7xf7Vpb3ClNTDD7ChzJ4EsHgw5cgXgETdACoycgEubC0fpRnD/j+fptZRgKUcfUT2DG8fpelJrYstQ34AFjgDqIg+YevlsFNeeNk+ACPJmF7l6BTGO6MfaLH3oj85ATtwos9BBft/93YUYIGKZEDP2BDsDOVnrzvOBPRFH6sLfdLn6s6WYR93NgcWGbGpjBUypO8iSbIXjjEB6Ao3JQcyAgs7A7Ay+DM+2NzaVOnV432ijPwYM8YrsAsyATZsNPKkDzzg2Hfqwx7NJzdqB8CrT0FdkMx4r/asyva18fqRj3wkjXH3su8qTyTtLMDKuqYOxildByIxA32iHtoCNNOlfKIk/RNWKZURwAegA7zaZh5QD+1WpnmL7up3nILNbo4AfcEuTKMzIYTqgTPgAPpUP5nbQCx67+/03NyDj7i8m06AiPRSu1rzduwNS91e98DKQuU+RzkMWBOmScHkBtCY/HjbUK7K2FgdbKD7smPCMunmrz2VgMqE7PlKMJLBmQnNJISmKr8SGuW65a8lFjX3eg8aXXmv+ivLgAFrLLwdJaEWDwuythu0wIx2V7pQGngADuXVbpNkJfHO0Eg52dXWot/aZQCoL1lb/KtPU6l8zkKuXP1DjiY1Cx/yq2+4SqtvHjj5S5z6muQBuurLJOK96pg9zPSTBa+1AWjjYGCbiCwO7tX/Bj2AZrGpPgQgu7GSG7l4ptZplL1hcJc27h0JdBfAAprkYOKl4QS5A8YOSl4wjFzXyo3b4s7lm2Lx+q0J/hw+qSUcrPLatn1HLFnfEPes2BROvtvUsD15fvAiOvPA0Y8J7WMcg0A8ZUCj5Ru3JjDglLVjp46IOVOGJSClrEuuXxJ/nb8+ASin9gEA6+qb0ulzIITwNHCiuk7qB+hc9sCauH/F5th/7OB0wtyk4bvmJ9rI6F+yMf7rioUJSghTPGXmyBj2SPtr9SYwIwQSfHv6oePiwjkTYvIIHj27E/jWur4IAVS3JXUNKYH7AWOHtOmZxCPm3uWb47Ylm4K3kD6odQ0ZsF8856iJMWP0wE7VmZ6o018eXBuThg9MAEyS72rZr9i4La5ZsD6E3PEu0k88euQjkx+L19Uj6ax2qR6PpjmTh6UTIKu96ToyqpQr2Ts91Pe1Wk9/hf7x9tJf4Kt8ZOAPECo31O68uyP1cw8Z/mnumpi/uj5BUsnU9x89+DEgTPirAwrAXp5Px057bJhhrXdqB30XmgoQ0kj51A6ZMCSOnjq8Bbo5nZi33ubG+MGty2PC8AFxwrQRCTRXXmToVMrL566NGaMGxZkHGj8tp5O6lPGXB9clWKotQkbL1Xsl0J0Ay97R3o6BBnAwnmrtm6ulbV0EGRh99n32ki77Ml5V9nHKZMDb5zPQ7Qntc+0J7bEZuqARw9K+2e8ZeD78utee0h7Q3+zF7ReVbR/oPu90X7UHlnrYhzLG856StxdwYG/LYPfx3HtclffZjyqffWFvCRJlQz7XQ53t7cEHssp7ZPtqH2QZvfa0WY5+5xn2jL0tm4LBbM+uHO/ISanZSmygvC/WPvaQutuzA4P637szQMgfzr2DzPUNuXmPsvVPhpL23fqGHMnP3/NFDuoEPOondpH7OQYIC6QbojMqc5dV64W6KEMib33EGyznslIv79Y+ZbOryKTSNqIv5MU+Y8/QJ3UHFNRXWfnjOluElxFIox36M0OmfGIeW0Gd9El2aABt1Y/+6Q+5ko0BulJpqypPufSlMuIktzlH3PD6oS/6qhLUZD1k7+lv/UPu9MiYyHqun7RJv9JTesTe5BBQywGgWubK0xY2J9mRobFE/8iOroO23qku7tN+7QZ+6J6+rzyBUd9UepyRmXoBYOyuapt5l/WsoSF5ddId9+m3ypNDM9QDj8BhfdsR+1qfaicd0lfKz3OG92iL8U3/zE0uoXt0BrTMpzSSRR6bfqcseqRt+lRf03G52sxb7s26qw+BrUonDvJnG5tLzRl+6KE5jkw94z30XH+yz/W3ceDdGZoDZcadMUNXa5182ZtWvccNYPUmIT/R25pdak2wyDt32XIVCRQJtEiguwBWT5Ynj5oMsJ4/Z0LK4VTrtMKutAGgA7l+c/fqlDz9wiPHp9Cw1pJwe5cT3yStr6tvjFecMDl5gsnf1L34qiutKs8WCRQJFAnsXQl0J8DauzUvb3siSQD4yWF97AOhe6JVgI9yFQkUCRQJ7EkJFIC1J6W7D5SNaPv6JU7aopSP+9wHmlaaUCTQLRIoAKtbxBhrtzSmkDeeXYdNGpq8UOQ0auuSE2je6vqU2+v46S05ucpVJFAkUCTQmyVQAFZv7v2913b2AS8RqT54oeS8R7W8kfZercqbigSKBHqDBArA6g29vJttzGGXXIO/+c1vplBKSf2qXWB3s/jyWJHAPiGBArC6pxvlwBIC6V85kpzO114kYDrp7pETZgb07dOpMLzuqXUppUigSKBIoGdJoACsntUf+2pthFPJqSU8ShilcC+hYJUhf/tq20u7igSKBB5fCRSA9fjKv8e/XTy02Fyx5vnEheq8Uz2+EaWCRQJ7UAIFYO1B4ZaiiwSKBIoEigQ6JYECsDolrnLzbkqAB5YcVHJM5QTUvTmp9G6KsTxWJFAksBsSKABrN4RWHikSKBIoEsgS6A0Aa319YzpVbeG6hjhs0rA4atLQ3TqdrmhNkUCRQJFAkcCelUABWHtWvqX0IoEigSKBIoHHVwIFYD2+8i9vLxIoEniCS6A3AKwneBeV6hcJFAkUCfQaCRSA1Wu6ujS0SKBIoEigV0qgAKxe2e2l0UUCRQLdJYECsLpLkqWcIoEigSKBIoGuSqAArK5KsDxfJFAkUCRQJNCTJVAAVk/unVK3IoEigR4vgQKwenwXlQoWCRQJFAn0GgkUgNVruro0tEigSKBIoFdKoACsXtntpdFFAkUC3SWBArC6S5KlnCKBIoEigSKBrkqgAKyuSrA8XyRQJFAkUCTQkyVQAFZP7p1StyKBIoEeL4ECsHp8F5UKFgkUCRQJ9BoJFIDVa7q6NLRIoEigSKBXSqAArF7Z7aXRRQJFAt0lgQKwukuSpZwigSKBIoEiga5KoACsrkqwPF8kUCRQJFAk0JMlUABWT+6dUrcigSKBHi+BArB6fBeVChYJFAkUCfQaCRSA1Wu6ujS0SKBIoEigV0qgAKxe2e2l0UUCRQLdJYECsLpLkqWcIoEigSKBIoGuSqAArK5KsDxfJFAkUCRQJNCTJVAAVk/unVK3IoEigR4vgQKwenwXlQoWCRQJFAn0GgkUgNVruro0tEigSKBIoFdKoACsXtntpdFFAkUC3SWBArC6S5KlnCKBIoEigSKBrkqgAKyuSrA8XyRQJFAkUCTQkyVQAFZP7p1StyKBIoEeL4ECsHp8F5UKFgkUCRQJ9BoJFIDVa7q6NLRIoEigSKBXSqDDAKu+vj6mTp3aK4VUGl0kUCRQJNCaBOrq6qKhoSFGjBgRgwcPLoIqEigSKBIoEigSeNwkAGBZl+zbJ02aFH379n3c6lJeXCRQJFAkUCRQJNDdEugwwFq9enVZBLtb+qW8IoEigSe8BJqbm1Mb+vTpk37KVSRQJFAkUCRQJPB4SsC6tGPHjrJvfzw7oby7SKBIoEigSGCPSKDDAGvTpk0xfvz4PVKJUmiRQJFAkcATVQLmxm3btsXQoUNj4MCBT9RmlHoXCRQJFAkUCewDEgCvrEtbt26NsWPHxn777bcPtKo0oUigSKBIoEigSKBFAh0GWEJkZsyYUeRWJFAkUCRQJFAhgZIDq6hDkUCRQJFAkUBPkUDJgdVTeqLUo0igSKBIoEhgT0igAKw9IdVSZpFAkUCvkUABWL2mq0tDiwSKBIoEerwECsDq8V1UKlgkUCRQJFAk0AUJFIDVBeGVR4sEigSKBArAKjpQJFAkUCRQJNBTJFAAVk/piVKPIoEigSKBIoE9IYECsPaEVEuZRQJFAr1GAgVg9ZquLg0tEigSKBLo8RIoAKvHd1GpYJFAkUCRQJFAFyRQAFYXhFceLRIoEigSKACr6ECRQJFAkUCRQE+RQAFYPaUnSj2KBIoEigSKBPaEBArA2hNSLWUWCRQJ9BoJFIDVa7q6NLRIoEigSKDHS6AArB7fRaWCRQJFAkUCRQJdkEABWF0QXnm0SKBIoEigAKyiA0UCRQJFAkUCPUUCBWD1lJ4o9SgSKBIoEigS2BMSKABrT0i1lFkkUCTQayRQAFav6erS0CKBIoEigR4vgQKwenwXlQoWCRQJFAkUCXRBAgVgdUF45dEigSKBIoECsIoOFAkUCRQJFAn0FAkUgNVTeqLUo0igSKBIoEhgT0igAKw9IdVSZpFAkUCvkUABWL2mq0tDiwSKBIoEerwECsDq8V1UKlgkUCRQJFAk0AUJFIDVBeGVR4sEigSKBArAKjpQJFAkUCRQJNBTJFAAVk/piVKPIoEigSKBIoE9IYECsPaEVEuZRQJFAr1GAt0FsHbsiGhs3hGL1tbH+oamGD+0f0wcMTAG9duv18hyX21ofWNzLN2wNR5e1xD7jx0U00YOin779dlXm1vaVSRQJPA4SuCJDrB27NgRjY2NoR19+/aNAQMGPI7S3Huvbm5uDm3v06dP7LdfWff3nuTLmyolQAfpoose0sdyFQn0NAkUgNWBHjGYN2/eHNu2bYuBAwfGkCFD0lP5d4MHD45BgwY94Qa5zYE2mJzUv3///h2QRrmlSKBIoFIC3QWwmnfsiLVbmuKr1y2OmxZtiKfOHhMXzpkQU0YM7LDAG7fviKbm5tivT5/o33e/aI+ReKdntjfviP59+0S/tFnp8Ov26o0NTc1Rv61lUzVsYN9U37aupuYdsaVxe2xtao4h/fvG4P7ksXuN27a9ObZsa46tTdujeUfLW5OR0Sei7359YmDf/WJgv/2iX98+UesNi9Y1xA9vXRHfvHFJvOWM6fHS4yfHyEH9ulV+jc3NsaF+ezRub46B/frG4AEtdaquj7ZsaNgeTdub45Gm7NIWwDS1pT3laaP2Tdt3xObG7dHQ2Bx0rNY1uH/fGDrg0X5sbGre+czOegVDLlJdBvTbL/Vh393sw90Vtvqv29KU4LK9QOp7G/s+fVr6vt9+Maj/Y+VlTCWdbWxO48ulHe7V9ixef/H3tZsbY3tF+QYiFTeOPUPHctM3b9ueytXX7V3qOLjffjG8m/WtvfeWvz9+EniiA6yGhoZYuXJl2p+OHj06Jk2a1GVhGrvkomw/DHRzODhmD/94QzL2xcaNG5OdMXTo0Bg2bNgegVjk4B319fWp/eyZfv36PeHsly4rRCmgpgSMi7q6ujRG2IXDhw9P+vFEuei2uhvrxhC7tqmpaee4HzFixOM+1tILqw8AACAASURBVJ8osuzp9SwAqwM9ZFH57ne/GzfeeGM89alPjec85zlpcHz729+OW2+9NZ797GfHOeeckxbBJ9K1ZMmS+MpXvpIG89Oe9rQ4/vjjn0jVL3UtEugREuhJAOvOZZti/uotMX7YgDh80tAYNbhtKF3X0BR3L9sUS+u2xoHjh8ShE4YmSNATrz/etyZ+cefKtNF+8xnT4rCJQ9sEUgvX1sf3b10eV89fH88/emI8+8jxMWZI/5qAqb32Aoo/vHV5/HneutjY0JRuBxZGDu4X00YMjCcdNDoBx1njBseAvo+V394AWHcu3RT/+ecFccfSjXHq/qPihcdMjNMPGJXgR+V165IN8a9/mB/3r9yS4KVLnUcP6RfTRw+K8w4dG2fOGh0zR+++l9iDq7fEt29cHr+9d1XQsVoM6+mHj4vXnDwljpw0LIGgmxbVxfduXh5/vH9tgGy5XkDfAeMGxWn7j0p9OHH4wHbhZXv92Zm/r9ncGG/5yb1x74rNCRq5dPHowf2TvM46aHScO3tszB7f8mErX8bUZfeviV/dtSr0P/h08Lghce4hY+J5R0+M4QMZjRHbtu+IB9dsidd+7+5YvbkxPQ5uAYnjhw+IY6aMiPMPGxOn7D8qAT+w61s3Louf37ky7luxuc2mKB8Af/ZR4+OdT5rZmWaXe5/AEniiA6wFCxbEr371q1izZk2cccYZce6553a5Nxi2CxcujD/96U/xhz/8IZYuXZpA0amnnhrPe97zHvf97wMPPBC//vWvY8uWLam9xx133B4xtDdt2hS33357/PznP0+A4qUvfWkcfPDB5QN2lzVs3yiAfnzpS18K+1pj77TTTgvQ54ly3XDDDfGb3/wmVq9eHf/wD/8Qhx12WBr3v//97+Pyyy+Piy66KI499tgnFJR7osh+b9fzcQNYCCmActVVV8V9990Xq1atSl9ERo4cGQcddFCcfPLJccghh6T/787L1wcD0wJ2xx13pK88W7duTV9WfYmYMmVKHHHEEWnxUA+XAf3jH/84br755njyk58cT3/609MXjM9+9rNx2223xZve9KY488wz02LQ1YsMyOLSSy+NefPmpQkEHOP5VXm5T90vu+yyuOuuu9Iz6uSyKE+dOjWOPPLINFAPOOCAXZ7VVm2+5ZZb0kTlvvPOOy8N8uuuuy5e/OIXJxl0xCMre6cp6xe/+EUq60lPelIceOCBu7zThkodlX/TTTel9x1zzDGP6V/1mjt3blxzzTXJhRwcnDFjRlfFWp4vEthjEuhJAOtHty2PK+eui0MnDo3nHDUhZoxue05avL4hfnr7yrh1ycY4Z/aYeMbh4xLk6UkX+LFp2/b40rWL45r56+OYqcPj1SdPjhmjB7cKo7Y27YibHq6LT1+xMHm9vPKkyXHWgWNi+MC+u9W0ax9aH1+/YWn8+YG1CQxOGjEwvZsn0+K6hgQVwKJnHTEuTpwxMoYM2PU9PMcermuIhesa4sCxg2P6qEHdCmF4mf3lwXVx0aXzoq6+KWaOGRR/d9ykePExEx/jeXPDwg3x3l8/EIvW1cfhk4bt9PDbtHV7zFu9Jfr32y/OOXhMPP/oCXHYxGG7Vc9lG7bGn+eujRsXbYhNW5vivhVb4sE19TF+WP84atKwGDygb5w4Y0Sce8jYVFdeVdc8tD6+dt3iuPqh9XHIxKExafjABHJ4P63ctC15cx0/fUS89pQpMWfK8C55iHVGCVZt2hYv/dad8dCa+th/7OA4CKjaEbFl2/aYt2ZL8sg7acaIeN0pU3fKy72/u3d1fOemZclzTH/zrlq5cVtsa2qOlxw3KZ515Pj0+63bm+OBFVviuZfcluRwyIQhMXXUoAQXV23eFis2bI0JwwbGM44A/KYmeHbF3LVx7fy6WLS+ITWFlxiAuayuIcYMGxAnzWjZNwFY44b2j5NnjkzzQbl6hwT2FMBSrn2nj7n2zw8//HDybLDnnDlzZhx99NExZ86ctI/uyvXggw+mPbc941Oe8pS44IILulJc2t/b3wJE4M348ePTvpiHxsSJE5OtMW3atC69o6sP33PPPfGjH/0oAaxnPvOZyQaq3vd39R2e59XGZiAL5b/oRS+KWbNmdWi/3x3vL2V0XgIrVqwIY0LfHX744ckjUWjtnrg2bNgQn/70pxM8Znuy50aNGvWYV7HV2GlsUfYem7O7vRjZgPfff3/89a9/TZxg/fr1yS7Udp6Z+++/f5pvOF9gBcId2aLsewDrda97XcyePTvuvffe+OUvfxnXX399fOhDH+o2gJXrp2wOLOQFmFXbzu67++67E+9g35JxbseYMWPSXMRW1w4cooQPd0yz9zrAspAYGDyX0FCLIaX3o9MskFxbuS2edNJJCeB0J8Aw2ICzT37yk+Erj0EwYcKE9F4AyI86GhggiwXZF3+DxySiLhZqCzf4Y4H94Ac/mO7vDjdL77e4fOQjH0nveMYznhEvf/nL49BDD30MEDIQQLTFixeHQTBu3Lhd2qHeIJyvOSa9PLlk+PXb3/42TUC8yk444YT43e9+Fz/96U/TAO8okFPf+fPnx89+9rP4/ve/n+pp0jCQKydYg1U9lf+d73wnzjrrrLRwnnjiibss0hZvm6Of/OQnCbL94z/+Y4Jp5SoS6KkS6EkA6yvXLYlL71kVx0wZHq84cXIcNG5Xr5BqGTK0L7l+SVy3oC4ZuC8+dmLy3upJ17amHXH70o3x5WsXR0PT9njhMZPi7INGx4g2QqIeXt8Qv7lndXz3pmUJyr3g6Imx/xjQaPe8yzLAAtBee8rUBFKAsQ0NTTF31Zb46e0rEojwnleeNCUmDBuwC1zj55TySuxoCT3rQnReza7h7aO9n71qUfJM48lz9kGj4g2nTUvwozLqDsB6/68fiHX1TfHy4yfHiTNHJHAi7xrvrV/ftSoBuBcdOyleetykFK7Z2Uvo5vIN22LVpsbY1rQ9fnrHygR0eFvRy3FDBsT44f1jysiBMWxAiydSBlj3rNiS9PCYacOTZ9j6+sa4Y+mm+PVdq2Nd/bZ431MPiAsOHxfjhg7YK+GuGWCt3rwtLjh8fFxwxPgkDmAONNIu8n7ZCZOSvIcP6Be/vGtlfP36pbFgbX28/tRpcejEISGlyM2LN8bPbl+RPPc+eO4BceoBo1I8IoD1vEtuSx5dvMxOmTkqtvmYtXFb/PaeNXHb0g3Je+tDT5sVB48fGqs3ke22AB1dwmW/ccOSuGFRXRwyfli8+8mPelvxwDOm24PZne3jcn/PlUB3Ayxzl72ZPaePpvZ83gGA2LfbU9oLMtwYjIxee86OfAStJcXuBlj2kvaVP/zhD1OdXvCCFySj0Z7YPtXH5+74AN0VjWDggnZ7GmDZizPufSDXdnt2gKIYzV3pvT37LN244oorUogpm5BN1B32Zq1agyv/9V//FWvXrm0TYKnL//7v/6YiOHZwSMjpdbpLGuA4j0n2IHgFMptz6HAOCzRuwZ/zzz8/Jk+enHSbbW8cgVtsY3YuyIQtvOUtb0lzVHcAQM4t7Fnzino9//nPj5e85CWJX1Re3pvta/+NI+i/3A6/Izv2MAcZtnwZj+1r0V4HWBSSMvHW8QWH4us0iqlDwS0EFan0dQREeu5zn5s6tzsSyVloKfe//Mu/7Ayd40JsMfZuC/Nf/vKX9K9B8a53vSsNgEplslDzIuKmqF7vfve7k/J2tX7qpg4mqv/8z/9MC6qBZmC+8IUv3KV89TWpuS/LCYQyqA1g7sioNTdp7eMllhcp96DawgfVX/mgnD7pLMAyiZHXD37wg1i2bFkakDy4/BiE+fJ7QE75n//859MXBN5VF154YSLWWXYFYLU/aMsdPUsCewpgnT5rVJzGwPXVdNv2ZMzzppg6amAME34UkXJCLd+4NQAb9/zhvjUpf9YBYwfHkw8eHZMfyZ81cfiABLOELQnPYlgvrmtJKn75/Wvi3pWbk9F85oGjUm4mIV0M3qkjB6awJd4v3rFmS2P6fxBGaFhD4/aUb2ny8AHhHUMHtvytuy7eVxu3NsU3b1wWf7xvdRw1ZVi8+qSpceC4wa3mQmJsXfNQXXzvlmUxf3V9/OOTZsRZB45OebDaq5r3gS/ayZNpxqhBCZRdt6DFA+v6BXXxsWceFE89eEzyIkofZLY0xscveyj+cO+aeMrsMel9s8YOTnKYt4qc65P8cl4ngGnaqN0Pz6sl21sXb4yf3LYirn5oXbz0+CkpdG3SiAHxxtNaQi0r81kBWBdd+kDU//8cVe8/Z1acd8jYFGbIiwyI+fDvHoy/LayLsw4cFReff2CXPfJ4HgFr37h+WZx6wMj453NnJb2qhngZYC1YtzXeffaMeNJBY5I+0ab7V26OL167OH5y28r4+5OnJNgKEtY1NCZAR2cH9Os+vauUcQZY9PD1p06Nvz956k4dB+g++9dF8b2blyWvsC+96PAY1K9P/O9Vi1L4Ks+n/3jW7Bg7tCV09e7lm+NzVy+KX925MsGo5xw1MYVuZoB15OTh8YbTpsbTD2tZO3lWAXeX3LAkVm9qjLefNSN5+VV7+BnTH/3D/Pj9vWvihBkj4osvPKy7hmAp5wkoge4GWNkzXliffaWQMx+YeS7ZfzIueTmARD5Ki2AQmra7XhndDbDk9Pnzn/+c9uz29W94wxt6XN6nvQWwnoDq3OurLCzO2ANM/u7v/i6Nr92Fw+0Js6MAy5h///vfn8aRtDqnnHJKmgu68wJ2gCc/nESAZw4n7EQOJSKg/va3vyXY9va3v31nuGOlvW6PlsMHRQgBgDwwuwqI2NFsXg4s7Gz2Oxj83ve+N6ZPn75L+erLu5LXozpw3uAxpj+XL1+eoru0g+z/+Z//OXli8WrtKlPozr7oiWXtVYBFkRYtWhRf+MIX4tprr02k8pWvfOVjlB7sQCvlnaIUFATk8LXE30AwEMkinU9KMIj8HZBBVlvr+AywLr744gSmwLGzzz57F9BiEf7e976XINXXv/715F5LWb0zJ2vnQcajCIjhreTKoXkGnXp6l0GSk0S25w6sfFCPovs6os28xcA9Ss1FMbcrA6xPfepTqQ7aAVTlSx0MCF5RZI6UmwDUhfyE8nn2Wc96VvLQIr/OAiztM4n4asRlk9cVOGnwmmhOP/30mgAry1RctTq/6lWvSsRa2wrA6onTRKlTWxLYEwDrbwvqYvaEoTGof5+4bfHGeGhtfQIpp+w/MoUfzZk8LAb06xuL1zXE7+9bk4xlua8kjRaiBFhILg1EuYRqAStyXIEU37h+Sfzk9hWxYuO2lORcuJJQJ894hIH8suMnxQuOmRgHjBkcS9ZvTZ5af5m3LmaOHZxC8R5YuSU9P2JgvzjnkDEpxOnIicMSdKi+zI11DRKqt4C4oQP7pdC09pADzxKg7eLfzkvATO6gCw4bl4BAa5fQrh/ftiJ+dNuKFIr2upOnxuwJQ1oNOQOtgAJyAAEfXF2fAA5owttKyOINC+tqAiz15wXz1b8tiR/cujyOmjws3nbm9J2hZECG3FlL6rYmYKR//v2Cg+PlJ3RvEndeQJLEq8+bz5ieksWv2dIULzx6Ypx/6NhdgEdrAKtlDYu4+HcPxm/uWRVHTx0R//nsgxM07crVHQCLh5lcUv91xYJ45uHj40kHj06g8ZoH6+JJB46Ko6cNT7mx5G+jx+3pVQscipTPTJ+AX8BsrfxlbQEsUPLzVz8c//fXh2PC8AHxw1fNibVbGhPAuunhDfGm06fFS46dlMp2rdi0Lf50/9q46Ddz4/lzJsQrTpgch08e1irA0h+84j539eK4dfGGePVJU+JVJ015TChsAVhd0dB979nuBFjmbpEGvOztTQGg1772tQleVXox2FeCMPacwvTs7eVWrYxwsC+1l1amn7w/tq/OURh6oxpg+cia9/3ZWyrvhSuTkqsPI7p6/++jrj2qqI+jjjoqQQCX++2r/dgD29OCdd5lD6/s7KFl/16Z7Dzf6/6831cmsMD4bG2/n73V8jv8v3fwbmPgKsu+PIcQ5hMZ3e9d+f5sV6hTpQz8v/dXGug5soXsyc/f7LXJyb2V3jzu0U/e5TmXv2e5q2vl+3LbKz3ZKsvz98ryvNPfyZyM2vKEyUn3s4zVRd3zYVr5PdkuzHXOyfmr9apSltmGzKc+Kku5nsnlVib+z2Xn5P/q4V7P6PNKncsRPdkWzHqRZVgNWHL/VNaJXNiznmGLss+AGh/+QRDv9FOZlLyWHHKb6EtlHWvplXqpMxudcwLbsLUQwgyw6AtHE1DN2FNvOpVtZfLKBydU6lM+OKGt/s8AC3g2bl/96len+SRfgA8wLaIqO3qwP73TT3Z8ufrqqxNgd4+/57GeDzOotte1oz0PN1AcK/joRz+aGIL/5xzztre9Ldm1lU43GWABaUDfa17zml3yipGl+enjH/94vOIVr0j2PKeS7vAS2/dWt0dbtFcBFkXnCih5oNA9nZXjViuFbGBRzEsuuSQtOMLN3vzmNyeF4DnEQ4nSgjtigg1iroMUw6Ip/r41Ot0ewDLAAB8LNbfA//mf/0leUAYQ2mtBFnKXwx0pWF6o1MXXKYsQooquaidltiBl0NWaQnkeuPva176WJg7hi8L8UF6DwgSR39UewDIgeZEBcTyk/v3f/z25U5pUlKc9NiQIuoXSAt9ZgJVhk3IY8Qi4/hJuCV69/vWvrwmwvJuHlpwE6iK/gZh//VsA1r483eybbdsTAEteKhCKVxNvKoayJNIM7icfNDqdYgfOCK/jgSWfEZDC8+amhzemcDlhdtkDizfO7PFDkweWUDehg/Jf8cD609y1qexTZo6MM2aNSqDMu+Um4inE+F64tiFBmkvvXhVbt++IE6aPSOVLZP2XB9fG7Us3pd8xsKs9fvQ6+PSxy+aHROwSjAu1Ek7W3kmCcgDJOwUSyJn0yhOnxCEThibQ1trFG+nbNy2Leas3x2tPnhpnHzQmtak17yvAD1j46/z1SX53LNkY9U3Nccj4ofHP5x4Qx05rG2Bp2yf/tCB+cdeqOOOAUfHOs2ckbzfwUHjhovX18fD6rXH1g+viz3PXxT89ZWa8rBtPIeQ59e2blsaPb1uZ8nCBIt+5eVncsnhD8gCSm6kymX9rAAssAXPe/+u5ceW8tamsf73goBjbxZxo3QGw5q+pT4nLhckJa3zq7LEJbP7PlQtTiKGE86cdMDolSNdm3nHtQSwedh+/fH5c9WBdHD11eLzihEkpUXq1Z1hbAIu8/vvKhfGVaxenfGJff+kRcdeyzSlf27INDfGBc2elJO8SsrsAUkD6ld+9K07eX96sacHTsnUPrIi/zl+XwmflEPuH06elMNUMxPIYKABr31xbdrdV3Qmw7MkAKXtJXvQ8DBiT1aAo55e1N7fP5/EvBQRvLQDMB1W5XR966KG0X7QXdw9vA0a5EKSca6cSYDEOeXsx/niiCLGxD897fLYCA9/ffZQWIlQdwuP99p0OXmJD5FAntoK9p0gA9bQP9hFWmKQ253AfdWCkS8mRDVtlMoy1V9oPcAEkEN7FCGUn1LoYq+rLYPWvfT+jnDzJWmijUKQMsPxdfiztUzfP8yCRXJs3iVDNyr245wHGHHGRU4bw4AHJfGgGPdhh5PD3f//3yVh2udc93sWWsUfXr9pN5uwSXnXkou76U8SMPvAh3T3kpDyyUF7Ot8Vpgc3GZiIj+35ylYOstYu+sV/YfGQAhGi7vGiiUuReUj/gNMuHYwE4wl5SH3KkFy42qPqot/rzfiE7dpUP/MoFOYR4qSdopQ7K1tfKBnbYf9qrj7WX7lQe4sWu0V7PeZ+LQwL5eaYSwpAlObP9yJyMtIluSh8DIHFoEKomnI4MMjDT92w40TfqRLf/+Mc/Jnmpd3YSMGbIA1jKF70SqUMvjE1j0v3617McJ4wLUVK1cmBlgKVO7E11MjY8/8Y3vjHJkUyMC/J2n7Hv4hTCJmYnkmNrsKg9gEW/zAkgEvny+gSl6Iz60W26q9/VsRJOinbK6WruvPPOpNN4BI7AdjWO2vJy0yff/OY3kwyNd/OBMc0Ly/gjhwwq2wNY2mFsf+ADH0icAGBXTnsQbXfXh33lub0KsCjWJz7xiTTZmHxBmdbc+LIXloWQYn3xi19Mg4tiGnAgk8nPQpVPFwFOKDGlBZ1qXe0BrBxeJyTOhCLPFWLr/ym7hdbEWx3rm0MjTVgGhrBIk4WNhEHha1VbuZy8F3DSXpOPAWkC4zpJsS3gJoXsotkewDLxkrNNB/DG20odEHgLDuhErk5p8HsukJ0FWNqpHBO1tpk8vMvv8uZFGywElSGEBvk73/nO9Hv/bfHLp0WoX8mBta9ML72jHXsCYPGO4lEiF9AJ00cm+CIPk/xE/fruF284dWo6+Q4AcooZCJNPJ/vj/WviyMnDUgJv8Msl9xPvFFAlexvxOFqwtiGFP92waEPKFfXcoyYkjxvjcGC/PskjxTOAF4D18ztWJm8mnj3y98iPBC5888alKV/PM48Yn/ITVefRWr+lMd536dz45Z2rEvh655NnxrFTW3IctXYBKvev2hxfuGZx3LNsU7zo2Ilx4ZHjU9mtedja+H3n5uVJTtrxZt5QE4bu9ETL71I28CeHkbY7vVHi8WED+sZB4wbHUVOGp2TtR0waGiMH9d8ZQsgz7n1P3T+d0tevb58U1nXzwxviOzcvjTWbm+IFR0+I1506dWeSd6fWbdu+PR5etzV+dsfK+MEty+NtZ01PAFLYW3dc2Tvu+oV1KbwO3PntPasSbBw9pH/8y3mzYuIjoaTel3JgXfpAAp5C0ugRaCMcjocd3QN/njdnYkqYPryL9ewswJq3uiHedPrUBKQG9O2TErjTfVAOcP3g02bFBYeNT3p8z4rNcfuSjS0naW7YmkL75JE6cfqI5K04a+yQGD6oNsxat6UxLrp0blx+/9o4YeaIBFXPPpAsdkVfGWDJEQY8So5Pz9bXN8VVD65L/bqkriGeO2divOvsmfGXeWvja39bmjzEPnbBQQmAZj0Hmuau3BIXfu22BHrfePq05B2ZARavy1eeODmefNCYBJqX1W2N79+6Iv4yd20K6QUUeVFWg98CsLpjJO07ZXQnwLK+MT7tu+1lGVkgQi3vAPtg+3BeWP4FsBjODHrAxF6RsW1faAwJNwRMlCsMSc5bMKESYDGggQX7Yh+V7YWdGpgTxYsCAJwY4fb/vDQqDXW9yri0n2dIS22Roy7s48EKe3xGpg+wIALDG9Dwr72xH/cBRvb21h8GrA/d9tn+liMc7H0BvnwI1KNrzo7kpcGG8WHant8zZElu9v+MYb+zlwZeKkGRNgAWZAUKkJF6kwVjGxz48pe/nPpFyhBQhcGeE0jb33tPhn/f+ta3kpze+ta3JhDEjmIb6GcAA1hQfvZQUy9Gtf4hb/LMMEKbQRhAiHcQOKFOZAQc+hcQyYnywS0QQ3/VgiNkoz36i02hzWTMBiR75QCfnpWY2zvIBzQAxNg/3ulia4JGnBz8ni6z58jG+zM4ZFP64TDBxvMO9wOZ3/jGN9J/cwLwTjJVP0BLnwCObE7AgRzYNXQ9H0qmHvqXUwPdyxBLf4An9MgY8U5tUDe2Kl0ncxBM+hVlGE9kmxOZA790mt1EDu4hW+Ww0dSTnnMacK+y1UMUkXFKJ91Pbtnbko56HiQ09toCWPqcXOg7XaFT5Ere5EnW5gLjNfc/SKdeZA10tQaL2gNYdJZ9zF7mKCKqK3szGSNgtrpUz1XmR6CPfY1B6EO65X3+1T9t5aHS/+YbKXzooYgj7zXGQMQPf/jDaQ7IeafbA1jaYX4TbYYxCDE0JgvAantN3qsAywQAXFgQTboGR2sXBTMxATAmVYN37NixaWLg4eSSn4qS5cnKhIqSS0KOWtdKytgawPJ7SmZCuvLKK9Mi46KgIJnJvi2AhcqrK6U20UtkbiBnt1MTSK1JILffu71T20xqH/vYx9LEKheYhd/A8rucK6w1gOX3yDpXRu0wuL1Xzi8TlPeAbECZLzEmar83oXQGYFlgLBDkYgPhS4EF1+QtRFB5FmETQV5Ecw4sE4dNkAGqjhZDk4xFwKJpYi1J3PedzfS+3pI9AbDkspkzZViLp9LklrwCwtq+ecPSmLe6PgGsZx0xPuUuqrz2VBL3DLAkpz7/UKehTYmDxwvL2y/lwfrSdYvjTw+sTXmAXnPK1HTSXuXltL7/vnJBXDFvXcrR86oTpqSTEtvywOLZdPX8dfF/f12cjHfw4Pjpwx+T/ye/Byhh8H/ur4vjwdVbUj4qQKkSpgkvBO3uXLYx5SNauLY+JWIf3L9vOmEOnON5BfwBYDl3VE7i7vS3Y6eNSLmxYA5Qg/fbyo2NcdLMkenkPl5s1R4yi9Y1pBA/oX1vOaN7AZa68U5as3lbfPC8WXHYpKFx40JQbVlK9v2B82bF4ROHptC6DLCcQuj0xGOnjkiy7fNIiCcgJGxT/iuePpXwZXfHcWcBlgMFAMRpo+TJ6pM8rBat25ogEQ8pui+sU3satzen8NYHVm2J+1duSacoLl5Xn8IDJYg/cPzgmDN5ePKwEnYqWX2+9Pv/XLUo/vZQXRwxeVi88JgJCRa35oHlBEn6wdNKrCUAeM/yzcmrSvkpuf+04fGLO1fF129YkoDyfz57dhxR4WlItgvW1Mf5X7ol6ZhwT+A4n0LIs1AY6swxg6Npe3MKAxU+6WRQp4QKH6Zb1d6EBWDtrnbum891J8Cyv2Po2Z8ypt/xjnc8xsMpSzHnhZFWwn7cR1cAAVwAn4TxiKZg3Ll4PPFgsm9nzAqdYThXhxACR6IaeDyIamDkAWEue04fTRnLYBePmOq9fwZY9puggEgNVw5nU297ZSABoAHSGKYMcvtW+3B1Bw8Yl6ATo1yaE21ghCs3h2nZ71d/5Gb0ghX2tmAFTw/v0R57dvtee2PPMYiVIJZMpgAAIABJREFUZx/P9pFaROgmTxreRPbX9s3gXwYu7Ab7cXKwlyZ3e382CDDnh2eU+9kTZJkBlt+DifqIDaN/eMfYo2dPqpzwHnjgDQTqsSG0QxvyKY+gif5hD2gTIKY/2Bq53xnsyqsMf8s6BKKQh+fYe+w+dQbG2GLkyLDPude0GUTUN9oMuuWk/fQKvNBn5GlcgGJk6n51YkOSh76hRzkZt/qzC9l9wCC7DiChn8rRXnoOXPBUAqbUiX3FjtMOsJAeuZRjDKlPzmOVPa/oJbhEf9l4ZKMN5KrNdN8Y9LGf3Sw6h3cQ+EIW7E/ehbyRsrccKKRu9IS3mfYDi+pPb8iBzutn9jI70Dig76Kf1NP97XlgGUPuA3azV6a6GRfaxS7Wd2xBdXLRa7KjB7zSyKmWfVwLYBl75K9tYBEgqY28nox9AM/c0xbAol/0333qrm7GFftY2ezQtk5UNH49C2yC9ORn/OUIKuBMu3ja5XBdc0tlCKF+zfO0ucXY145/+qd/SrpE77uap2vfXN0ebdVeB1i+DFBacKOto3F1LPJtgbDAmcwog06mBCZEoIrSmygMYMAL1ALJKCVFr74ywPKsd1gETaoGrsnB4LUw+ZvJGWhTvgHdFsBCtJFmk78vBfI6mRAq4/pbUyblG2wZgFkQeJGZSE00FhWDFIQyCWlzBlg82ii5yYMnlXYg6iZGz5rcDGqyVh5Al728QCRtJ8vOAizt9aUqg0VyJ2+Ll/qaqJXNy05988Tofn2oLSZ28jaR6jsTs/6wABeAta9PPftO+/YEwLr2obqUUN1JcMKjXDxNvnfL8rhpUV285uSpKR8Ur6rKa08CrK/9bUn89t5V8aJjJsWrT54ak4Y/elrhd25alk7ikweIVw+jvfISanXVvHUxd/WWBEyEG04c5uTZ1gO97luxOX5+58qUmJ7hDtgJqaxMSF79DiGA6sLgF0p33LQRu0A+sEOZP79jRQobnDZyUAJPp84cmWDN2GH9o/9+j/UKywBL+TynhCTyTFMXyeFnjRsSzzh8bGqXcL3qZnUGYKX8IttbTizMFyl5V98aecO+e/Oy5BnnZLsPnTcrJg0fmBLuf+PGpSmh/2tOmhLnHTY2Rg3iWdfigfWeX9+fEsyDdDlkVNlD+/dNifLPOWRsnDxj5C76Bcikn8p69YkEhXijtdaTnQVYlz+wNsYM7Z/CXbOM/fcB4wbFC+ZMTLo1YnDLIQaVV/227bFofUPcuGhDXP3Q+tR2XoZCTyX+P2nG8BjU/9H8bBLrXzV/fSxctyXJ7Ogpw2M6MFlVcPbAkhONN1o+/VC75XsT0sqr8GmHjk19JOeZEwibI+KTzz44Dp/4aKgs+cln9/Qv3pIg1ZvPmJZONcwAi8fe+GEtfUIHeDVOGjEw5ct6/jETYuboXcFwbn8BWPvOetIdLelOgMVYs2+zt2X0C6+pDtHLdfZee9mcL8s+FnywRtoXMlyFPPHYcJnrGOdf/epX0/4ewAJqaiVxz78DTniFgAaeZ/zZO9vbAwy1Tj/MAMu+FORg7FbXWf3sTcEfe2YeJC7AJHureB8YYp/qAy4PFkavemeA1Vr/ZWPch2KwgsdZ5eni1Unc3ZPz8fLkEaaUcx+xVcAKRrH9taT0YBAPHFBCP6kTQ5xtpJ7knHMV6dNKgKWtAA47x16dfPRDZVicduUwKYCGvaFOvHfYIJ4DWRjh+te79Lf9Pdsjwxy601ZuH+WApvL2ZhjHoK88FEpd2CBsRHCJDHje6fucZgWQUx8QBUwA1bSHjPxemfoAJFJ/thGooq8BDaGl7Cd9QD9FmZBL9vyjb6ARSEZWytcH6sPpgo6yQ3OIJFnkZOLsXzCS3UPvXGxGNlGtsLW2krjTT+GVDuXy3+AY+Jb7zrilc/SPowG9IhO6AziRW+Wpht2VxJ0cOV+oG6DDQyqDZbDHWFMHkFROKHZztWd9HjPK0cdkSsYYAluTxyIdAZ/MSxwh6DmdawtgGRMgrDroB5AO2KvMM93WPKzfzIlsbN5W5JfDAP/t3/4tjVOQ3DjQn9kDi97RH2yBLEBKoA9zYAvTFTYz0Fe8r9pfCfc6wKLIlNJCY3C3dlkI86Jh0TEAAZJaAEsZ7kdjX/aylyXFMXkj5tVXBlgWUa6pBjzI5HmTmIncJEKpTXCUCK1tD2AZUCYZC4WJioIabJQ1f2VoLezFuy2GwhUtzr5w5VMmTCaUXgilrzwmIAtGBlgGD/fSHIOsfTkOOR/JibBbMMjdZKw8kOs//uM/EuVVVmcBFrdRXz68W/m+tLlMDMCWhYDc5DkzMbkqPbAALBOaDYFFSN4v/WDRM4mYsAxudLut0Mv2VbzcUSSwZyWwJwAWI5wHkZA+niQuYW7fv2V5CGMTKsZDZm8DrCvmrY0XHD0pXnbCpHQKXL4kTWe4S/7+7rNnJo+Urlygx2X3rU25ncCvd5w1I3nftOaxJSRwbX1jfOrPC0IOrKccPCZeceLknTnAcl1ACAm2QRIwwIluQu6mjBgQgx5J4l2LqWWAdfX89antx0wZnsAVb5gJIwbE5OEDY2D/1pOHdxRgaQcYAXLw7PH/LiDHyX2jBkt+/+h7mpt3xMcvXxB/nrc2Dh43JIE+IIv3zi/uWJU83sAVoWrTH/FoArDe9+sHYk19Y7zo6Ilx3PQRyQNN37lHzqtaidA3bt2ePLrW1TfuhGvuGz24X0wZMfAxYZpZ5p0FWHcu35z0nicSQDRsQL8ERqeNHJDCZ1u7eDcBVkAW77JL/rY0rnxwXYwZ3D95R1141PgEhjp7ZYAFeD7tkLFx3qFjU1t5P8oRN37ogF3G4c9uXxGXXL80hQB+4pkHJyCYQwgdlsA78JlfuTV5c73p9OkJfGWAZaw7gfC4acNTMnhjgHfZuYeOjVedODn2H1MAVmf7rzfe350Ay14vh/8xyHyEbgtgMcgALAYew1ROF8ZkLYClbxi49pL23/bd7q8FsBis4AhPIh4oOceqPa2yea4AOTn3U2W/twWw7DO9Tx14b9h/swEqk7Dn9B7uAzfYLjyROgOwABceG9oAgrERKvM/VQMsnjTCigAXcueVlT1c1Nn7feDX1z7a22fbS/uQzouLLLJnFbgBWpEZ+4HBXAmwQBzv0m/+LoIk58WqlCPI450AjX2/NrAh8gXmgCPsKACIhxdbQB9pj/tBJu9rLYE7Y59OfO5zn9vZDs9Ue8ToU7rAuQGUAdMyXFIftoW/6yNtInOQgpdMLYAFeLkfZAIj3a+OrQEs71AOBwteXwAWHWbHKQsIBbZyvXkMCStUH5DJ3zkm0N3s2aecWnCvLYCVYZDxBgKrd7a51BFkUUf2sX4FcNWbk0D2etRf2dunuwAWWdInOgDOVeZ0Aik5WUhto730shZ4zgDL2KSz+YA2di47Ub+aL8g+h/A6oKw9gEU3sAR9YV5hd/KGpPPqW53wvnIMGG9kp20gLqiZTx2ktxLgq2v2wlJeBlh5jsk6kRPNGxu8uABVOlrgVcdW7b0OsJymB9KAMZS61c1oU1MCISZjcMe/FiaTS7UHljIoAhqrTJ48FKE6Bj3fBzDxwAKUTMIZFlkcLMwGRj5dwj0WnvYAlgFhsFFck4XBy7A1WeSvM7VCGtUJ6BETb5Pgi8lHPvKRnaeImJxMegCPeoiR9fVHey14IJTBoB055lYbtCW3Iw9G9QEC0WP3kpX7TCadAVjaStbCK5VtYc0JK5VFvhY5kzOajG77glQLYJmQMvTSxyYkE5EFsgCsjg3ictfjK4E9AbB4jzx19pi4cM6EBAdcPQFgCRN84TET4+UnTt4FYIFXTv0bMahvvPNJM1MoYVeu5Ru3xQ9vWZ6Sqp914OiU/4p3TD5VsbpssEcepI9d9lCMHtIvXnzspBTKx3On8pK4+7YlG+I396yOax6qS5BAgvtTZ45KJykeNXl4jBnS4vlTeWWAdf2Cuvjw0w9MUAjwcZswN/e3lTS8owCLh87Sum3xT7+8P25bsjGF87mAF/mVnnrImOS5lnKZNe9IJ0p++PcPxq/uXhWNTTt21slTQjv77rdfCrf7xLMOjkMntCSWz0nchVP+01P2TwAPCOV55O/aU6stNyyqi+/fvDzkWOO95Jr8CHB5+5nTW82V1VmA9dDahvjHs2bEGQeOTjnWyJi3U2t9rx7esXBNQ1y7YH1K+n/T4g3Bm+mQCUPivEPGxrOPnBDTRg5MnmKdvTLAEnIIHL/ypCk7QxF5XCV5VRRLPpKu65uLnzYrTjtg1M5DB5xEeefSzfHSb90Rx04fHq8/dVrKQZZzYB0+SSjilFRnbVq7pSk+/LsHg/4INXRAQK2reGB1tlf37fu7E2ABUiCKcC57s/e9731pP1fr8iGVYcooF3Zn/wcGgCetAawcimfvyEvHh+NaAMvfeQnxnGBs27+CJz5w29OCTjxbaoXdtAWw7Nt5cQE67vNx2/648oOzNgEl3m+vzcawz+0owLJfBzDYETykfGQHDyrhTzXAImtGtvYCR5VgLp8CmG2M97znPQkAeAdvITZThgb26oAFLxWQxzuFJFYCLP2pf/34YMwRIOcrquxn3i48jJSnP/Kp7/ketgy7gzGujcpS95zsHkSpTA4OuFQDG/YA5wUgAFgBAtgF1Q4AwCq9BN54HOkT9lPlRTfYFZwf/J1nC/uxFsDKIW/6mS5xsmCztQWwvJ+dA0SCKGRCPuqkvvkkvrRGbd+eQIYx8u53vzvZqO7zPjrPo1A5tfS3LYClTGXQE+PGOyu9uNhRHCzIWtQNxwG2Ji86obk5jLK7ARabFuQBZOgTT6vc18YDcORwMeOPrlYeUpb7sNJrUf1xA/pLxziG5NMO8yminusIwHIfXTX3qCeb3Zhir5OH/m/NXjeXSZPjPeAV+zbnZuM5aAw5/I2zCZgIqrLjeZvpJ+Oa3D1T2Y58smY5ebDja/NeBVgGLjptUkEueQ+1RhoNOouDiQbdBHVyfHFrAAtp5g4p7A80agtgXXzxxUmBTDrIa44lrjwmN4uxIwDLvQaAycQiaHGzKJqIlUnJEfdak5OJ87//+7/TQDKwLUT5Pv/v65XyKLjFFS32BcOC5/hQk7MvQjYKlN/7MqnObVAOgGTgGYBcu00YAFRnAFY+IdLE+5nPfCZ9abAgZffeDPIsWry8TMq+BBm0tQCWuprYLYwmOwTb77JLsq9hxQOr4wO63Ln3JdDTANZv7lmVwqF4IDkNr61Lbquv37A0Jcl+zlETUtL46gTsnnefEMJL71kVz58zMeW5Atay4f6NG5amMDZ5i95y5oyUc6krl1xTP7h1eUqU/cbTpqWE3IP7PTb3T36HExUlH+f9cv7h4+Mlx05KoYrV4YaAkNxFKzZui4fX1ack4MCgvFgukGzO5GFx/PQRceTkoTHykXDASoD1sWceFE89eEyHTrrL9esowJKYvK5+e/zyzpXJi8j/u5xi9+SDx6RwtRao0yd5G/HG+8xViwKYO2basBj9SJigZyQ/lxdKcvZPPWd2S0jggP1SfqyLLn0gwJT3nzMrwZLqXGq1+m7huvq4efHGuH/FpuBJ5BJOedikYQky5pP2qp/tLMBasG5rvPtsyeXHJA+s1pCT9mujJPo3Prwh7l+xJdbVb4vB/fvFoROHJHB30NghyYMR9BvQhodcW7ra1imEtZ4DHj/314eTXr3tzOnxvDkTduZtW7O5MSV+f+fP748LjhgXrzpxShw9bXirpxA2NTfH925eHk4lBUw/fP6slJi+JHHvyuyy7z/bnQALUGCsMcAYYrzns7dDtSQZhYxtIX32zVJLCOthWLcFsNzPyAaw7JVrASzvsk/MiZLt24EmHk3ADWgi6qHW1Z4HFtuBd4R9NriQP2rnsng72Z+CQTn0rDMeWDnNCQ8swENCbR992/LAYvC7F2xwn/ZW2yf6mYFMDgCX/nE/YATq+L1IE+AtJzNnmPPUqgRYnvUuUEMyckCh0osny8Eenpx8VJckPp9Gmf+uncpXJ/YXaJbDvTxLzj5OgxcgAS+tnBcpl0GHRHb83//9X2qTA568q9pWZHsAfOwm/QWS5LBPZakLMMGO1BYwga3SGsBSJ95j9CsDLIChLYDl3eQGrrB1QCsAC0CUCoZHTyWQUCf/T27qxBvMuNI3+WCCWgBDHcAPYxFYqww1BHlyXmN2k/dWhlt6p9+zn3mqsRd5a/nJury7HlgXXXRRag8Y5735kDHyNy69AxylT2z+3DZ6y0bkBOECgsikOnwyAyweVTy4QKEMPbOdWz3eOwqwsr3OHqabxgi9U66+YE9zBqkGp3TEOPYebAJQy7pZGRIIUoG4gKH26mf9re/8Hn+otNf3/VWp+1u4VwGWTtTp4oZBm7e//e1J6StddTXRfZTJRGkh09mUgZK05YHVWYBlcgW68okkrYm3owCr8nmwzsBQX5OoiYz3FGJcCbHcp94StJuQTebgVOUFPpGXrybk4EsCqANgccH01UE7DJTWLhOBjQXXR4PSIp1jvzsDsHLyQrTfIkmG1bHLOcGer1YWAMcuc6VFpytzYKlvHvjqJ3aZu7F2msgsNupZAFb3D/xSYvdJoCcBrEuuXxK/unNVOuHs1SdPScCjrWvh2oZ0giCvFSFWEqUL16q+chL3X9y5Is4+aEzKgXXUpGExoJ8k203J40R4HfDjvQdUhToBHhKn8y6S40cCeOFw1Se+4TXACqgGYrnvdadMi1njBrcKMrY17Yjblm5IoYGbt25Pua/OmT025Ulq6/Lcik1bY+6qLSHf1r0rNseS9Q3R1Bwp4bfk+c+dI+/QoHDCnzrxwNqTAAsWEv7HA40HVQ4hlCtM7iUhiznfFBD3rRuXJrjhxEQnG6YTJB9ptKTnQiXl/HrHWTPj6YePTbmebn54424BLKfqbahvio1bm3bWS0gfL7exQx/bl1n2ewJg8YYCiH5118p4YGV9NDRtT6GC9MThAPT/gLFDkkdgZeL2Sn3gtcRrD8x0WuMsifudcFmlNJ0FWO4HFX9116p0wuAHzz0gle+SA+6bNyyLb9ywJN559syU02vSyAGtAiz9/8CqzfH5axannF4vPX5Sgl4gZnVbPvqH+eHwB4ckfPGFh3XfBFdKesJJoDsBlj2qEDoGGO8hH2KF+oEU1XtZgAkEsecFUEAF+1OeN60BLH/jsd8RgAVUyekDHNhL20MyKO2v1am108fbAlg55xLQYU/LSK7MuZTtEfVnC9hr88Jim3TUA4sC2eOCYACJ9B6M/sr6VntgMeiBInt2e2zQC2ioBhz20Gyo/NE35wBioPsYzij338LWvC/nF64EWKAASKIfyBVQAB6rw/bs4YEUMhfWCNpUhu1pZ3YGqM7/S876jx2ST3+jH/SkElzQA3okB5ZwtnwPg7/y8oFcnbWDXDgvAF25LO/iIQUagH/krQy6U8sDqysACxQCPdhUABbQyVbz3upw2+yZpd9AnuwhxnuwMhdVZVtBP+OKjeg++pP7hrwkaWeT+R1QVxmupxzv1C85bJOXEH0GutjX+jrbYh0NISR/jiD6lddSdVv1M30XcSXsuDIsF+gxl7Dx6Q99Y/tWO3i0dwphrYm5owCr8tnsRGFsml+yN2f1HGccSecDnLLLeQZWjxH9UQnCAEdjtjqJe7U+P+EWmR5Q4b0KsHR+TuZoAFEOnWtyRm4pL4XlGmqSATJ8hQC6fIGgMD0VYKmbAW0gmEBz4racaJGrreRu1W7AnrHYI7o5zr06+bwybSC41CqXzHhhcX/sKMDixZXhEJgkFjpflQDLPYBTPs64UkcNQu309cbioi02DfmUjcry9GFOWCi+2ZcxA7s1gOVZkM7CYkLXXpsE7uoFYPWAmaJUoVUJ9CSAxWvpx7euSJ4xwujmTB2WvJDkKkrwoyo0bknd1uS59NPbVsSJM0amUD2eS/IsCStzKprQLSenffVvS+IXd66MKSMGJe+RlhC9viGvlBP2tjY2J+Bz/mHjEgCqvMCWL17zcEqufezU4Sk5fcsphrvigqbtO5LB/oVrWkKwnnPU+JQjSGL01q4VG7emsLavXrc0zjxwdPIimz1+yM6wrfZUFzRymt381fVx08Mb4ubFG+LBVfUpdO395xyQoNyNizoHsHIuK/m7hAXyEPv5/weLwiJ5rzkdUVggD7ZhA/omeXfmUud1Wxrj4t89GHct25QS3L/mlCm7yGldfVP88d418fHL58eTDx4brzxpchw5aVjKEbY7HlidqV9jU3M4RXLjtu3JW+vbjyT5P27q8JT3yQEAwJd8XTl32DUPrY+vXbc4OuKB5WS+yx5YE9+4fmlK2C/n2skzR6aTO0G66kTsteq+qaEpvnTdktTnQO+FR46LY6Y6pn3XuzsLsER9fuempWm8NDdHfOC8AxLQ1We3LN4Yl/xtSTpZ8aNPPzCeMttJQ9EqwFITubS089s3Lkvw99PPPSQdPlDphVVCCDujnfv+vd0JsEiLUStywv5Q2Txn5KHifWBPam8HbjC0hQ7a6/PyzzmAOguweDcBNz6C2geCAzlawN8Y34APA5L3RA6Fas0obAtgaZ/ICTaJ9imTd5R9Zz5NDUjSLvYIEMTzAqToDMDKoCHnh7UnBuCyTaA99r+AocgQHiD2+Npqj8Ezze94tIAN9u3AhI/EGRbZn4McDHEwDqDQd2AYwONZba32wNIe0AgM0i72BeeCDMy8i32mfM4FjHHvVk+QLIdQqbv7QDCy403FplNf/68c/WePb79PlnIYVTox5CgPdQEj2EXaTvbuI0fv0GY6BxixNyRqJx/2k/eACACRvvfRn4ee+reWxL2rAAvYBWHIRoQKmcr5xRONV5p3+yGHHPLGxuUxJ1pH/cnCmGJraUO+l0cXm1hED2iYZUZW7mFHkhcPQrYbvSKHrCfuY2PndDLeS9d45+W8c3Qll/XZz342wVp6AObWOiGQXonC8U7vo88Anv5h7+pfqXTootA/f88eh/rNOKALxjfZVYbT5hl6TwEs/aB9xoK6khOoBnaCU9gEG5mnaWU0FCjKjuecwluUrKsPOsg5yYBenoHyQ3P0MJ9VnkJYAFbX1+G9CrBUl+KAE2gyTywDnvL71+AxESGgJm5kPtNmz5oceyrAorQouEFr8rZQWHQs+vn4XeF/lS7AZGHREFbpa45JVj6papdF95GLSd+ELFzQV4mcBK89DyyTl0XeZGNitPkQf18LYKH4vkDlY1rzPZ7TJhOxdprgkH51qU72mMMItR1g87XABsQE2RbA0r/k4CuQttKLArC6PshLCXtWAj0JYEna/d2blsW8VVtSHioGPW8Nyaad3iY/VOW1bktT/HX++vjqdYtT0nCn6EkuzTvqoPFDUtJokIqnVjqF8L7VsbFhe4JcR05qCWcDRIAwSedff+rUOGT80MfkK1q/pTHed+nc+OWdq1L+qHc+eWYCWTm5da6TOsin9bPbVyao8LpTp8TsCUNb9aIBiiS8//4tSxMc4NXC+wqs6wjEqKUZvHvmrq5P3jkg3e54YCVoVbc1hN0J7wPZnCx55dx18bTDx8ZZs0alkDDtJ/OxQwc85uTCtrRWKOTi9VvjH350T2on76sLj5qQ+ipfQMo189fH/2vvPsBtO8rygS9IDyQBAgmhBEJHkN4RaRaagIKCYAERVHpvooKNoKD0YqNYqIoiUhQQBRUEQYjUUAMJaeSfctNuwo3/3+AbFot92m5n77O//Tznyc3ea62Zeeer73wz66lv+3x3mQP37h5/x6u185Y+efyumRNYp+66oPvQcWd0x5xwVnfO+d9qWw9V4F35kP3bdtBL77d3O6T9dkcd0g6nV4m3FQLr1LN3d8eecm47G+oO17hM2/a61gH/a+GIAHzG24/t3vO507pbXO3g7hG3u0p3p2te9nuqArdKYGlPddibPn5iI+6ueei3tzOas8+ctKttx73/TQ/vHnqrKzeiFUGVM7BueMRB3SNud+V2kHt/Hj/4pf/XKiW9yfP597luG7M3NeZTBNZsbfyyPX3aBJYYlJ9TeeMYCjEeYgExIhGzQJotOP5fLKsqQ3InNt4qgaVqQ4ItF0AAyAPEmeJnSaRtW8gjcS2iyWHxksm1PhsRWDm7VcUIsgqJJf8wFsdaWIj2b/G5pF6M7vutEFghZkKUianFuCHK7MQwXu1I6MXNxooMQQKIj5Ew+ibphmsOspYDpBJEO/Cx4O1sW1u3EEVIIARQ3t7Xr8BCDnleDj1HHFiYNsfa8v8qiVT2yNPE5wgVhIR+uj+EFaIkB7Wbd/meeXM/nJFnMEaOqf6xrW1YeYMEcR18kTee5+xfRADiRI5F9uQkCAfz5tn6osoMcYZwlDfBWNWcHNMYbUebRQUW2SCriEj9UQkHF/1W4WZe6CXM9MU8I56QdM4tM7/IHNVQ5tUYzKtnIFfkU/IzVWaugwE5JA90I3KCiEPkkSuYI2lcB68QkmSATJMR7djCaK6Tt+q/PtBhMjfqzLucvSWX1xf6Z2zaN1+wMHcO4yeH9Ele2fzjMcc0WXMP3PR1uBPLdbMisDxXH/RPn+GUM9B8h3iUs5q3yKY5gJnx2B2kqgz2w4pIckjmEV3ujYwjtIrAmq4nnTuBFSKKkBMgE4opx8iaeAwuA2QFhBKqzophXmQCixGg9Bhcjo2hpJAYXMwzp8f498kp4zF2B8p77Wac1nCKGT7Kw6DbM8xYcehw2agCK/di7lVNYYQd5Ng/7LBfgfWCF7zg4lWCfl85JYaYszF3FBm5xDmMMjyeCQerIwIfRorxWo/AioPPwYscp7erVAXWdJW+njZdBBaJwPKGOOc1IYqcxeOQchUw3mL2+Dse2UisfoEJosUWQIeav/PTp3afO+XsRriovHrwza/Y3f8mh3dHHXpAd/zp53e2Jzq/R+UUAuKYE3Z1tqkdtP/e7e1s97rBFS5+c9wQ4c01VY58AAAgAElEQVQQWLaanXLW7u457/pSO/9JVZFzuUZtaczznYNki5zDxZ115LwsW/+GlV1bmXHnTiEb4AYHz9rqGVjn7t7TDlZ/w8dO7D514q62LXL3hXu68761pztg70t2++71bYJN9dBL73+9dj7VVg4YN2fOv3r2u7/YXf+wS3UPvsUR3e2Pusz3vJXyEyec1R393q90nzj+rO4Zdz2qVch96sSzu2eOcQbWVjC0Vc5bAN/2/7cvnn7eBd35F8JzTyM2VQOqN3OwOrIG0QrjrRBY5sj8kF8VXGttE1yvz7MksPTtC6ee086Fe9dnT+1OPHN3m29vvrzztS7bPdgbMg/ar5FuGxFYKrcQdm/95Cndc971xbYt8Ul3vlrTtSKwtiKVq3PttAksyOUQahU6kk8xoEVUyaD4UDInZlcdIoHNK+nHIbDcIzYWL8oTJNHOQtJOtpg5Nwt5oQoIQSGxH5fAcp+Y1YKyHRGIOuSLuFuCqxpJFYkYNuf8bJXA0oYYF9mH3IChxWC5j+/Fuw68RjSpKIOnBDjXW7wWx4u/xeYWhC1EG7+xuz8ffYeP55sPC96qSiTbaxFYORNIG/IY96o08dEvOVne7o4QREIZA8JGH5FUEnsVO67zb4ScCiPjTb9V2sBT5Y8KvVHkiL7Ijyz+a8N2M5U+vlMNZEwW0MmZ72wllEtqB55yEvkWIoLs6Iv+zYPAypZbBBo5Qkym0kdua770KTttkFhkPJjD1vySO9se5Y6IJ6QuLOFhXuR/ciM45DgWzyEnXmqANPKBL5zlfXnRl++dp0WXEZHmyfPpluci1yKH7unLVmQsB7EjV1W1mR/9Jmfa0m8FD2yEa8iLNnxcQ578IehiK4b6OysCC1mFSGZfEFapGpOvmxu5uBy5f+4avZHPkjXyhxQeHvcTHWcrjz766JazIxtt/9VeEVjT9cHbQmDFWSB9KFkSQEaL4aFwhIeh6pMjFIZyK5FliPv7nd3reUoi3UvhscLDT6qDGHiK6tpRpYv9+zg2Kz1WQxgVf6NYV8rJeDJI7smqgzYwucNSwxA2jLSxUuq1ygpT8sjgMAocij5gemGkjVHK5L7sW8f0cxqcS3/fbjCxWqECSt+HH2PxfP1koK2CwN93w4qxKDGFFxBwGhkbw8t4MOSj7tU2ZwjLrC6s9crm6apCPa0QGA+BaRFYqoku2HNRd9xp53ann3dhd4VL7dMdfvB+Fx+OfdZ5F7ZKJ1vDHDZ+xMHffhtd/xNC6oQzz+9OO8c5Sns6lTiHH7RvO9DdtrXhxz0Ow/7Gmbu7M869oCXUKmJUWamOUc2kAguBpVrrbtc7tJ2DhXBCzCAkJOPayAHjwzYk9M6YOvGs87tDnTd0+QPbNsd+9xEKSIyXfOBrrTIFgWZr2AH7fPd5P/1nf/qkXe2Q60+esKt7wE0Ob9sNVaYMz9Yab2a/cxci8Gunn9fIvusddql21tS6b8Xbc1HD0z0qunIY+7AfKrBU5yCytlIxhgzyhrrPn3JOwxF5p7puSOSolkOkIDYRj0ccvF87xN5cmL9rXf6AVr00DgG0Hqa7dl/YHXfaed03ztjd7baPbsTnigfv1x11uf27Q/7v4Hnzr6LK2xGvefkD2zbU9TCedE7J5GdP2tUOuT/kwL0buaTN4RlYSNKPHX9m961vdU0nrnrZ/dd942T65S2I5N12x3N3f8tBJG27KD1REZmKMfq5a/e3uo8ed0Z38H76sX93hcE5dOzCSWfubhVcZOXadLl3xptnHHvy2U2PvXhA5WV9VheBWRBYiesk42JKcZwYT1viQ7ErUsVfP/ZO7Cqmc6/KjH6c6xnyANdJ6t0vJs33/KsYHaGjHfGneFwVkGTSFh0VJOttyZGgyhuQKOLOUQeUG18OYU4cb2zidv0SY/cPdU7/XJN8ZdRLmoZSKMYVP2tDfyTpxmtsyDFtyReQBmLg4fX6mFzJtXId9/VzErkQvGEHT/lCto/prxzFIdrukbRnvpKTyAX0zXOyTVGfxPH6FflynbxIjO86v+mT6+Amlhfz60eukb+4JpUva73IC27aN2/yPoQLGTGOjClbF+GpneBpHuQqsCE7yXeSD+m3Z5i3nJmVw+b9JgdNjqXv8hht2RbYfzudvtEDz+/nnMbqe3Osb+YQ1uTHdcbfnw+ypF33uNc8wA+OyR31zzXGmaoq/UTOqUyDo+doE16w8xztROa1338TINnzvFwfXZZTatdf/56+LKeiTJ/ImvkJEUu/3KtP+u13WOmTD3kzNnOwFnnlOv3xfPfC31hHFUz0+2W+YMBOkG26McxR6ZBnsjswy3ZNYyWX5mh4tlW2v5rPyN96sosYo2fkkCyFuzBX5Gi9e1fXc21t5NtGYG2tm3X1uAgwAAgypaKU05Y/jHB9CoFCYDoITIvAmk5vZvMU255CYN3vRod1D7zZFUe+rXCS1k8+a3f3/i+c1s7JUpF01+sc2h120PpklO2D7zv2tPZGPm97s+0wh5xP0pe6txAoBAqBZUVgVgTWduEhGZXYG5ckH3GlKkciaTeCKo56/fx2zU61WwgUAoXA/BEoAmv+mM+txZQEK9184Qtf2EpXlUEPz6yaW4eqoUJgByJQBNZ0JlWl0udOPqdTaXb1Qw9oVSr77jWsh/nutr70zXPbmwMP2Hev7rqHHdgOBq9PIVAIFAKrjMBOIrCy88JCrMoKFRmqG1QwWJB1VtOobWirPP819kKgECgEdjoCRWDt4BkWxChbtKffXl9vc7T3fKMSzB0MSQ2tEJg6AkVgTR3SemAhUAgUAoXAmAjsJAJL9ZXzppzp5Gwf24Gc6YO8snWw4tkxhaRuKwQKgUJgiREoAmuJJ28zXRfI2O+bgzaz73oz99Y1hUAhsDECRWBtjFFdUQgUAoVAITAfBHYSgQUxJJbzc5yn4yOOdXZOxbPzkadqpRAoBAqBRUOgCKxFm5HqTyFQCCwVAqtAYDlY24Hk3zzngnYQuMPdHUBen0KgECgECoHFQmCnEViLhW71phAoBAqBQmC7ESgCa7tnoNovBAqBpUZgFQispZ6g6nwhUAgUAiuEQBFYKzTZNdRCoBAoBFYQgSKwVnDSa8iFQCEwPQSKwJoelvWkQqAQKAQKgckQKAJrMvzq7kKgECgECoHFRqAIrMWen+pdIVAILDgCRWAt+ARV9wqBQqAQWCEEisBaocmuoRYChUAhsIIIFIG1gpNeQy4ECoHpIVAE1vSwrCcVAoVAIVAITIZAEViT4Vd3FwKFQCFQCCw2AkVgLfb8VO8KgUJgwREoAmvBJ6i6VwgUAoXACiFQBNYKTXYNtRAoBAqBFUSgCKwVnPQaciFQCEwPgSKwpodlPakQKAQKgUJgMgSKwJoMv7q7ECgECoFCYLERKAJrseenelcIFAILjkARWAs+QdW9QqAQKARWCIEisFZosmuohUAhUAisIAJFYK3gpNeQC4FCYHoIFIE1PSzrSYVAIVAIFAKTIVAE1mT41d2FQCFQCBQCi41AEViLPT/Vu0KgEFhwBIrAWvAJqu4VAoVAIbBCCBSBtUKTXUMtBAqBQmAFESgCawUnvYZcCBQC00OgCKzpYVlPKgQKgUKgEJgMgSKwJsOv7i4ECoFCoBBYbAQ2TWCdccYZ3SGHHLLYo6neFQKFQCEwZwTOO++87sILL+z233//bu+9955z69VcIVAIFAKFQCHwHQT27NnTnX/++d0FF1zQHXTQQd0lLnGJgqcQKAQKgUKgENgxCGyawFJlcMABB+yYgddACoFCoBCYBgKSBCve++yzT7fXXntN45H1jEKgECgECoFCYCwELrrookZe8UsWVorAGgvGuqkQKAQKgUJgQRHYNIGlyuDII49c0GFUtwqBQqAQ2B4Eagvh9uBerRYChUAhUAh8LwK1hbCkohAoBAqBQmAnI1AE1k6e3RpbIVAIzByBIrBmDnE1UAgUAoVAIbBJBIrA2iRQdVkhUAgUAoXAUiJQBNZSTlt1uhAoBBYFgSKwFmUmqh+FQCFQCBQCRWCVDBQChUAhUAjsZASKwNrJs1tjKwQKgZkjUATWzCGuBgqBQqAQKAQ2iUARWJsEqi4rBAqBQqAQWEoEisBaymmrThcChcCiIFAE1qLMRPWjECgECoFCoAiskoFCoBAoBAqBnYxAEVg7eXZrbIVAITBzBIrAmjnE1UAhUAgUAoXAJhEoAmuTQNVlhUAhUAgUAkuJQBFYSzlt1elCoBBYFASKwFqUmah+FAKFQCFQCBSBVTJQCBQChUAhsJMRKAJrJ89uja0QKARmjkARWDOHuBooBAqBQqAQ2CQCRWBtEqi6rBAoBAqBQmApESgCaymnrTpdCBQCi4JAEViLMhPVj0KgECgECoEisEoGCoFCoBAoBHYyAkVg7eTZrbEVAoXAzBEoAmvmEFcDhUAhUAgUAptEoAisTQJVlxUChUAhUAgsJQJFYC3ltFWnC4FCYFEQKAJrUWai+lEIFAKFQCFQBFbJQCFQCBQChcBORqAIrJ08uzW2QqAQmDkCRWDNHOJqoBAoBAqBQmCTCBSBtUmg6rJCoBAoBAqBpURgZQmsPXv2dLt27er22Wef7oADDpho8i666KLuwgsvbH977713+xNAnHfeee3Ze+2110TPH+dm4zv//PM7fTvwwAPHecRU79EP/YHRpS51qe4Sl7jEVJ+/Ex52wQUXNHzIJJnJ/++///7dJS95yZ0wxB05hp1IYNFX9st/ySObtl06qw+7d+9ufdEPurFRX2KPXaf/pT87UvXmOqgzzzyz80f+jjjiiLm2XY0VAltBoAisb6MFB3GUz7777lt+YCtCVNduCQHxCXk744wzOvnXIYcc0mTO55xzzunOPffc5jvkP2KS+hQChcBkCKwkgYVI+cIXvtB9+MMf7q5//et3t73tbcdGkdFChP33f/93d9ppp3XXuta1uoMPPrj9v6Tr9re/fXfFK15x7OczhN/85je7z372s91XvvKV7na3u1135JFHrmsAOeyvfvWrrQ+M5d3vfvex25/GjZLJb3zjG60/Z511Vnff+953JKnGyJuXr3/9693lLne57mY3u9nFDmAa/VjUZ3B6J554YvepT32qOcDrXOc6HdLq05/+dAu+bnnLW3aXv/zlN0zaF3V8O71fO43AYnPo6T/+4z82/aOHbNh2BF3s69lnn939wz/8Q7NlN77xjTfsi3vYGvpzwxvesLv2ta/dFhI2Ir12upzW+CZD4N///d+7z33uc80W3+te9yp5mgzOunuGCBSB1TW/IaYSC1/zmtdscdWlL33pGaK+fY8WJ5500kndJz7xibbQc9Ob3rQ77LDDtsVnn3DCCQ13i03Xu971uste9rLdySef3HKYr33tay1fkiNd97rXbb78+OOPbwu3/LQ+h/TZPjTHa5nOyXP4CQtmcr8sdPznf/5ny22ufOUrtxjmMpe5zHiNzPEuefJxxx3XfeYzn2njQsBd4QpX6L7v+76v9f/zn/98m0e6deihh05cqCHupLMf+tCH2uKpdpLrkg95oZhOn1ynMONGN7pRk/VFKNKY49RUU/+HwFwJLIb11FNPbQbLfwmlD2WXsB900EEtODz88MOb4R034UAcMZiMOoPRf5Y+SM7+6Z/+qXvd617X3eMe9+h+6Zd+aWyB0NYXv/jF7s/+7M+ac7zzne/cDPBf/dVfNTLikY98ZHeDG9xg7OfD6Etf+lL39re/vfvABz7QPfaxj22EG7zW+jA0H/zgB7s3velNDcvf/u3fHrv9adyoPxzrG9/4xu6UU07pXvziFzeCavjhgP/2b/+2O+aYY7pb3epW3f3vf/9tM0zmjpE8/fTTm3xyRLOqpCOn8HnrW9/aILnb3e7WHIWkneOAA0NdRnoa0jj9Z0yLwEqVogDQH0KXHJI/Nsz8CxzoNFspQBz3wwaqJmFj6WLfnrA5CNXf+I3faDbt537u55oNW8/mjNuPje6DCVv+xCc+sY37wQ9+8IZ90f/Xv/713d///d93P/mTP9n98A//cFsNHdefbNTH+n01EHj1q1/d/cd//EdbpHryk59c1RyrMe1LOcppEliexV9IIMVyElb2dBgPiYXF9WI8vsJ1k/ioSYHXj7/+679uCfGP/uiPdj/0Qz/U4qpl/CRv4bNhCv/+zhEJ///8z/80v+fan/mZn2nk0bxjRrEsAkcse6UrXaktVpMTdvOjH/1okw/XIKrkMfKz973vfW13hkWBm9zkJktLMpJ/ucuf//mftxzwoQ99aCuQ8PEdXCwGGueiV/CSIYTjv/zLv7TchNyZt6td7WrdHe5wh0ZcvfnNb27zd8973rPJ2n777TeRaiGwxHovf/nLW3v3vve9u9vc5jZNhpFW+gJD8ba+6AOd1v4yEIITgbOFmxXSIInJID3bybsP5kpgcYTvec97Grnzb//2b21KJBUEXxJ11FFHdbe4xS2aQDJ+4yRMSXgQPsiHhzzkIW0FIJPod8qBwGJUJiGwKByD/M///M/dH/3RHzVyCeuOaf/Lv/zLVkY6KYHVZ/U/+clPNjIDM73eKsUiElgqIhBqaxFYsILba1/72hYs/cIv/EJLVLej6oNcIg8YcFV65PCnfuqnWgXILD4hsP7mb/6m6QPDbZWGY5eEw+FHfuRH2gpVJeGzmIHJnjktAiuVeG94wxtaAMiZ0wsBKyJJ0KOi6E53ulMLhNjMcUlVtoRO0i8ByVWucpWLQUjFJAILUbaMBBYfwwcUgTWZbNfd30GgCKyShmVBYJoEVhYg2VQx2uMe97i2wChp7McjdgqI7/1JbC06SDK367OTCCwxoqomJBDy6ta3vnWrTskHefLlL3+5Ye8jXvT7pKTCVudOPvTOd76zkQ0hF+RaFqZV6dzlLndpxKb8RVzteiQjAu7HfuzHWlyzrFVyO4XAypE4clpFExZszKUFRPOGOEUoydXk6eYNUTeprIl15exkRfHAD/zAD7Rc13Plju9+97tb2/e5z30aV+B6soKU3q48cav6MY/r8REqxZFXuJRJ52UefR63jbkSWBIjxkplCUF8xCMe0fqNLLC6wzgjtpSWcn6S+K1+CDVD/qpXvaqRJc997nObgCfRmyaBxWApDUWEIckkete4xjVaYjgtAsv4BSNWKDgxbPRG59EsI4GFMWYs3/a2tzXHK0jazm0/DCm2nzM2t1bcZxWMDQksBvrmN7950wkElsAFqcWJlKHeqkWY/fXTIrDYR4GBak42TBDKgWcbsfLpj3zkI20FSiWSwEESMc4Ki0D3ve99bwuG73e/+zVyNJ8isGYvM9XC8iFQBNbyzdmq9ngWBBb5F59ZpH384x/fYpR+FVARWLOTNvG/xFQSf9WrXrUtvKt66X/4bUSQj6R1ozxhFr1VgSS/UwWi0si2TcSnxeCf+ImfaKREChOQn+RUviIvI0sIkmVdpN0pBJY5sQPgRS96Ucs55bXi0OQe5oesIZnImHmblqyJdSMPZCG7p+TxYmJy/4M/+IMX52Ji33Hi31nI/qI8k53+2Mc+1ngUhSDzrsKcJw5zJ7De8pa3tLNVVBM861nPamONMhBQv3GSfrP1Y6tsPAWwpe9lL3tZI7Ce//znNyZy2gQWg4vkQDAgsDh0JbH6S3imSWBtVSCWkcCyVY5smDtlow94wAO21ZEhCRBq73jHO1qly9Oe9rSW7M/iM4rAcu4Vh/iv//qv3d/93d81B4JNV8Jbn8VCYJoElvM6/vRP/7TZLtsAJAkCBrIgKPyv//qvFhAinB70oAe1IHacl1AIhK2MIsBUFwo0i8BaLLmq3iwWAkVgLdZ8VG/WRmAWBNZrXvOa7l3veleLRVTK2B7mv0kgi8CanUQisCw6iUfFgKl6mV2LW3+ynEj+RkYsQjsKAwEhXlFNLp5RObasBNVGiOwUAks+4twrRSAq8B/+8Ie3woztmLe8wOfZz372xQu3cqNxdmdtNH875fc//uM/bnmCqjhzVwTWySc3Zr9fsjrOZCOqkBQSJ1tWnvOc51z8GIIqQVN6+sxnPrP9YfBzVhJiygGAmHxEF/aXEF/96ldvW6ysSiCpQmA5Z8m+a1UMtn5hiPXfWULa1oc/+ZM/af9WDm3bGgVV5ioplNCpvFnrYyzKqW31UamDrdYH40BgOV9LeWxIrbDVSi71QYl1Es8cUOdQPAe12+JoHCp+BAj66HvtKcHNdh9tqV5ToXPssce29nxnvP6too0Q5wysvFnMGWRWSrDsyC7jdg9S0fXGoW/9M3nsr1cRxJEicuCTw/z6DLj+IKEYQOfoCKQ8C74f//jHW7AzPAPLWJU8UjwG07zbSooYsNVJUu/fHIR+mh9bqRCTKre0Ry4k/Z5l3vQPA90vc0eSqZjzO5kx1z6e6zdj9LnrXe/acEEeKV11NpdVR6taxuK5+uf+VMeYO3/G6RoYaoPM9beveq4qG215rrknx+4zBvJumyiZ9HGdvebmwjkO+lGfxUJgFgQWW2j7M2cd8p2skYcXvOAFTWZUYaXkPmdksBHkkC7Qvdiz4bklCCy22HU5hBOq9EaQ6XmCBnZEG3Re+3SAzaWD7NB6gQSfoT90WABL1jlT97MdbGF/KzTbQddVmrEdeWOpNtlT+vSzP/uz33UGluvYDucEWlAQMBszG0yfrB5mISSHy7Jj9C34sHnf//3f3xYf2F7Pcq9n+zho1jVIwwQDbIa+mg9+yVj1U2m7Z8HGvMUWuoYP0L/4LP/N+LULK+2yC2wye2zMSviDM/vLF/TtsXbNoXb5lVHnzhireYCVRJMd8skhrNoy155Nns01W8TWsbV5c6w5cT/bCB84aM/ZlchWdg9G7Klqas/n72w/6PsJ26Ph4fn63t8Ka57caz6ciZJ7te03/pbsWOjoy4+gDYYwM1dw0VffkSnj0o7nkXPj6t9PfuAqvnBt5lRbXoTCDg/PwDIGfpZNN87+SvViWanqzSohMAsCiw0WazrnlT2jmyoi6K/PWgRW4khxJxvENkiSE0fSV7reX2T2Jjc6S3f5Qr+xqa71335S5ln8GL8nDhYT5s3NnuE3hI8KdvEg+yo+ZZvpr2fzGeyBv1FV7uyufmuD3Y//8DyHSLO97KC+srHpt2exH+wce58FeX1kZ/yxR54RW8TO8QP8EHsOXzElAsvxAvrsWWxufHbiQjaQnRU3iHNhow395oO1SzbYRu3ya8iJ/pvB/W4ujQNGxpR74KQ/7Gv/aBb+wpyxkeJ8PlelDOz/4i/+ovlj98HCxxwaM/zMkeebW37Iv/XZXMLceHNWp7iY7fb/bDScXKdt+HmuOfRf86H/ZDaHj5M5+MDBfey2a8UzMCCrfCMc+QPzyv+bc8/RH35BW8aizwhF8zMtAsvz+VYyql1xkbHoh7xDf8kVGfR7cq3kPnDmh8xPSCfXJk7i5z0zVW/BjO8mF8bh3CtbCOksPHPGFOzpvfb5PTECGSKL+mjucmA/+TUvkR39gbPrRxWmhKzCAehDXthD93AF5sT9cAge+mKswziUzJCh5Fn0wByZM1WA5JgcwIwssEt0NjEkORTPaMtcRy7sgCAzxqVfniFnFaPRieFZyTDXb3pgTPoJZ32md4nVtCv2MpeuzbPJliND4OxZdEUMFBlMnulZsVvyaPE93DNXdI5NMPbwDuJg7cEpeasxmB84LUNl27ZUYA0JrDg4gsFIW+l5xjOecXHiQfgYDpNie14OaDf5JpZS3/GOd2yGzbMYrRe+8IVtJYDjIICuZWw4MYGmPjgsjgAjGQi8CXed53DSBGet0kgC5qB0W8wIE5KIkhNSAmsbEOMaQ8pgZM9u+puzrLQtoLd6oe+MiHFQeFU3hEp/jee3fuu3GimWhJVj8BtjoU+cMefOCHPUzrcJgaWf+qSyiPHRLmfpWXntK0dv7Ay+6ymVOaHgSWwoinFZYZHchggyRsSYUmeGw/MpAYXJwdDu6xNYIeEkJarWcnh7FFY1CkzygbE3MZobBJZ2bIWihAyRDyNB8cmE/uXgTli99KUvbYajX3Win+bMIfP687u/+7vtvwyp1SOOS2JKFhgriZPAjZJzBg4J1X/yS4bMAYNuLCEc4aAd+L///e9vcmyOfG++4cMokj3ERAgsz3SWD+NlPMqw67NYCMyDwCJXSA56yz5yXKoUc3gmB0SG2SSOOLpAttgPjivnZpE5tpRsC2zJdBICcmdLIR0SNJD9OPHYCvqO5CLb9Gytba36JOHXlkAorzP3PPcLcv1bkEU3yDhbo0336qd+6Qsdo/M///M/3+w4m073ECna4IzZXt8LUuPkvaBDO2wQuyTAdp+Pdtkj2OQaAQoM6Sl7FnsimEJs5zB7wa/nOSNP8MF+woFv8SzX0WfbKTzTv+HHNrD7nsUP6Jd2PEe7MMg2EL8J8l0bX+F39g4RD6O06zqLNQLu4fmIWbh4xSte0dogS8aeP3bMPHie4InswNJ4+EYr5+ySufA9m0QGBc98jj6YIxjFX8FPFbS2HWZrrJ7n/8mBBSrjdkYZ/PsyxNfwEZ7rmAH3sr1wMfaXvOQlLbhU9Zy3s+qXFWNzYs75PfYVrmREX2NvJSoCTvMEtwR0gjmLWvRHP+HjN/rzhCc8oVXChsB60pOe1HD0fPZZwvfTP/3TbSw7+cyJxbK81Zu1EJgFgSU+I+f0i56Jw8VijjfgQxAdwzOwfE/v6JR4io9iX2K3EDFicvos3qV3/CmbKU5ia9gYH3a9H+uzGSG16aUYjB/wDPaIzWDP6KN4j7/yYQP132/u9xyxpN8R1aMWZYzb88XoYu3YK/eJBY2B/WQP9CW2kQ8Ts0oK2Qb2mR0Vm4v5/fEZtvokqYcXWwNLfpJdZ5/9v3OHkIeuzZmsrrHoyYeygdp89KMf3eJcMYOqLTlCXtoS32ecElzPlyeFwJFr8bf+gj9MQ0TkIHJjCg5suuTaETH6D6xPNC4AACAASURBVG/jErsjPs2lcecYDvdakCUf5Moci2c82zjYVPfwm+xwiMAf//Efb/kPGRELse36aB5dR4bISGKTLEKLl/gadp9ciEf0Ff7ynQc+8IGN0Mv2OdW25INNNw5yS2bMfeIC4yH/7ifH2p/0EHd+jK5YwDG+LMobv/kUm+lPyDKyzG+Z2xBSxkrWyAX/SB7II/LTOKJP5CAxltzCOLLDQ37yyle+so1HLhYfKT4kL+abj4Yn2ROHGj+bYN60g4Tjs5NfmiNt2Dkg5hhWdOUthL/5m7/ZdMniI/+sLbGouaJLZEa/EXV8uLH2CbFgSIdgQ570wXzJ4ywMZ77EgmIpcUWIdbjQBaQwOcq1xnb00Ue3nDixU16wRHYQRO4RM4WYyg4a8WhIKWNIBSv74Vr9ZFuMMR+xojhSFRW8PIsNJR9wTeEJfTAn5s49CCzniLExfUJNbk/HzKWxiMvJWPgU98qVyYJY25i2o+puK1597gSWBMJESYKcK+STVV3G3/ZBSidgFBATPAmC+1QMmCQOkzITOAdfM2AMiXOzKDojg6ggNAgfzzM5fhPcM7AMuommeBTQZHGsBJmhIoQUaa3XgzJi+kqo9IVTp1ghsDybUKomImCMAEGhVEgXjpKCEkzjY+QJEwUjZJwugSfsFNB9fQJLOxyGLZKMOSUmdJTU+GGsHcKIwGIc4KQdBBbFgKMVnlQbUR4KyPn4npG3RdIKCtKGkuhv3pjnGn2VLJgnio0UNG7PpzAcFoerTY4drn0Ci8Pwu0o243H+kySI0SIPf/iHf9gMiL5KNhOccL4UmVEOngy2+bUCRDk5M46J0TT3WyWw9JkjZRwlS+aXQmvD/JAXBkWVFgz1kcGFM/kinzDTB9fDh7NOYCLoYcAER9oSMJBHVSYhsPzmWeTSdw972MOWghnfihFa9mtnQWBx/uwSG8hJsjfIC/JGvxCZdEVQz5nRHQQFG0PnyQodoUP0mpwhRjlZDox++OOoya1AxIee+PMch7hLSkJU0wO2JUGqLSTke9QbRWPXBQieoS9ssL4j/X3/y7/8yy3I0p7v2XKyro95Y5QATjDkNzYuB8qzA+xhSGfXCwrYOViwf+7l/AU52vCGJnYmixNsE2xhAMfYL2Q4O+g+fWbnkWps2i/+4i82OySRoMd8i7nglwTbPoIAdlgf9JtvMVf8hHlk19mmvInIvKrg5a/MnbEYn3v9Rgb4F3NoVVSAyA6TDzaY/LFLfo+v6+sUTASET3/609tcmDeJi8Apb4xCyJEZ/RQYsm3a4XPJjXsS3BoDjMwpuyZQcq258CITzxBQC6IQeJIpWLo+q/tPecpTWl8f9ahHNfveX+0zD54FX0SRIJLNNQZ+1Tyaay9IsTpsjvQBYWaeVCiaIzbTtewwG+weusK/C/zNu4BUwA8LScOv/uqvNrKQTqSyBH7mjh/kw3zvjEZ+i//1e/zWogd8y25rq/+bQ2BWBBZbIy5mq8Q92hGviHvoJ53rH+LODtITcZpYKi9pEtcmTmOH2Q3kjlyATbJwKcal++JntpXfsOCCMGKP2FmxM//GTokZ/SbBZ2P5Af5Ev9gwNl1MKwbm35BGiBu2x/P5t7XenGgMYmF94yvZB9dnoVlsyAY6ToQN4GOQcuygHCFbevRDm+K6cQgsGPIbyJ9s+88CPV8hBugTWMaJjBGzq4gSx/N1bKJnwVPeAE82jn3kV80tu2ociSXYVvNrfIgkOVfIeveFdNKvHHfh+RbK+Ht5BTnxYW/di1jR5z6Bpc/8nFgj7ZMRWMvH+BGYiqX5KXMuZjAmmJp3vpFf1j6fr3/IH2MRC+SYGTJl7GIRuQn5S7xBdpEtFjDEY+QoBQ36KCc1jxaYxEF8+qQEFvnk9/WLb+c3U5hB1/hK8Rbd0b45oR/mFp6+h418xOKPmMk4YKKoA876m8qc5CR0zZzJV2GNwKKDeYkPH5n4UDvafd7znvddBBYdom8Wt8QnZDQLamST3hmTeICeDSt8NiKw6Lp8k37njDf/zTlZsYwhZ8QDclAYshUw0Uc5FvtDJvjz3/u932uyTqbFCOZU3CIfFz96Bl2X1/l/95M5doBMwoL98TxjJjOpWBOX6I9YQz/ZEfNLtj0r5Jv8T1yNgJfjwcez9cucu5dskHcy6P/plDjUmNhJBK3YXoxkAYA+i5dDPmYHkfhNf+mP2JSeiHnIggW8vLQsW4A353G256ptIbAEglZZk/hQHs6HYWREVF9xdISAQTHZv/Irv9KUgZAxQibRb0CnaP4rqHQfIcgZWIQzZ2B5fiqXKBqFInCSkmw/lPQwnoTS94z7qBUZgsQwSxAZD8KTFWpEiTEaFyOSIDtbBRkSykQxjIdiup6RYVisWKev2TopGQiBZfxRUsLKEVPSMKb6JkBnuBkMBBbj636K6TpYMbgUIRVgFEv7jL/kgkOGEeU1DoaD0Qmp4lmEXHJgbJJrCsVJcVbm0jgoDMNKaShbn8Ay74ylijWOmQEN6w5b82hOtWEVKh99YMD1AY76Yaw+ORCeE9Znc8MgjENgeX7OwMrqUdh3Rtl4BXOcAkOQRIsT1D/4qjbwX/gIgjhhAVtKYTkVfZMouy4ybizmhkMyNwIf8xAibXtMRrU6RGAWBBY5YT84HTaAnvijl+SdjnKg5IVjlSBwuOwVHYotIFv0jj0gP3QBSZ4zsASzvkswTLYFSoJBBBbnpwKHDWMH6TkynUzSN3qZRH+IS1be9D+JvTG4n14hahD57JD/py+ctf4IGrPCLnhEviAlJACcLR23xZFdE0wgflIJKpBAgCCQ2KE+gWXcVlVdT5+jy2wUWyqgEcS4L0Ebcsfz+CELK2yKKiDEuQDEfLARxunDRrLvEgd2j72m0+auf022MrBxAo6c/Rc7x74gYMwvn2j+fv/3f78F5QL7LBD0nznqrZR9Akv/+Be+NLaf7ZWYmEtYpRJC0mNBgl8TCMGFffM8cqD/8EsVhMBLv7IgxMdbpPK95EEQaf6teHouYg4JxZ71PyH0zS8CCznkGnpGDhD9yETzSH6Mw3fmyPORUvTmqU99aks8yIdnZFs8Eo8vtDji+akElJz++q//erPl+ts/90O8kTOwEHmCVNfSCfrmGTv5rImy+suFwCwJrCR84pksFFo8ZnvEjH0CSz9cJ36lQ+xnqnbpMz+H+JCYiqPZEnEbIoJ+S8z4Mr5EnMjP0WM6h0Cx8CFGpdP8CV1PVRAfJgYWi/keocSmiqXYYiR6tlnFR62140LiqZKJPReP8lGpWNI3Npn/ch27rN+xN8h+9+pHFmH4rXEILM8RV2ujf4g7nGExisASo/JdSDcknjHzkfoDHx9+Vewv72FH5UGIHf1NpZff+G59R3aEwDJ+cb3qL/jmPv41BJbfxRGIJp/4XYvQfMGQwOKLyQe7bZErsTefow3JvvGaV7E//5CzZOVvfI0xaYdvIzt8cPwF381PIA7gkree61uISv6WnIkDyEf8rGvgR67lkfIW8iA+mZTAMr/a52f1X9zVPxKAjsEb0WDBRa4EI20ba6reYUDek/vAWd5lLrOAlepv+JhX/k5sIP4IgSWuQbSIy/rzJjaAXyqwxI+qri3oaIP/NNfmhWzKz/lbv8nlxyGw5EKpyuLfE1MOF42Qk3IpdsWCVI4aSDzKPpAj+Tb5N4ePecxjWiGGeJgNQqw691isJ54xPvYEFmJs8aE42nyk2ILdIue/9mu/dnFsbuyxLYmt9UtsCgM6wb6Jz/UZ4S0m8ezoSOZ/1LPEMXkZE3sG75yBxT7gMBKXhFNAqhmHeFnOGltl3PBgl+iPcYxzvu48PeW2EFiUxaRTPB+JmolDPDF4hFyZH8EDuuBUMErIGBsTng+FRf5IqAgggchq7DiHuEuMGHzBrECWY40B70+MdjHNkkbOhCHtE1hrHeJOwK3SCOI5DI4/BBaDzDkyIvmEpOsTWHHEElPtU7T+eSCjDnFHeElUKDfHwxAk2QmB5XlRWIrMSRgHI5hqrcwXA4eIc71g3jy5XyIGD4qR1Rn9cT0FNychsEImUkDJgXYEIQxojALnJgHURuadvJAT886ZIYgktZknis7ZeiZjxQkJjsYhsNY7xN0cChgou76buxgpQUveJscgMSyCPQGQueKccu7AqEPcU4GVVQKJrMAFgZWy4HkaimprbQRmQWAJsBAGCRyyJTjnwZEhQaQAgqyp4OEokRBkJ6QAHeMcQ4jZgifomeQQd7YW4eTjeXRv1IeeCpzZKMFNziCyksTes/+CKToq+PdceoQMYH/icNkudpL+0xuBloBIJUC23Ao2Y2/YTIsLAoU8LxVYAgc+QhDSJ4L1jR2NX+LUEzQjt9hBgQ47hKTxHKukAiH2zipov1o3AS69ZWcFzpKB/htxYSbxUt2pf2ymfsWOsct8EfsoEHG/eTR3AlzYkQMLPaOIq8xJn8CCqeAlZ734zdjMJ9zZ+WzLQ9xlq6AAX/KjHf5K8ExGc7aZ50pcYUEGEUx+U2HFRxgbwgouMOEnjEcgOFwgitwgvthuAaSkVwAJBzhLwsy5YNi8G4NnCvyMz6IC0k9y4ZpUWsCEfIgpBOD6mbcs8flIWzhoc3hwLX8i4aGLfBRfbg7Mfbapl50sBBYBgVkSWEh0iS2yho2ld+I2fodN6BNY4mlJkViJ3xHXx7anGpI9ENNaVGBrxYmqC8T7/bOh+DkxKf/BTvIf9FiynopUMXU+Yk3Xuybnh8oN2AoJPZuULT8bJWohsCTuxsluJTFEvvBd4l92IJUcSaxjL42LPbJ4zO4iQLa6hXCtQ9xz8PZaBBZ/GWKJv8g5U/ykvCvV2eaOL9BP+FjoyDjMrTyE3ZPvhMBiD8Xh4l3+Qf4ieeYb+wQWOxsCK3O0FoGFoIEbLPsElvuQpHJIzzcP4u4QO/Ib/dDHVBNnMTlbBcVEvkOGWhzK0TIZDwx9n+1p5JXMuUdekfOM9I+P0z5fJVabhMAKMcXHeCYSKIvywcu8WZSRF2lbfEOG+7kPYoZOuNYcihHEjfIuMY/n8sXkl9yYV+SjQgWV3vIMcq4whK+VcyQOTT+GBBb9o2fa4LNDqqXQRPvILW2qdhuXwBJviovX26af6kYYsQfiZDHIcDeVSuzsJlBQYFtrzrsSD4oFErvBMBX9eAExDkxCLrme3NFpfWQPYU3v2Edyo19klg0in/qmGs0cJ0ZnLxFRw6p0uHuWHJaM6YsPO+nfYvDf+Z3faTHreoe457wv7dIdf/225KfiHP2zSJsYeBF82qg+bAuBJfhXFWU11YeiMYIUE4AIHoQD5TO5AnbBJsepVLN/xgfnwUG6xrXIApM67lsIOVArEIwI58kYjzpwDoFFYCVnlHWzBJakhIPg+AXltjhulcCiwASZATZWAt933KMILAaYcdG+FQtGJp8hgcXAMYjmgWFjIBmc/gozpVGtwOhL6iRgCCWJg3mDRz5rEViMJ8PGGTF+AhbBAeO0HoGVii6BCOzIhYSin8RJnPU/K3MSqxBYxtKvOlnrDKz13kJIZgUtjLIPh9BPYiTo2uP8jUvAZ945RvhLaBM0rUdgkW/YCDSsskjO6M4yHLC3qEZv2v2aBYElOEGes0HmWlJP1rNXnt4jGwTmgms6wP7ZziF47JMCAhSO2nUCLQn3JAQWh4xIYQMRG4LcUR/yL9jkePWH/TAWQSsnTg/YGvLPlnHMHKtgIYGBoG5IYFkRda0S9pyLJeCOTmyVwJJM6I8ghl1D7mij72cQ8GwbWycg4uAFHfwVW5AXYMBCQMAW8WdIL5VIqZ4zN3kxh+drV4DIpuXw9/6Kq6DZNfyQuTbv7JL+wEbgKHhx71rnka1HYJk3iRV/JLkQ0LBjsJQw8oXmkdzAGj6IO+2z03yj/rLxIcEitxJU9hFuIcd8p7KKPBjP8Pwr/TEuwR5fzm6Sc/bVnJNz/YCDNvlPfUBm0g/PFDsIsP0mEVAFNnyDrN9zzhaSzZzwZxsRWFY8+RZzrh/sscC3PoXAIiEwawLLYoLYhB4hNegr3aODKuf5oizOIsHFSmxkKj8T9/MNiPKc48KuiuvEq/yAWCcfvyFK2DNkjBhOwijRFv8mGVuLwEJgZEGc7ZbMSWotgkhwLQb1DzPvz+d6BBabxvbBgZ0SayLM+/EvH6Cf/AJc2D99QGDBZLNnYE2LwIIh/ySuFFNIyBFFxqBPOecKiZ/PWgQWW5yto8gg82L++eFZEFh8lX6bP76vX9BA/sgkfC1CyF3ImPOcEDNZbBdTG3cWyeQESAe+TKWQeXKt78l2tq/y2XlBAPz4AnPOD1g8GZfAytmQfJL+y5/o0/B4BnEETJFsPlmMGuY+crFU3SFckJSjCKwUSPgNFmIRY468bpbAQooihOTEYrhUxaVCe54EVhbAMmdyU7kTWRFPsym+E8NaIBTH5qVcIWvZNuPJEREwJOfwHkVgmT+VoPQHRyGudT37RG/YFfke+TIvZEd/xJxizfUILHNk8c6zxc5k0LOy+0KcZscCjkScsx6BJR8WP1rcYzPFun3ynqyLgxBXZGzRc825E1hrvYUwgSvHBVyKKhBmVAmiwJVhEQj3A3zCigBxDUOGzDFJzsAapwJLIiHZI3gEjEKvRWARfs6aslop2EwFlufrqz5TKgeGj0NgSWysXHHqAn1GtO8wKYTEBCa2EDJgf/AHf9ASYQkYAmU9AotQI4BUdlAOhqyf0HGA/l/Vm8CAkuVsAcoLk40ILMQRR4KApOCSpOz33ojAMn5OjPFx5glF65eSMhICITLA4CAZJZvkItuUUoI9isDS95yBxYkgW/tJULZMPve5z23zZy77lXopV+UMBFuSPXNuHuKcQjKsR2BJ0lQGSCT1mzzqTxFYi5MuzILAGvUWQiNG5kiiyb4A34p27JwADYFFh/oEVg5X5ehUsCCdJyGwst1VH+ls3/bEjpNpKznsaIJDAR69yJlu+s9uZsufVSoOnc1PQDaKwKJrAixbWei2lV3JUfR/qwRWVjW1bQWXzVTh0w8KjQexk5VnAZsgBBZsLWzpv0oCBIo5YB/NjWtULEm+fIekdw27mkORkTzG4Ll93dau/lhwgJfAQjBj4US7AkMrfcgnz8y20r52bERg8XeSAvPI5+atfwJ/lXFsdM5rYEOt9CHL2HgJS946yG9LfCQwgiPtsqESWIESWeV/bBvkM9jklOEPtVlyIhiGnWvJLLlRyec+4xcYPutZz2qY+S8flTPKVHzop8QYgTX04RINvoB9tcBg3jZDYEkgzbu2UoJvPqsCa3HscfXk24vC/JJ4E5mwXoXmRnjREUm1eMozxeIhDSzUWaRgQ3KWnBjevxE1rkfcWLTOm9v6fdFPdpNtk0Syg+JOtpI/6+stX+CDtGd7VGxpm5/JsRU5p891wwosBAWdFTMiL9yrHc9li9lPdkt/hvHVRgQW+ynBDPGTLfn6IRlmb1QVacs2SjZTXMemsY3s62YOcZc7ZAthnzjfagUW2wwfOQRfivzjd8XiEnf/liewz+sRWJJoPghhwi+5B2mU419mQWAhHvgU7SEY+lvQs81PrIxIIFPGSQbF6RZDxOJ8mhjJ+IzfvMgt4WgsYhYElnniuy2wiQnkTebWuPkg82HxXNXNpAQWOUEk8Wv6mbdm9vWzP8/6IB+Qpw7PkKSriOG8fXM9Aou+2k1DF5ODkdetVGCZAySmHJB8I99gtx0EFrzglKMI+HU+m0zy82JGNsTc0UlylDebJoYkD2IVc20eyJHYey0CS5vkhv5ki6E4nS7BRlEHMtg8+S7kGLJvIwKL/VUZaU7FGTmzlhxbGNAOm4VLkKMaE9lkH/S3X3iSFx/ZWkl3xJzZcm0M9Me43SseXusM8I18xrx+XzgCy2qzlXWVKhh0RsUk2Y8pSJVA9IkEk5sDX62iKIGUWCl/I7TD6hyCyelyHByl57knn80SWAJsRo0T6m8JM/mC7rW2EGobiSexIySIka0SWJQwe9UlpxIHDidGbFQFFiWFCSWEKYcVZR21hVCixLlJlCUeEojhaoD2cpCvwMM8MHySUn8JVEZVYHEGghukjqQAycNQ5LyD9QisHFrNYAgsrL4zDikrzZkEAhvP4XQ8O2e6cDjZ0mLe1yKwOC7OkuGDcV/utMEwqvRjgDiKUWcBCdoYF/hk3z7Sj2xvZguhYCtnSIRQXWuVcF5Go9r5bgTmSWCxbeyhVZbYOzKSswdsj0NE9MlUFVP0TD/zRjj2zx/nyhb0V4yz4qMaJYd45u17Rr4RgcUJCh6Q34JHgaAkPys9VqudQ6Kf9J4dQZTQJwScAEAwv9YWQsGp4AwxL+EwZroXR7xVAosuw9XWDvqac/iG20osnOStiEOSiR0WvCHO2WIr6v3qgbyJyzWql5Ay5sIzldQLFLQLk2F5vGvMp+/77fI1gl12jh1UzSQAZVtnQWBJziR9Vvqc/yThyxky5ht5ZFGAbTUv7D/ZZDv12/fGYsu3qqccjjrKnuRlKBatyDmbyRd5ruRVAiIIlMTqg98EmbDULqJLvCAAFYjljJAQrAK8JOL6rQpiMwSWa/go/sSbkZAD2aa60TakspuFwLwQmAeBRae1IznmX1TusMFsKEIIgSXetZAq9qKfbNxQTxJH8htsI18gDhd30t/+wqR/9+2w+NsuAeQBP8ZP5TOKwOoTzWJDCw8SWQs6yC/bufmXoQ3eaAshXyp51Q8EO1Iq/WYD+WD5hlgSLnlpBOKLzcxZgO5Z6y2E8BUrszmS2P7W/XEJLDmMuYGdPAYW/uQmYvj+OVujKrBgjQCyZY0P4/fgmDdrz4LAQoaKy8mR/K3fR/2BITn0u35I2s2vOJoPk9tYAM/h5+Jy8YTxi5H4DvmOPEluQB6NHfEhl5AHxT/5jW8Wg0xCYMUvWVSx+OIIA2RgP4ZwDX2TG8s75KA5V6yf+xgLEsNYzCHf6Z61KrCmQWCZe/iSAwuK9DwvlMmZUvPaQji0seYQpvRT3GBBC7500ndkBY6I4SHRn2on3+cQ91EVWPTPgluOrTB34l/YklFyEyIJ0Ud+zRm934jAYkM9y4KiuEPMHBsqRyWDMLZgJ0fVD2PLmcl9AkvBi9iHnUO66iebNDxHLG/znmThYx6+bqEILA7MJAk4GRn7shkRqyQCc4x6Xs8ahUd4KXVjhLHREgOEkAlXbifJ6Sc30yKwOFjOhDByKOnzegRWtqqoHJAwEWwr3lslsCSDyDmJIGGlBIL6GLtRBJYEI29RslqFJc/bG0YRWAxSKj0kVeaivxoT4YzgUwwOVhsSONfnEORRBJbEWLIn8UB6IaFUDyDEUk6rum3UGVhwRMjljX6cJqMiOAlzzlAx4tkuKLDJa9JdQ3HdsxaBRXE9A9nI0EhWhoqu3/D3PAab7A0/OYiPE+V4E4DAPy8XWK8Cq+98Odgc8D8P41BtbA6BeRJYIUKt9nLCgnwrd0gMwSJSgLPMgeZkk5Omy1adHIzLsQk2BKople8H/pMSWIIscitgkkSwBesRWPTAAZZ0TVCe0v2cazHcQii4Zm8QFOwtYoTu5c0vWyWwzLIgQYBlNdmz6POQCIouD5197FVe0uD/BUn9agDfmSe+DCmjr/wVMt2CDT/G1/EJw3MHNmo3AZGkyMpaf0uFsU2rAovfQBrpr22ACKzYxFEEFv+ibWSrxNS4BLUSHv5cktCv6u1rG7z4WDj6NywFh8gz/fAMSSM/KJgjc+w5/MgNn8Mn+y95siKcym3+zr3GkLcM8VWbOQMLgWWxhM9VjWYuyQkZ1/5QNjZnQeqqQmC6CMyLwNJr9pY+Sr4tbtBpeoioYZ/FPfSN/xH3jEqY6E0IJaQKe6E6QSw5fDlC3x4mBpPMI3XY7ejgRgQWu5ItVCp6JP7skjbjSzIr6xFYid8s4PIjYnrEepI/Say4L1vzLJhrW1ItXmYTYZVjMEYRWColss1I33I+Vfo3DQKLPRZzIxzFvPHbGccoAkvsY1wIIoSQe7L4NKsthGRM/CMukA8iaIYVc30ZYe9zwD28LGaQF+SOPsujxPrGidDka0JC8mvmVcFAXjqzFoHFL5BHi1R8n7wkVXLmOYeuk1G6MOoD+7yBEMGACB76RXGEvAgJJ1Yh98n9LO4jL1RUyafIophKZfksCSy5of6oArLIJM4UU4bInOcWwiGuqSri35E8eeGWGBKRZM6ypa5fjRQytF9FtlYFlrhODO6/ilLkzNqi++Zbfj4JgSXOQKBthsBSeKLyHS+BqOovZudFcnkra/iUIVFlzMuwy2fuBBa2UDIl6LP1zUegisShZJRckIgRzRYDjsgqC8NlpVQwanIkSRyjQJLx8DyJG4PlemV3Yc0pEmdKiFwzaQVWziYSVOuH7XnGFAKLETOmvDVLQMEJMvb6mwNs9XurBBYig6ESNGDiOS+GmAOSvMCTABsjA4jEi2FDGEWp3CPY8P/6xYhLouyH5zDzClpzoipCu4w/JdcGoUcaGTfFEAAgdIwzByN6DqwEJBwFY8KQZgWKLHieA5RzePBGBBaZsarFIJEnzkjSzmh4FiNi7OQg5wQhzCT/Kj/Il4SFfOmf6/RPkIHBZoQlRVZizCPnhyjgjGLgBBHZDgU7RgLBmnMUzAlMPM+cxJnrLwYclmQgb2pEwAr0JHmqs3KIO0JXcu+/5sB46rNYCMyCwKKTqRIkZ2Tcd+SUbrNhCd6gkWDYv9k8VSt0W2WQ4JJDQm4hHcikYJQukHHXswXacR3ZprPOEBqnAitkjdU4fY3NDqGjP2Q9b+djy/OGIwG0VVIJgOvZGONGXLBl/ALbwp6yvf6M07hUphob25TVtiyCbHSIu/GyC5InCQTd1A82ie76nU0QePIlbKNkBVZ03z3sh2cYjwojNtf3fvfHzrCliDpjcLg428COscvGZNwCQPPLhmiXz9KucZovssDm5pmCMLjBiw8cJD7PDwAAD1RJREFUbmebFoEFE3KG+FFhQJ4Ex3BBJNm+j1yyhTyv6SaPbBtcEXz6ZosJ28tWbnT4vECdDMHa4obFH8FyttL63fjogv6w0QIv3wnk+Bf/z6ZaqYcn+6svnsE3+t4YzM1GZ2CZX/2WcJKzvFHI/b7Tt/4RB4tlqao3q4LAPAksmOacIDon/uO76ANbKR7LC4csurD77Bk9YRP5HLaLDonrEPKewzaKafkPcRHdZVN9n+qOvBE7izFiMNcjUei3mFP74qYQHeJ1NgERwT7njEh2HunNtg23HK9HYLE1Yng+jT3QN8QCu8JGsJnsBl/BNiLIjDkvyeD75DR5GYQ+GQ87xR9IfuElDhU/IgN8L4bMx1jEtxZtjQ35J7eAgaNOhoe4ZwthvwKLD4WnuWJzVb+JDdi0VLGwm6naNjeKBFTfWYBBWopR+y9TmUUFlsV/8b251RdtsvvmjM/UVzKSrfBZUFPooHqdb5UrxCfIx/hu85QFt7w1V2wnj4SJ3IePgQuMzY/55tOQTRbL4WEO4Mgn8XX6qMqLL0JSapffTAFB3yaJ18Rl+kSOzbN4IjmR+Eb/5WryAu24xhECiQ/MneIAJBLCQ6xAdmZJYMEEwSL/k5eScfMiv6LT4hMxWbamzfIQd7ECuaeTsBI30HmLb4hEc2Uecw6dOFV/9JfOmi+2IEfDmF/6Qu8QWPBkZxJvkhnyQ9bdL64zz+RAm/7dPyw9b2r1HHHiRhVYbAjClgzJF8lmYiekNj2gc9lCSMbzJlH9ZQfMAfuaHU50AZ9i3Gyya+DhOnaZPYHdoi/IzZXAYkhMtMlgbCVZviMsBISDQgBxZhwOYQc6p0UBGUrJTLatMVaE1fUcBgMMcM9gaBkXSkVAQlwJsCn7pARWXg1KqDhcBBahYtj0lcFjhDgeCpGkjnF1HaGhAIzOVgmsJJuMK2NFYOEgofE8fWPYCD6n7YwP+FJiZIt7tNkv8VTR5B5EENaesSbMnDtD6XqCncPj4ElZYZk3VMRQeb6y8mx70Ta2W39VfyCrzCnssN8csW0YYag3Q2CRGU5T8sdIaINcmH/j9l+BEuOet0n5nnHlSDga86KP8NL3vBlCEON7hklQ4nqJlgBEIGW8DLTnMmrah5N+wycHPZp7c0zOOSttkAlzICAy3rwOFr4SU9eSfUGUT0rqXSeQCbG1KoH4MoxzWgQWOWQXVRYKUOgnmSPbfmPv/JFNwSM7wDmS9ZD5giq6RQ7ZIjJHdmzfYCPpNVkWBJJb8u167ZBbwSoZI+dIo3EILHNGF+im57PBgkvP0jZbww4K2v1xqvrJFiC3kCH6nC1z+icJocsSI07Xc2DFjiNIXEOf2Ch4+Y3O2ZLIvsBCUrTWWwjdYx49zwomXYyf0Za5oJMwNw42QcDLpmQrjTkQlAhakT0CBPpLt33MIdzNjbFYLPAs7XqeFUzPiw3JAgGboF3jQ1aZY74y7bJTgg3+T8IxfGvutAgsAZ65k0Sxo9oRUPdfupHD2vmGEDnmVkAlkSK/CDBzkreRrafjSCX3kQ0Jki2C5oKP5/cQTubKtkT2sf9MSZvkwzzBEn6wyNzC1OpoKt62QmCpDIO/eCQvfaE3OaNw0QO/ZbCr1cfxEZg3gZXDpdlYvov9Q2Cxb9m2QhclltmGzT6zseLhHB+RLVKuZdc9N1vB2BO679mSe/f6XQwmKRRbsYvadK1/a49+q7Zhv8WM+sc2uEZ7bK7nZEt7Dnnuo78egeU6dgVpwL8gpMSnfJ7n8036EL/AR7Adid/5HD6C7coOBP3kj/lHvkKfUu3kemPznPhs8SibyFaOS2BlB0EWU43HHOVMML6Lb5ZEW+QWU7Ct8jmxrsS6T+DPqgILpoodxC/6qp3kPvAQy/BVibvND1JQHoPAMO9IJNiSJ/5TrsivwQ4BIT8jd+5TlWWMCEft5MUl8iV/ckp4yEPNYwhAOGnHYlUWyOVFcgJ5lrx0uIDDV4obkiPwrfTFdXw8v2lceTu5GMs9OW8q8QhZN768UIZMzpLA4u/1yXyIUcRC8MtZrPoIAz5SFaYYbugj6ZC40G4c19uKCFu6aQeM3zbzFkIxiliKnrs3nAC/D0eLmjDUP3qNABJfuC6xV45+yTmffguBRZ7YrMQNZET+7Tvxl5zYuNkj8azckK5Gbui28VnkE5+K4Tc6xJ0MIpvJvedom256Fr3ElYhJUqiBK2ETXefPuI2Z7UxxCpn3XPqQWNc45ejkzILxoldhzZXAIqAmU6AoACZQBMxEAD5vcsrbR/rbCxgt7DShJGwMBWPCOCBpwmgneWJYGALGnhMzQQgHQSvDS5kYCf/uHzjOMTAK+snAMAKjzraQoBFCKyVKBylbDonUnraxzgQsRoUB0k+JRvaJ6y/FJGyUKc48ztO443Q9k8D3z6vxbMoq6ULKUCQCyRnqv/FynP0EKlUcjKlxuNZcMOQSEHtsJbrZxuG5MJFEwp1QUzrYMUiuzYcyI/CM3XwJXigFpePkGCTjN1ZnAhi7bXHmsV++ySlpD+GJ3efEh2XdSTqNnyOVKMMrfYsc9Z2EcZKfvIUEfvCi5FY6jImSp2JPP41d0ghbWAmeXMMI60Nesasf5t53+sqowz+VWyExBQYMlmoKcup7sgxHVR/+BCz6Ri4YWLjZ9rhW6fH4oW7dOSkC0yKwQvSSTTLHEdMn8sF+CbbYMI6PbJHZOBj3cmTRBXIbXaAHgiYy1X+7X1+2BRyCIIEPcoytshLI9gnmBGOxx5wofWP/2ItRW4th6neBE3tvdSq6xtZ7Hh2i99ly4HcO1Wo122E8xqVf+s6O0Q2rQ9FpATV7Rj8FGPDSTwEDOykoZ2thaFFDUCG4pcPGNgyi6CPfxJ7qC/vkOrizdYIT/fEsRD2bo9/sBf2FteuMyTPMY57DvrFNGQfiLuOAv3G4R3JlHNphYyQn7BIZsFjCdrDdrtEuLNkZfUty1JdpY3etbTLkxephqttcp4/m0zz2twXyOzl8nh+EWchBiZo5Cjmnr2wjX2yOsvqdfrBhiFn9sAUxJORGumc+3MtWCvrJcRY6yKEtF2y6RReyNEwI4EQnjJGsmANjz+JGFhD0g99SCSeRNUchh9NHSTWflDMUIzv8smQq56jR00UP/DbCvX5fbgSmSWAhRtgwsUjitVHbAMV67Bf7KZZXZRnSmI1EALCZ9Na1fJHqBvaCTU7lKHuVmJdNFF/pA5sqPmaj+mcyyiHEXa4Vd1q8EMfzA4m52Ud6yR6wBa41Fn3gW+g82802jKqgZJ/ZEbGbeDQxYl9KxKz6qg9sQkgoto69kUD2z5E1R+wnn8TOxqazUex4FoglkqkI428Q9/rPNvJNnstnu88csUtiRXYKznwGfIwvlUow9ptn8TfsXQgfcyXmF4fIg/QxB6Vrk59DCMIqC+J5KUeIlOQb8NAGrMURwy1xYhwxvjnkO2ClX/wLu67P/PhwG6nr2XPyBmv/hn8WmBEJ/ZwwO0TYcLjrC3yz4B8bbpzu5e8jB9ri68wRP5ScRp+Sa/DRZA2u8gv+QL7A15Itfo/8aEesrw2yPErWxE10hJxqz3PMLTJKHpSKRHOhLfES/Uy8Jz6EZY4oMRdiPcSSGIIu5Mxg/txzkHvuF8/JMcRSOSO1fzxN5J0eKECg52QnO3PyZlJ9ou/mkIyal+ygUiBAdkYdxYAESxV8KoPMne/8lrkZbvXr6yFZR6TRBfJn/syV+CaxsP5ka2DezOce8hhbkxfVkJM+gWXOzQU9IQvGR9bgkG2T+qNd+sPmkR9YmG+6nFyT3JA5v4vByIlFWvHTEB92Aq5i6hSUeJb+yA/NnXiGDHpe7IRnstfGTi60LT4Ry7BVZAhmPjno3ljgtehxzFwJrOUOCb639wSUUAl6Ka697YzLoh58lkoOAk4wKUhIIEQcR2LFoB9MzGLOGGjKxWgi2Wx7SfXULNpbxmcy2pxE3lwoGDQvi25QlhHrSfs8LQJr0n7U/YXAoiDAxwiIs/rJ1kuk+Eer1dkuvij9rX4UAjsJgWkSWDsJlxrL+gjEbssLcg5OzgqzSIQEkfyLRxEK8gbJtEVvyXF9VheByAkEcgaZ78gJ8g4JhehSsLBsC/Gp9FzvLYSrO/PbN/IisCbAnnIy3phyWwiVN2LcMaKL9sk2Ekw85thql9UHyTdm3MoEEk75JuZ1rcN1pzEuLLdtFwgaK0dWz2vLxXeQJVdWrAQHthYJDFIFMw386xnTRaAIrOniWU9bfgT4GBW97LpVPrbMx2GpVi/XW0Fd/tHXCAqB7UWgCKztxX8ZW8/RHSrYUpGNrLKYqiLIAoRKH9VdjrlQCWzRW77g/4fVVcuIQfV5fARUGKncSgWTooRUb8r3kECqufwNd9OM3+p87iwCaz44b7WVIrC2itjgesZdWa8qLA5AiSNSZtE++sn5KM2VUEgwkFopaVQuqcRQ6aByy1lV+sBIWazDd205sZJj60t9voMAIlFZt/3TSjudLaBEdfhq58JsMRAoAmsx5qF6sRgIKFm3KOIQ02xptzUEEW8LxHA7yGL0unpRCOwcBIrA2jlzOa+RyAfYa9uULGhn66ZcQOxpS5pthnIEWxyd9WQro+3l8h7xfH1WFwHbOJGc8kt5C9KH7CCyEFa23doyZwvbsi1gFYG1mHJdBNaE85LzRZzxQmntLba3edE+eROH/bPZm+w7jsl2Dqsn9prbjzsr8gom8IITJ8kJ2jOs/fp8BwHG0gqYVS942XazbCsWqzSfRWCt0mzXWDdCwKqr6lrngOSNic5e8cfmV7XtRgjW74XAZAgUgTUZfqt4d3IZcac8QZxuMZW9VonlrEXnAdlhIkZ1do7zkyyu5rDwVcStxvxtBJCfzpGUCztXShzgOB2yo0CC/3e207KRV8aWN43aQqviUN466rzRkoX5IlAE1pTwZvz9Ze/vlB5bj1lhBEqmlmPyi8BajnmqXhYChUAhsAoIFIG1CrNcYywECoFCYHURKAJrdee+Rl4IFAJTQKAIrCmAWI8oBAqBQqAQmAoCRWBNBcZ6SCFQCBQChcCCIlAE1oJOTHWrECgElgOBIrCWY56ql4VAIVAIrAICRWCtwizXGAuBQqAQWF0EisBa3bmvkRcChcAUECgCawog1iMKgUKgECgEpoJAEVhTgbEeUggUAoVAIbCgCBSBtaATU90qBAqB5UCgCKzlmKfqZSFQCBQCq4BAEVirMMs1xkKgECgEVheB/wXLMv3NLI1qPwAAAABJRU5ErkJggg==;" vertex="1" parent="1">
          <mxGeometry x="70" y="530" width="730" height="149.04" as="geometry" />
        </mxCell>
      </root>
    </mxGraphModel>
  </diagram>
</mxfile>
